<svg id="Group_763" data-name="Group 763" xmlns="http://www.w3.org/2000/svg" xmlns:xlink="http://www.w3.org/1999/xlink" width="271.167" height="297.188" viewBox="0 0 271.167 297.188">
  <defs>
    <linearGradient id="linear-gradient" x1="0.5" y1="1" x2="0.5" gradientUnits="objectBoundingBox">
      <stop offset="0" stop-color="#1d4b9e"/>
      <stop offset="1" stop-color="#36dcf2"/>
    </linearGradient>
    <linearGradient id="linear-gradient-2" x1="1" y1="0.5" x2="0" y2="0.5" gradientUnits="objectBoundingBox">
      <stop offset="0" stop-color="#5fff94"/>
      <stop offset="1" stop-color="#69ffff"/>
    </linearGradient>
    <linearGradient id="linear-gradient-3" x1="0.514" y1="0.543" x2="0.486" y2="0.457" gradientUnits="objectBoundingBox">
      <stop offset="0" stop-color="#fff"/>
      <stop offset="0.005" stop-color="#fff" stop-opacity="0.988"/>
      <stop offset="0.085" stop-color="#fff" stop-opacity="0.784"/>
      <stop offset="0.17" stop-color="#fff" stop-opacity="0.596"/>
      <stop offset="0.259" stop-color="#fff" stop-opacity="0.435"/>
      <stop offset="0.352" stop-color="#fff" stop-opacity="0.302"/>
      <stop offset="0.45" stop-color="#fff" stop-opacity="0.192"/>
      <stop offset="0.555" stop-color="#fff" stop-opacity="0.106"/>
      <stop offset="0.671" stop-color="#fff" stop-opacity="0.047"/>
      <stop offset="0.805" stop-color="#fff" stop-opacity="0.012"/>
      <stop offset="1" stop-color="#fff" stop-opacity="0"/>
    </linearGradient>
    <linearGradient id="linear-gradient-4" x1="0.5" y1="1" x2="0.5" gradientUnits="objectBoundingBox">
      <stop offset="0" stop-color="#2adb65"/>
      <stop offset="1" stop-color="#11becc"/>
    </linearGradient>
    <linearGradient id="linear-gradient-5" x1="1" y1="0.5" x2="0" y2="0.5" xlink:href="#linear-gradient-3"/>
    <radialGradient id="radial-gradient" cx="0.5" cy="0.5" r="0.771" gradientTransform="matrix(-0.648, 0, 0, 0.648, 0.824, 0.178)" gradientUnits="objectBoundingBox">
      <stop offset="0" stop-color="#25f26e"/>
      <stop offset="0.023" stop-color="#26f078" stop-opacity="0.922"/>
      <stop offset="0.086" stop-color="#29ec91" stop-opacity="0.729"/>
      <stop offset="0.154" stop-color="#2ce8a8" stop-opacity="0.557"/>
      <stop offset="0.226" stop-color="#2fe4bc" stop-opacity="0.404"/>
      <stop offset="0.304" stop-color="#31e2cd" stop-opacity="0.278"/>
      <stop offset="0.389" stop-color="#32dfda" stop-opacity="0.176"/>
      <stop offset="0.484" stop-color="#34dee5" stop-opacity="0.098"/>
      <stop offset="0.594" stop-color="#35dcec" stop-opacity="0.043"/>
      <stop offset="0.733" stop-color="#35dcf0" stop-opacity="0.008"/>
      <stop offset="1" stop-color="#36dcf2" stop-opacity="0"/>
    </radialGradient>
    <linearGradient id="linear-gradient-6" x1="101.825" y1="0.5" x2="100.825" y2="0.5" gradientUnits="objectBoundingBox">
      <stop offset="0" stop-color="#083a63"/>
      <stop offset="1" stop-color="#062638"/>
    </linearGradient>
    <linearGradient id="linear-gradient-7" x1="100.051" y1="0.5" x2="99.051" y2="0.5" xlink:href="#linear-gradient-6"/>
    <linearGradient id="linear-gradient-8" x1="64.977" y1="0.5" x2="63.977" y2="0.5" gradientUnits="objectBoundingBox">
      <stop offset="0" stop-color="#ffba1f"/>
      <stop offset="0.004" stop-color="#fab720"/>
      <stop offset="0.044" stop-color="#cca02c"/>
      <stop offset="0.089" stop-color="#a28a37"/>
      <stop offset="0.138" stop-color="#7d7740"/>
      <stop offset="0.191" stop-color="#5c6749"/>
      <stop offset="0.25" stop-color="#415950"/>
      <stop offset="0.317" stop-color="#2b4e56"/>
      <stop offset="0.395" stop-color="#1a455a"/>
      <stop offset="0.491" stop-color="#0e3f5d"/>
      <stop offset="0.626" stop-color="#073b5f"/>
      <stop offset="1" stop-color="#063b60"/>
    </linearGradient>
    <linearGradient id="linear-gradient-9" x1="74.743" y1="0.5" x2="73.743" y2="0.5" gradientUnits="objectBoundingBox">
      <stop offset="0" stop-color="#40ffa8"/>
      <stop offset="0.055" stop-color="#3fd88d"/>
      <stop offset="0.126" stop-color="#3eaf70"/>
      <stop offset="0.203" stop-color="#3e8a57"/>
      <stop offset="0.286" stop-color="#3d6b41"/>
      <stop offset="0.376" stop-color="#3d5230"/>
      <stop offset="0.475" stop-color="#3d3e22"/>
      <stop offset="0.59" stop-color="#3d3119"/>
      <stop offset="0.734" stop-color="#3d2913"/>
      <stop offset="1" stop-color="#3d2712"/>
    </linearGradient>
  </defs>
  <g id="Group_751" data-name="Group 751" transform="translate(5.79 119.504)">
    <path id="Path_500" data-name="Path 500" d="M335.119,309.075,189.295,393.262a15.761,15.761,0,0,1-15.761,0L72.087,334.7l160.738-92.8,102.293,59.051A4.688,4.688,0,0,1,335.119,309.075Z" transform="translate(-72.087 -217.688)" fill="#273255" opacity="0.5" style="mix-blend-mode: multiply;isolation: isolate"/>
    <path id="Path_501" data-name="Path 501" d="M85.753,306.619l147.071-84.906,98.638,56.939-.271-1.374,6.271-.9v4.806l-.007,0a4.643,4.643,0,0,1-2.337,4.167L189.294,369.538a15.762,15.762,0,0,1-15.761,0L72.087,310.976v-4.91Z" transform="translate(-72.086 -213.27)" fill="#273255"/>
    <path id="Path_502" data-name="Path 502" d="M335.119,278.075,189.295,362.262a15.76,15.76,0,0,1-15.761,0L72.087,303.7l160.738-92.8,102.293,59.051A4.688,4.688,0,0,1,335.119,278.075Z" transform="translate(-72.087 -210.904)" fill="#0d142d"/>
  </g>
  <g id="Group_752" data-name="Group 752" transform="translate(5.717 0)">
    <path id="Path_503" data-name="Path 503" d="M210.594,143.194,357.173,58.567a4.759,4.759,0,0,1,5,.127l.008,0,4.133,2.381-1.294,1.607-.636.1V177.425L213.142,264.738l.331.63-5.337,7.441-4.491-2.589-.071-114.859A14.041,14.041,0,0,1,210.594,143.194Z" transform="translate(-203.574 -57.919)" fill="#4ad0ee"/>
    <path id="Path_504" data-name="Path 504" d="M361.1,180.739V66.043a4.806,4.806,0,0,0-7.208-4.162L207.315,146.507a14.041,14.041,0,0,0-7.02,12.169l.071,114.859Z" transform="translate(-195.804 -58.644)" fill="url(#linear-gradient)"/>
  </g>
  <path id="Path_505" data-name="Path 505" d="M357.485,179.883,207.833,266.307V155.671L357.485,69.158Z" transform="translate(-192.358 -60.379)" fill="#04103a"/>
  <g id="Group_756" data-name="Group 756" transform="translate(34.338 135.259)">
    <g id="Group_755" data-name="Group 755" transform="translate(0)">
      <path id="Path_506" data-name="Path 506" d="M371.383,323.549l-8.864,5.158-4.99-2.856,8.864-5.158Z" transform="translate(-357.529 -250.687)" fill="#163e6d"/>
      <path id="Path_507" data-name="Path 507" d="M359.459,330.71l-10.532,6.129-9.467-5.419,10.532-6.129Z" transform="translate(-331.49 -251.693)" fill="#163e6d"/>
      <path id="Path_508" data-name="Path 508" d="M342.594,320.9l-10.532,6.129-9.467-5.419,10.532-6.129Z" transform="translate(-301.45 -249.545)" fill="#163e6d"/>
      <path id="Path_509" data-name="Path 509" d="M325.728,311.081,315.2,317.21l-9.467-5.419,10.532-6.129Z" transform="translate(-271.411 -247.397)" fill="#163e6d"/>
      <path id="Path_510" data-name="Path 510" d="M308.863,301.267,298.331,307.4l-9.467-5.419,10.532-6.129Z" transform="translate(-241.371 -245.249)" fill="#163e6d"/>
      <path id="Path_511" data-name="Path 511" d="M292,291.452l-10.532,6.129L272,292.162l10.532-6.129Z" transform="translate(-211.331 -243.101)" fill="#163e6d"/>
      <path id="Path_512" data-name="Path 512" d="M275.132,281.638,264.6,287.767l-9.467-5.419,10.532-6.129Z" transform="translate(-181.291 -240.953)" fill="#163e6d"/>
      <path id="Path_513" data-name="Path 513" d="M258.267,271.823l-10.532,6.129-9.467-5.419L248.8,266.4Z" transform="translate(-151.252 -238.806)" fill="#163e6d"/>
      <path id="Path_514" data-name="Path 514" d="M241.4,262.009l-10.532,6.129-9.467-5.419,10.532-6.129Z" transform="translate(-121.212 -236.658)" fill="#163e6d"/>
      <path id="Path_515" data-name="Path 515" d="M300.843,333.388l-10.532,6.129-9.467-5.419,10.532-6.129Z" transform="translate(-227.086 -252.279)" fill="#163e6d"/>
      <path id="Path_516" data-name="Path 516" d="M283.977,323.574,273.445,329.7l-9.467-5.419,10.532-6.129Z" transform="translate(-197.046 -250.131)" fill="#163e6d"/>
      <path id="Path_517" data-name="Path 517" d="M267.112,313.759l-10.532,6.129-9.467-5.419,10.532-6.129Z" transform="translate(-167.006 -247.983)" fill="#163e6d"/>
      <path id="Path_518" data-name="Path 518" d="M250.247,303.945l-10.532,6.129-9.467-5.419,10.532-6.129Z" transform="translate(-136.967 -245.835)" fill="#163e6d"/>
      <path id="Path_519" data-name="Path 519" d="M233.381,294.13l-10.532,6.129-9.467-5.419,10.532-6.129Z" transform="translate(-106.927 -243.687)" fill="#163e6d"/>
      <path id="Path_520" data-name="Path 520" d="M215.039,280.387l-15.805,9.2-9.467-5.419,15.805-9.2Z" transform="translate(-70.137 -240.68)" fill="#163e6d"/>
      <path id="Path_521" data-name="Path 521" d="M224.486,252.246l-10.393,6.048-9.467-5.419,10.393-6.048Z" transform="translate(-91.192 -234.521)" fill="#163e6d"/>
      <path id="Path_522" data-name="Path 522" d="M207.284,242.236l-10.393,6.048-9.467-5.419,10.393-6.048Z" transform="translate(-60.552 -232.33)" fill="#163e6d"/>
      <path id="Path_523" data-name="Path 523" d="M343.525,339.832l-10.532,6.129-9.467-5.419,10.532-6.129Z" transform="translate(-303.109 -253.689)" fill="#163e6d"/>
      <path id="Path_524" data-name="Path 524" d="M326.659,330.017l-10.532,6.129-9.467-5.419,10.532-6.129Z" transform="translate(-273.069 -251.541)" fill="#163e6d"/>
      <g id="Group_753" data-name="Group 753" transform="translate(150.838 26.164)">
        <path id="Path_525" data-name="Path 525" d="M176.564,279.8l-10.532,6.129-9.467-5.419,10.532-6.129Z" transform="translate(-156.565 -266.715)" fill="#163e6d"/>
        <path id="Path_526" data-name="Path 526" d="M159.7,269.987l-10.532,6.129L139.7,270.7l10.532-6.129Z" transform="translate(-126.526 -264.567)" fill="#163e6d"/>
      </g>
      <path id="Path_527" data-name="Path 527" d="M259.278,289.509,183.3,333.723l-9.467-5.419,75.979-44.215Z" transform="translate(-101.929 -242.676)" fill="#163e6d"/>
      <path id="Path_528" data-name="Path 528" d="M309.794,320.2l-10.532,6.129-9.467-5.419,10.532-6.129Z" transform="translate(-243.03 -249.393)" fill="#163e6d"/>
      <path id="Path_529" data-name="Path 529" d="M292.929,310.388,282.4,316.517,272.93,311.1l10.532-6.129Z" transform="translate(-212.99 -247.246)" fill="#163e6d"/>
      <path id="Path_530" data-name="Path 530" d="M276.063,300.574,265.531,306.7l-9.467-5.419,10.532-6.129Z" transform="translate(-182.95 -245.098)" fill="#163e6d"/>
      <path id="Path_531" data-name="Path 531" d="M259.2,290.759l-10.532,6.129-9.467-5.419,10.532-6.129Z" transform="translate(-152.91 -242.95)" fill="#163e6d"/>
      <path id="Path_532" data-name="Path 532" d="M242.333,280.945,231.8,287.074l-9.467-5.419,10.532-6.129Z" transform="translate(-122.871 -240.802)" fill="#163e6d"/>
      <path id="Path_533" data-name="Path 533" d="M225.467,271.13l-10.532,6.129-9.467-5.419L216,265.711Z" transform="translate(-92.831 -238.654)" fill="#163e6d"/>
      <path id="Path_534" data-name="Path 534" d="M204.824,251.455l-23.7,13.791-9.467-5.419,23.7-13.791Z" transform="translate(-45.776 -234.348)" fill="#163e6d"/>
      <path id="Path_535" data-name="Path 535" d="M190.161,260.577l-24.971,14.531-9.467-5.419,24.971-14.531Z" transform="translate(-18.667 -236.344)" fill="#163e6d"/>
      <g id="Group_754" data-name="Group 754" transform="translate(48.906 89.301)">
        <path id="Path_536" data-name="Path 536" d="M304.336,348.1l-24.971,14.531-4.733-2.71,24.97-14.531Z" transform="translate(-274.632 -345.394)" fill="#163e6d"/>
        <path id="Path_537" data-name="Path 537" d="M303.125,353.5l-8.457,4.921L285.2,353l8.457-4.921Z" transform="translate(-281.679 -345.981)" fill="#163e6d"/>
      </g>
      <path id="Path_538" data-name="Path 538" d="M325.375,343.062l-18.441,10.731-9.467-5.419,18.441-10.731Z" transform="translate(-264.604 -254.396)" fill="#163e6d"/>
      <path id="Path_539" data-name="Path 539" d="M355.983,314.587l-8.864,5.158-4.99-2.856,8.864-5.158Z" transform="translate(-330.099 -248.725)" fill="#163e6d"/>
      <path id="Path_540" data-name="Path 540" d="M340.582,305.625l-8.864,5.158-4.99-2.856,8.864-5.158Z" transform="translate(-302.669 -246.764)" fill="#163e6d"/>
      <path id="Path_541" data-name="Path 541" d="M325.182,296.663l-8.864,5.158-4.99-2.856,8.864-5.158Z" transform="translate(-275.238 -244.803)" fill="#163e6d"/>
      <path id="Path_542" data-name="Path 542" d="M309.782,287.7l-8.864,5.158L295.928,290l8.864-5.158Z" transform="translate(-247.808 -242.841)" fill="#163e6d"/>
      <path id="Path_543" data-name="Path 543" d="M294.382,278.74l-8.864,5.158-4.99-2.856,8.864-5.158Z" transform="translate(-220.378 -240.88)" fill="#163e6d"/>
      <path id="Path_544" data-name="Path 544" d="M278.981,269.778l-8.864,5.158-4.99-2.856,8.864-5.158Z" transform="translate(-192.948 -238.919)" fill="#163e6d"/>
      <path id="Path_545" data-name="Path 545" d="M263.581,260.816l-8.864,5.158-4.99-2.856,8.864-5.158Z" transform="translate(-165.517 -236.957)" fill="#163e6d"/>
      <path id="Path_546" data-name="Path 546" d="M248.181,251.854l-8.864,5.158-4.99-2.856L243.191,249Z" transform="translate(-138.087 -234.996)" fill="#163e6d"/>
      <path id="Path_547" data-name="Path 547" d="M232.78,242.892l-8.864,5.158-4.99-2.856,8.864-5.158Z" transform="translate(-110.657 -233.035)" fill="#163e6d"/>
      <path id="Path_548" data-name="Path 548" d="M217.38,233.93l-8.864,5.158-4.99-2.856,8.864-5.158Z" transform="translate(-83.226 -231.073)" fill="#163e6d"/>
    </g>
    <path id="Path_549" data-name="Path 549" d="M149.655,333.088,201.4,303.21a4.957,4.957,0,0,1,4.956,0l22.573,12.916a1.771,1.771,0,0,1,0,3.068l-51.912,29.972a4.741,4.741,0,0,1-4.741,0L149.655,336.22A1.808,1.808,0,0,1,149.655,333.088Z" transform="translate(-52.878 -246.715)" fill="#163e6d"/>
  </g>
  <path id="Path_550" data-name="Path 550" d="M317.436,128.495c-.462.779-1.24,1.171-1.737.876s-.526-1.166-.065-1.945,1.24-1.171,1.738-.875S317.9,127.716,317.436,128.495Z" transform="translate(-236.59 -72.917)" fill="#235091"/>
  <g id="Group_758" data-name="Group 758" transform="translate(0 16.837)">
    <path id="Path_551" data-name="Path 551" d="M186.893,220.672V184.943L356.767,86.867v35.674Z" transform="translate(-175.282 -81.092)" fill="#273255"/>
    <path id="Path_552" data-name="Path 552" d="M358.61,86.576l-1.8-1.037-169.921,98.1,1.844,1.01Z" transform="translate(-177.126 -80.801)" fill="url(#linear-gradient-2)"/>
    <path id="Path_553" data-name="Path 553" d="M367.32,85.249l-10.505-5.775-169.921,98.1,10.553,5.747Z" transform="translate(-185.836 -79.474)" fill="url(#linear-gradient-3)"/>
    <path id="Path_554" data-name="Path 554" d="M406.2,212.137l-1.844-1.01V246.8l1.844,1.065Z" transform="translate(-394.591 -108.286)" fill="url(#linear-gradient-4)"/>
    <path id="Path_555" data-name="Path 555" d="M415.97,210.61l-11.611-6.459v35.674l11.611,6.515Z" transform="translate(-404.358 -106.759)" fill="url(#linear-gradient-5)"/>
    <g id="Group_757" data-name="Group 757" transform="translate(29.951 34.422)">
      <path id="Path_556" data-name="Path 556" d="M206.7,129.255c0,2.09,1.274,3.068,2.846,2.182a6.7,6.7,0,0,0,2.846-5.389c0-2.09-1.274-3.067-2.846-2.181A6.7,6.7,0,0,0,206.7,129.255Z" transform="translate(-76.321 -123.54)" fill="#fff"/>
      <path id="Path_557" data-name="Path 557" d="M218.617,135.973c0,2.09,1.274,3.067,2.846,2.181a6.7,6.7,0,0,0,2.846-5.388c0-2.09-1.274-3.067-2.846-2.182A6.7,6.7,0,0,0,218.617,135.973Z" transform="translate(-97.556 -125.01)" fill="#fff"/>
      <path id="Path_558" data-name="Path 558" d="M230.538,142.69c0,2.09,1.274,3.068,2.846,2.182a6.7,6.7,0,0,0,2.846-5.388c0-2.09-1.274-3.068-2.846-2.182A6.7,6.7,0,0,0,230.538,142.69Z" transform="translate(-118.789 -126.48)" fill="#fff"/>
      <ellipse id="Ellipse_60" data-name="Ellipse 60" cx="2.482" cy="4.34" rx="2.482" ry="4.34" transform="translate(105.869 24.819) rotate(-156.977)" fill="#fff"/>
      <path id="Path_559" data-name="Path 559" d="M254.381,156.126c0,2.09,1.274,3.067,2.846,2.181a6.7,6.7,0,0,0,2.846-5.388c0-2.09-1.274-3.068-2.846-2.182A6.7,6.7,0,0,0,254.381,156.126Z" transform="translate(-161.257 -129.42)" fill="#fff"/>
      <path id="Path_560" data-name="Path 560" d="M266.3,162.843c0,2.091,1.274,3.068,2.846,2.182a6.7,6.7,0,0,0,2.846-5.388c0-2.09-1.274-3.068-2.846-2.182A6.7,6.7,0,0,0,266.3,162.843Z" transform="translate(-182.491 -130.89)" fill="#fff"/>
      <path id="Path_561" data-name="Path 561" d="M278.223,169.561c0,2.09,1.275,3.067,2.847,2.182a6.7,6.7,0,0,0,2.846-5.389c0-2.09-1.274-3.067-2.846-2.181A6.7,6.7,0,0,0,278.223,169.561Z" transform="translate(-203.724 -132.361)" fill="#fff"/>
      <path id="Path_562" data-name="Path 562" d="M290.145,176.279c0,2.09,1.274,3.067,2.846,2.181a6.7,6.7,0,0,0,2.846-5.388c0-2.09-1.274-3.068-2.846-2.182A6.7,6.7,0,0,0,290.145,176.279Z" transform="translate(-224.959 -133.831)" fill="#fff"/>
      <path id="Path_563" data-name="Path 563" d="M302.066,183c0,2.09,1.274,3.068,2.846,2.182a6.7,6.7,0,0,0,2.846-5.388c0-2.091-1.274-3.068-2.846-2.182A6.7,6.7,0,0,0,302.066,183Z" transform="translate(-246.192 -135.301)" fill="#fff"/>
      <path id="Path_564" data-name="Path 564" d="M313.987,189.714c0,2.09,1.274,3.067,2.846,2.182a6.7,6.7,0,0,0,2.846-5.389c0-2.09-1.274-3.067-2.846-2.181A6.7,6.7,0,0,0,313.987,189.714Z" transform="translate(-267.425 -136.771)" fill="#fff"/>
      <path id="Path_565" data-name="Path 565" d="M325.909,196.432c0,2.09,1.274,3.067,2.846,2.181a6.7,6.7,0,0,0,2.846-5.388c0-2.09-1.274-3.068-2.846-2.182A6.7,6.7,0,0,0,325.909,196.432Z" transform="translate(-288.66 -138.241)" fill="#fff"/>
      <path id="Path_566" data-name="Path 566" d="M337.83,203.149c0,2.09,1.274,3.068,2.846,2.182a6.7,6.7,0,0,0,2.846-5.388c0-2.091-1.274-3.068-2.846-2.182A6.7,6.7,0,0,0,337.83,203.149Z" transform="translate(-309.893 -139.711)" fill="#fff"/>
      <path id="Path_567" data-name="Path 567" d="M349.751,209.867c0,2.09,1.274,3.067,2.846,2.182a6.7,6.7,0,0,0,2.846-5.389c0-2.09-1.274-3.067-2.846-2.182A6.7,6.7,0,0,0,349.751,209.867Z" transform="translate(-331.126 -141.181)" fill="#fff"/>
      <path id="Path_568" data-name="Path 568" d="M361.673,216.584c0,2.091,1.274,3.068,2.846,2.182a6.7,6.7,0,0,0,2.846-5.388c0-2.09-1.274-3.068-2.846-2.182A6.7,6.7,0,0,0,361.673,216.584Z" transform="translate(-352.361 -142.652)" fill="#fff"/>
      <path id="Path_569" data-name="Path 569" d="M373.594,223.3c0,2.09,1.274,3.068,2.846,2.182a6.7,6.7,0,0,0,2.846-5.389c0-2.09-1.274-3.067-2.846-2.181A6.7,6.7,0,0,0,373.594,223.3Z" transform="translate(-373.594 -144.122)" fill="#fff"/>
    </g>
  </g>
  <path id="Path_570" data-name="Path 570" d="M258.79,249.443V228.726l48.243-27.853v20.7Z" transform="translate(-181.709 -89.205)" fill="#4ad0ee"/>
  <path id="Path_571" data-name="Path 571" d="M311.271,200.188l-4.225-2.448L258.79,225.6l4.239,2.44Z" transform="translate(-185.948 -88.519)" fill="#e6e6e6"/>
  <path id="Path_572" data-name="Path 572" d="M324.787,235.846l-4.239-2.44v20.7l4.239,2.456Z" transform="translate(-247.707 -96.325)" fill="#bfbfbf"/>
  <ellipse id="Ellipse_61" data-name="Ellipse 61" cx="60.167" cy="39.011" rx="60.167" ry="39.011" transform="translate(72.235 149.261)" fill="url(#radial-gradient)" style="mix-blend-mode: screen;isolation: isolate"/>
  <g id="Group_762" data-name="Group 762" transform="translate(91.103 66.634)">
    <path id="Path_581" data-name="Path 581" d="M232.547,188.389a40.58,40.58,0,0,1,1.2,4.966c.111,1.337-3.371,10.142-3.371,10.142l-1.658-12.3,2.14-3.093Z" transform="translate(-176.036 -153.044)" fill="#d9d9d9"/>
    <path id="Path_582" data-name="Path 582" d="M229.847,174.16c3.145-.549,5.324,1.041,5.489,4.318l.016,0,1.058,6.938s-1.515,1.637-2.993,1.347a3.28,3.28,0,0,1-2.923-3.128c-.071-1.883-.648-6.073-.648-6.073l.8.133C230.157,175.768,229.847,174.16,229.847,174.16Z" transform="translate(-179.583 -149.969)" fill="#0d142d"/>
    <path id="Path_583" data-name="Path 583" d="M261.438,299.868c-.047,1.323,1.261,5.5-2.509,5.427-2.92.349-8.99-4.474-10.72-5.473s1.194-3.724,8.468-1.95C257.908,298.447,261.438,299.868,261.438,299.868Z" transform="translate(-218.757 -176.938)" fill="url(#linear-gradient-6)"/>
    <path id="Path_584" data-name="Path 584" d="M245.677,290.175c-.046,1.324,1.262,5.5-2.508,5.427-2.92.348-8.99-4.474-10.721-5.474s1.194-3.724,8.468-1.949C242.148,288.754,245.677,290.175,245.677,290.175Z" transform="translate(-190.685 -174.817)" fill="url(#linear-gradient-7)"/>
    <path id="Path_585" data-name="Path 585" d="M269.214,175.3l16.655,16.662,2.462-2.626s7.449,1.306,4.864,4.261-5.13,4.2-8.126,4.48c-2.5.231-18.96-19.976-18.96-19.976a9.471,9.471,0,0,1-3.981-6.618c.26-1.231,1.918-3.807,3.745-4.093,1.273-.031,2.247,2.964,2.576,4.012.312,1,.78.235,1.518-.5s1.568-.236.3,1.888C269.8,173.568,270.213,174.656,269.214,175.3Z" transform="translate(-262.128 -148.511)" fill="#cfcfcf"/>
    <path id="Path_586" data-name="Path 586" d="M248.906,222.141l-4.473-.492-.43,2.178-5.139,1.016-8.878,1.773.781,30.286,1.425,27.951a4.539,4.539,0,0,0,5.531,0s3.743-21.386,1.14-29.017c.951-3.075.812-7.876,2.462-10.906l.227,11.46,2.88,22.687c5.575,1.38,5.534-1.972,5.534-1.972a102.5,102.5,0,0,0-.627-23.393C249.216,246.6,254.706,227,248.906,222.141Z" transform="translate(-194.851 -160.385)" fill="url(#linear-gradient-8)"/>
    <path id="Path_587" data-name="Path 587" d="M238.2,176.468c1.381,1.246,6.876.265,6.779-1.774,1.258-.492,2.154-.923,3.454-.588,3.081.8,2.588,5.62,2.877,8.118.452,3.911-.426,12.347-.409,20.969.009,4.3,2.984,8.918,3.1,12.01,0,2.889-7.233,6.5-13.037,7.564-4.012.738-10.31-.729-10.283-2.011s-.3-21.322-1.254-24.878-1.046-12.554.434-14.36C231.728,179.228,238.2,176.468,238.2,176.468Z" transform="translate(-196.282 -149.954)" fill="#0d142d"/>
    <g id="Group_761" data-name="Group 761" transform="translate(35.293)">
      <path id="Path_588" data-name="Path 588" d="M235.6,154.8c-.976,2.148-.02,3.278-.1,4.86,0,1.4-1.05,7.244,1.707,7.865a9.114,9.114,0,0,0,3.248.213l1.416,4.021c.78,1.528,7.24.862,6.723-2.357l-.314-2.823c1.469-.677,4.181-3.107,4.181-7.909s-5.119-8.5-9.735-8.5S235.87,154.206,235.6,154.8Z" transform="translate(-235.076 -144.742)" fill="#d9d9d9"/>
      <path id="Path_589" data-name="Path 589" d="M237.958,159.364c.755-.446,2.572,1.8.233,3.832a2.9,2.9,0,0,0,.862,2.062c.584.647-.493.708,1.077,1.508s4.327.24,4.858.456c-.012-.548.933-.258,1.731-1.834,1.075-1.423,2.582-1.433,3.844-4.336a7.675,7.675,0,0,0,.883-3.3,3.963,3.963,0,0,1,.38,2.114s1.594-4.676-2.188-7.658a3.788,3.788,0,0,1,2.311,1.112,5.762,5.762,0,0,0-3.925-2.527c-1.492-.674-1.2-1.808-4.324-2.29s-2.957-2.618-2.462-3.486c0,0-1.883,1.479-1.741,2.721a4.3,4.3,0,0,1,.51-4.514s-2.878,1.313-2.747,5.427a6.3,6.3,0,0,1-.239-3.2c-.708.233-4.656,5.361-3.365,8.537s4.149,3.044,4.073,4.1S237.958,159.364,237.958,159.364Z" transform="translate(-233.398 -143.221)" fill="url(#linear-gradient-9)"/>
    </g>
    <path id="Path_590" data-name="Path 590" d="M262.327,181.411c-3.771,1.13-6.273,5.222-9.788,10.588.062,1.169,2.4,5.175,5.11,6.251a66.733,66.733,0,0,0,6.12-7.112C266.3,187.175,266.846,180.057,262.327,181.411Z" transform="translate(-226.602 -151.542)" fill="#0d142d"/>
  </g>
</svg>
