<svg xmlns="http://www.w3.org/2000/svg" xmlns:xlink="http://www.w3.org/1999/xlink" width="241.118" height="259.28" viewBox="0 0 241.118 259.28">
  <defs>
    <filter id="Path_470" x="0" y="18.162" width="241.118" height="241.118" filterUnits="userSpaceOnUse">
      <feOffset dy="3" input="SourceAlpha"/>
      <feGaussianBlur stdDeviation="3" result="blur"/>
      <feFlood flood-color="#0d142d" flood-opacity="0.161"/>
      <feComposite operator="in" in2="blur"/>
      <feComposite in="SourceGraphic"/>
    </filter>
    <linearGradient id="linear-gradient" x1="-15.506" y1="-17.563" x2="17.351" y2="19.516" gradientUnits="objectBoundingBox">
      <stop offset="0" stop-color="#271c8e"/>
      <stop offset="1" stop-color="#6950ff"/>
    </linearGradient>
    <linearGradient id="linear-gradient-2" x1="-0.142" y1="-0.224" x2="0.518" y2="0.52" gradientUnits="objectBoundingBox">
      <stop offset="0" stop-color="#4ad0ee"/>
      <stop offset="1" stop-color="#04103a"/>
    </linearGradient>
    <linearGradient id="linear-gradient-3" y1="0.5" x2="1" y2="0.5" gradientUnits="objectBoundingBox">
      <stop offset="0" stop-color="#6190d6"/>
      <stop offset="1" stop-color="#97b5f2"/>
    </linearGradient>
    <linearGradient id="linear-gradient-4" x1="-0.883" y1="56.322" x2="-0.883" y2="55.425" gradientUnits="objectBoundingBox">
      <stop offset="0" stop-color="#ff817b"/>
      <stop offset="0.126" stop-color="#ff8c84"/>
      <stop offset="0.469" stop-color="#ffa899"/>
      <stop offset="0.772" stop-color="#ffb9a6"/>
      <stop offset="1" stop-color="#ffbfab"/>
    </linearGradient>
    <linearGradient id="linear-gradient-5" x1="0.5" y1="0.404" x2="0.5" y2="0.846" gradientUnits="objectBoundingBox">
      <stop offset="0" stop-color="#ff817b"/>
      <stop offset="1" stop-color="#ffbfab"/>
    </linearGradient>
    <linearGradient id="linear-gradient-6" x1="0.5" y1="0.14" x2="0.5" y2="0.782" xlink:href="#linear-gradient-5"/>
    <linearGradient id="linear-gradient-7" x1="1.02" y1="0.491" x2="-0.067" y2="0.53" xlink:href="#linear-gradient-4"/>
  </defs>
  <g id="Group_1074" data-name="Group 1074" transform="translate(-841 -522.01)">
    <g transform="matrix(1, 0, 0, 1, 841, 522.01)" filter="url(#Path_470)">
      <g id="Path_470-2" data-name="Path 470" transform="translate(9 24.16)" fill="#0d142d">
        <path d="M 111.5588836669922 222.6177673339844 C 104.0233535766602 222.6177673339844 96.49271392822266 221.8586273193359 89.17613220214844 220.3614349365234 C 82.04574584960938 218.9023590087891 75.03205108642578 216.7251892089844 68.32991027832031 213.8904113769531 C 61.74932861328125 211.1070709228516 55.40230178833008 207.6620178222656 49.46516036987305 203.6509704589844 C 43.58430099487305 199.6779174804688 38.05416107177734 195.1151275634766 33.02841186523438 190.0893859863281 C 28.00263404846191 185.0635986328125 23.43985557556152 179.5334930419922 19.46682739257813 173.6526031494141 C 15.45577239990234 167.7154693603516 12.01071739196777 161.3684387207031 9.22735595703125 154.7878570556641 C 6.392578125 148.0857238769531 4.21541166305542 141.0720520019531 2.756328105926514 133.9416656494141 C 1.259133696556091 126.6250762939453 0.4999947845935822 119.0944137573242 0.4999947845935822 111.5588836669922 C 0.4999947845935822 104.0233535766602 1.259133696556091 96.49271392822266 2.756328105926514 89.17613220214844 C 4.21541166305542 82.04574584960938 6.392578125 75.03205108642578 9.22735595703125 68.32991027832031 C 12.01071739196777 61.74932861328125 15.45577239990234 55.40230178833008 19.46682739257813 49.46516036987305 C 23.43985557556152 43.58430099487305 28.00263404846191 38.05416107177734 33.02841186523438 33.02841186523438 C 38.05416107177734 28.00263404846191 43.58430099487305 23.43985557556152 49.46516036987305 19.46682739257813 C 55.40230178833008 15.45577239990234 61.74932861328125 12.01071739196777 68.32991027832031 9.22735595703125 C 75.03205108642578 6.392578125 82.04574584960938 4.21541166305542 89.17613220214844 2.756328105926514 C 96.49271392822266 1.259133696556091 104.0233535766602 0.4999947845935822 111.5588836669922 0.4999947845935822 C 119.0944137573242 0.4999947845935822 126.6250762939453 1.259133696556091 133.9416656494141 2.756328105926514 C 141.0720520019531 4.21541166305542 148.0857238769531 6.392578125 154.7878570556641 9.22735595703125 C 161.3684387207031 12.01071739196777 167.7154693603516 15.45577239990234 173.6526031494141 19.46682739257813 C 179.5334930419922 23.43985557556152 185.0635986328125 28.00263404846191 190.0893859863281 33.02841186523438 C 195.1151275634766 38.05416107177734 199.6779174804688 43.58430099487305 203.6509704589844 49.46516036987305 C 207.6620178222656 55.40230178833008 211.1070709228516 61.74932861328125 213.8904113769531 68.32991027832031 C 216.7251892089844 75.03205108642578 218.9023590087891 82.04574584960938 220.3614349365234 89.17613220214844 C 221.8586273193359 96.49271392822266 222.6177673339844 104.0233535766602 222.6177673339844 111.5588836669922 C 222.6177673339844 119.0944137573242 221.8586273193359 126.6250762939453 220.3614349365234 133.9416656494141 C 218.9023590087891 141.0720520019531 216.7251892089844 148.0857238769531 213.8904113769531 154.7878570556641 C 211.1070709228516 161.3684387207031 207.6620178222656 167.7154693603516 203.6509704589844 173.6526031494141 C 199.6779174804688 179.5334930419922 195.1151275634766 185.0635986328125 190.0893859863281 190.0893859863281 C 185.0635986328125 195.1151275634766 179.5334930419922 199.6779174804688 173.6526031494141 203.6509704589844 C 167.7154693603516 207.6620178222656 161.3684387207031 211.1070709228516 154.7878570556641 213.8904113769531 C 148.0857238769531 216.7251892089844 141.0720520019531 218.9023590087891 133.9416656494141 220.3614349365234 C 126.6250762939453 221.8586273193359 119.0944137573242 222.6177673339844 111.5588836669922 222.6177673339844 Z" stroke="none"/>
        <path d="M 111.5588836669922 1 C 104.0569458007813 1 96.56002807617188 1.7557373046875 89.27635192871094 3.246185302734375 C 82.17829895019531 4.698654174804688 75.19644165039063 6.865936279296875 68.52467346191406 9.687850952148438 C 61.97383117675781 12.4586181640625 55.65544128417969 15.88815307617188 49.74505615234375 19.88111877441406 C 43.89056396484375 23.83634948730469 38.38520812988281 28.37867736816406 33.38194274902344 33.38194274902344 C 28.37867736816406 38.38520812988281 23.83634948730469 43.89056396484375 19.88111877441406 49.74505615234375 C 15.88815307617188 55.65544128417969 12.4586181640625 61.97383117675781 9.687850952148438 68.52467346191406 C 6.865936279296875 75.19644165039063 4.698654174804688 82.17829895019531 3.246185302734375 89.27635192871094 C 1.7557373046875 96.56002807617188 1 104.0569458007813 1 111.5588836669922 C 1 119.0608215332031 1.7557373046875 126.5577392578125 3.246185302734375 133.8414154052734 C 4.698654174804688 140.9394683837891 6.865936279296875 147.9213256835938 9.687850952148438 154.5930786132813 C 12.4586181640625 161.1439514160156 15.88815307617188 167.4623260498047 19.88111877441406 173.3727111816406 C 23.83634948730469 179.2272033691406 28.37867736816406 184.7325592041016 33.38194274902344 189.7358245849609 C 38.38520812988281 194.7390899658203 43.89056396484375 199.2814178466797 49.74505615234375 203.2366485595703 C 55.65544128417969 207.2296142578125 61.97383117675781 210.6591491699219 68.52467346191406 213.4299163818359 C 75.19644165039063 216.2518310546875 82.17829895019531 218.4191131591797 89.27635192871094 219.87158203125 C 96.56002807617188 221.3620300292969 104.0569458007813 222.1177673339844 111.5588836669922 222.1177673339844 C 119.0608215332031 222.1177673339844 126.5577392578125 221.3620300292969 133.8414154052734 219.87158203125 C 140.9394683837891 218.4191131591797 147.9213256835938 216.2518310546875 154.5930786132813 213.4299163818359 C 161.1439514160156 210.6591491699219 167.4623260498047 207.2296142578125 173.3727111816406 203.2366485595703 C 179.2272033691406 199.2814178466797 184.7325592041016 194.7390899658203 189.7358245849609 189.7358245849609 C 194.7390899658203 184.7325592041016 199.2814178466797 179.2272033691406 203.2366485595703 173.3727111816406 C 207.2296142578125 167.4623260498047 210.6591491699219 161.1439514160156 213.4299163818359 154.5930786132813 C 216.2518310546875 147.9213256835938 218.4191131591797 140.9394683837891 219.87158203125 133.8414154052734 C 221.3620300292969 126.5577392578125 222.1177673339844 119.0608215332031 222.1177673339844 111.5588836669922 C 222.1177673339844 104.0569458007813 221.3620300292969 96.56002807617188 219.87158203125 89.27635192871094 C 218.4191131591797 82.17829895019531 216.2518310546875 75.19644165039063 213.4299163818359 68.52467346191406 C 210.6591491699219 61.97383117675781 207.2296142578125 55.65544128417969 203.2366485595703 49.74505615234375 C 199.2814178466797 43.89056396484375 194.7390899658203 38.38520812988281 189.7358245849609 33.38194274902344 C 184.7325592041016 28.37867736816406 179.2272033691406 23.83634948730469 173.3727111816406 19.88111877441406 C 167.4623260498047 15.88815307617188 161.1439514160156 12.4586181640625 154.5930786132813 9.687850952148438 C 147.9213256835938 6.865936279296875 140.9394683837891 4.698654174804688 133.8414154052734 3.246185302734375 C 126.5577392578125 1.7557373046875 119.0608215332031 1 111.5588836669922 1 M 111.5588836669922 0 C 173.171142578125 0 223.1177673339844 49.94662475585938 223.1177673339844 111.5588836669922 C 223.1177673339844 173.171142578125 173.171142578125 223.1177673339844 111.5588836669922 223.1177673339844 C 49.94662475585938 223.1177673339844 0 173.171142578125 0 111.5588836669922 C 0 49.94662475585938 49.94662475585938 0 111.5588836669922 0 Z" stroke="none" fill="#707070"/>
      </g>
    </g>
    <g id="Group_700" data-name="Group 700" transform="translate(874.01 522.01)">
      <g id="Group_603" data-name="Group 603" transform="translate(97.723 16.844)" opacity="0.29">
        <g id="Group_591" data-name="Group 591" transform="translate(5.047 23.635)">
          <path id="Path_330" data-name="Path 330" d="M215.315,188.149l0,1.275-18.122-10.463,0-1.275Z" transform="translate(-197.189 -177.686)" fill="#b6c7e0"/>
        </g>
        <g id="Group_592" data-name="Group 592" transform="translate(30.775 38.489)">
          <path id="Path_331" data-name="Path 331" d="M235.886,200.026l0,1.275-1.658-.958,0-1.275Z" transform="translate(-234.224 -199.068)" fill="#b6c7e0"/>
        </g>
        <g id="Group_597" data-name="Group 597" transform="translate(5.057 16.801)" style="isolation: isolate">
          <g id="Group_593" data-name="Group 593" transform="translate(19.171 17.908)">
            <path id="Path_332" data-name="Path 332" d="M229.713,196.462l0,1.275L224.8,194.9l0-1.275Z" transform="translate(-224.799 -193.627)" fill="#b6c7e0"/>
          </g>
          <g id="Group_594" data-name="Group 594" transform="translate(0 3.419)">
            <path id="Path_333" data-name="Path 333" d="M233.576,193.769l0,1.27-36.37-21,0-1.27Z" transform="translate(-197.203 -172.771)" fill="#b6c7e0"/>
          </g>
          <g id="Group_595" data-name="Group 595" transform="translate(0.01)">
            <path id="Path_334" data-name="Path 334" d="M233.59,188.847l0,1.275-36.37-21,0-1.275Z" transform="translate(-197.217 -167.848)" fill="#b6c7e0"/>
          </g>
          <g id="Group_596" data-name="Group 596" transform="translate(14.22 4.784)">
            <path id="Path_335" data-name="Path 335" d="M239.845,187.535l0,1.27-22.169-12.8,0-1.271Z" transform="translate(-217.673 -174.736)" fill="#b6c7e0"/>
          </g>
        </g>
        <g id="Group_598" data-name="Group 598" transform="translate(26.276 18.781)">
          <path id="Path_336" data-name="Path 336" d="M233.573,174.06l0,1.271-5.822-3.361,0-1.27Z" transform="translate(-227.747 -170.699)" fill="#b6c7e0"/>
        </g>
        <g id="Group_599" data-name="Group 599" transform="translate(5.076 13.387)">
          <path id="Path_337" data-name="Path 337" d="M209.573,170.057l0,1.27L197.231,164.2l0-1.271Z" transform="translate(-197.231 -162.933)" fill="#b6c7e0"/>
        </g>
        <g id="Group_600" data-name="Group 600" transform="translate(5.086 9.967)">
          <path id="Path_338" data-name="Path 338" d="M233.618,179.009l0,1.275-36.37-21,0-1.275Z" transform="translate(-197.244 -158.011)" fill="#b6c7e0"/>
        </g>
        <g id="Group_601" data-name="Group 601" transform="translate(5.096 6.553)">
          <path id="Path_339" data-name="Path 339" d="M216.883,164.424l0,1.271-19.621-11.328,0-1.27Z" transform="translate(-197.259 -153.096)" fill="#b6c7e0"/>
        </g>
        <g id="Group_602" data-name="Group 602" transform="translate(0 0)">
          <path id="Path_340" data-name="Path 340" d="M234.976,168.988a3.22,3.22,0,0,1,1.46,2.533l-.067,23.558c0,.928-.661,1.3-1.469.837l-43.518-25.125a3.22,3.22,0,0,1-1.459-2.528l.067-23.558c0-.933.661-1.309,1.469-.842Zm-3.617,13.749,0-1.275-36.369-21,0,1.275,36.369,21m.019-6.834,0-1.275-36.369-21,0,1.275,36.37,21m-.029,10.249,0-1.271-36.369-21,0,1.271,36.369,21m.019-6.834,0-1.271-22.169-12.8,0,1.27,22.169,12.8m-36.346-29.1,0,1.271,19.621,11.328,0-1.271-19.621-11.328m18.07,28.82,0-1.275L194.974,167.3l0,1.275,18.122,10.463M195,157.05l0,1.271,12.339,7.124,0-1.27L195,157.05m21.2,5.395,0,1.271,5.822,3.361,0-1.27-5.821-3.362m2.859,20.038,0-1.275-4.911-2.835,0,1.275,4.911,2.835m3.3,1.9,0-1.275-1.659-.958,0,1.275,1.659.958" transform="translate(-189.923 -143.663)" fill="#e1edff"/>
        </g>
      </g>
      <g id="Group_607" data-name="Group 607" transform="translate(0 119.938)">
        <g id="Group_604" data-name="Group 604">
          <path id="Path_341" data-name="Path 341" d="M98.071,293.251a10.861,10.861,0,0,1,9.853,0l91.31,53.017c2.712,1.576,2.693,4.131-.035,5.707l-46.761,27a10.855,10.855,0,0,1-9.853,0l-91.31-53.017c-2.711-1.576-2.7-4.129.035-5.707Zm-22.353,14.1a.634.634,0,0,0-.007,1.2,2.289,2.289,0,0,0,2.076,0,.637.637,0,0,0,.006-1.2,2.286,2.286,0,0,0-2.075,0" transform="translate(-49.251 -292.068)" fill="#f5f9ff"/>
        </g>
        <g id="Group_605" data-name="Group 605" transform="translate(26.034 15.031)">
          <path id="Path_342" data-name="Path 342" d="M87.16,313.955a.633.633,0,0,0-.007,1.2,2.289,2.289,0,0,0,2.076,0,.637.637,0,0,0,.006-1.2A2.286,2.286,0,0,0,87.16,313.955Z" transform="translate(-86.726 -313.705)" fill="url(#linear-gradient)"/>
        </g>
        <g id="Group_606" data-name="Group 606" transform="translate(2.927 1.697)">
          <path id="Path_343" data-name="Path 343" d="M54.658,322.193c-1.583.914-1.592,2.4-.022,3.312l91.31,53.017a6.312,6.312,0,0,0,5.718,0l46.761-27c1.58-.912,1.588-2.4.019-3.309L107.132,295.2a6.308,6.308,0,0,0-5.714,0L80.358,307.354c1.275.741,1.271,1.943-.011,2.684a5.107,5.107,0,0,1-4.632,0Z" transform="translate(-53.464 -294.511)" fill="url(#linear-gradient-2)"/>
        </g>
        <path id="Path_344" data-name="Path 344" d="M51.275,339.605l91.31,53.017a10.853,10.853,0,0,0,9.853,0l46.761-27a3.49,3.49,0,0,0,2.058-2.875l.013,4.859a3.488,3.488,0,0,1-2.058,2.876l-46.761,27a10.851,10.851,0,0,1-9.853,0L51.288,344.466a3.458,3.458,0,0,1-2.024-2.832l-.013-4.859A3.456,3.456,0,0,0,51.275,339.605Z" transform="translate(-49.251 -305.718)" fill="url(#linear-gradient-3)"/>
      </g>
      <g id="Group_614" data-name="Group 614" transform="translate(46.107 0)">
        <path id="Path_345" data-name="Path 345" d="M145.23,356.869s6.6,8,8.545,10.662c1.855,2.543-1.334,3.983-3.642,3.451-1.862-.43-9.978-4.991-13.038-6.734a2.3,2.3,0,0,1-1.162-2.022l.029-3.321Z" transform="translate(-121.823 -191.915)" fill="#4ad0ee"/>
        <path id="Path_346" data-name="Path 346" d="M183.323,347.966s7.371,6.7,9.3,9.366c1.849,2.548-1.346,3.979-3.651,3.44-1.859-.435-10.349-4.65-13.571-6.269a2.3,2.3,0,0,1-1.269-2.019l-.065-3.837Z" transform="translate(-133.467 -189.197)" fill="#4ad0ee"/>
        <path id="Path_347" data-name="Path 347" d="M169.526,221.864s5.286,40.706,5.77,50.235c.315,6.212-4.24,37.389-4.24,37.389-.158,5.414-9.309,2.47-9.309,2.47s-2.377-29.332-2.949-36.871l-3.832-27.223s-1.255,27.781-1.2,29.6c.073,2.513-8.868,39.334-8.868,39.334-.693,5.034-9.632,1.6-9.632,1.6l.941-41.64s-2.449-26.247-2.452-31.527c0-5.882-.106-13.987-.106-13.987Z" transform="translate(-121.125 -150.696)" fill="#273255"/>
        <path id="Path_348" data-name="Path 348" d="M142.013,244.537l-5.739,2.91h0a26.518,26.518,0,0,0,2.816,7.733c1.657,2.882,4.272,3.333,5.48,2.779.782-.358,1.874-1.432,1.312-5.244a19.025,19.025,0,0,0-.807-3.011s2.387,1.384,3.091.47C149.094,248.968,144.847,245.561,142.013,244.537Z" transform="translate(-121.927 -157.618)" fill="url(#linear-gradient-4)"/>
        <path id="Path_349" data-name="Path 349" d="M183.457,192.153l-19.437-3.036,0,10.92a5.09,5.09,0,0,1-1.319,3.436c-3.3,3.618-11.418,10.629-28.561,11.027a12.98,12.98,0,0,1-6.765-1.986l3.712-17.866,6.5,21.819c-1.234,4.551-8.055,3.357-8.055,3.357L116.919,199.99a8.881,8.881,0,0,1-.959-7.047l5.828-20.536a17.583,17.583,0,0,1,10.481-11.02l21-8.053c.265-.1.534-.191.8-.271a9.77,9.77,0,0,1,12.181,7.883l2.725,15.685,16.656,9.171S187.3,190.2,183.457,192.153Z" transform="translate(-115.622 -129.574)" fill="#4ad0ee"/>
        <g id="Group_609" data-name="Group 609" transform="translate(18.403)">
          <path id="Path_350" data-name="Path 350" d="M155.561,161.57h0a5.209,5.209,0,0,1-5.209-5.209V144.446a.622.622,0,0,1,.622-.622h9.174a.621.621,0,0,1,.621.622v11.915A5.208,5.208,0,0,1,155.561,161.57Z" transform="translate(-144.629 -126.869)" fill="url(#linear-gradient-5)"/>
          <g id="Group_608" data-name="Group 608">
            <path id="Path_351" data-name="Path 351" d="M162.561,132.4a15.918,15.918,0,0,0,1.2-11.567c-1.11-3.824-6.34,1.177-6.814,2.447,0,0,.706-4.861-2.619-2.534-5.148,3.6-13.728,1.984-11.978,11.935.7,3.987,2.531,9.516,11.855,7.912,0,0,7.546-5.561,8.361-8.194" transform="translate(-142.114 -119.417)" fill="#0a2042"/>
            <path id="Path_352" data-name="Path 352" d="M152.1,139.584c-.928-.491-2.067.311-2.558,1.239h0a.739.739,0,0,1-1.392-.346v-2.013h0c-.161-.066-.248-.106-.248-.106h0c-.814-.392-2.188-.41-2.112,1.1a5.138,5.138,0,0,0,2.112,3.564v2.146a5.405,5.405,0,0,0,3.727,5.138l5.744,1.876a4.924,4.924,0,0,0,2.56.173,4.726,4.726,0,0,0,3.749-4.622V138.1C161.7,140.459,158.354,142.893,152.1,139.584Z" transform="translate(-143.236 -125.122)" fill="url(#linear-gradient-6)"/>
          </g>
        </g>
        <path id="Path_353" data-name="Path 353" d="M143.452,227.219l-7.178-18.992,3.589-13.418" transform="translate(-121.927 -142.435)" fill="none" stroke="#112d93" stroke-miterlimit="10" stroke-width="0.75"/>
        <g id="Group_613" data-name="Group 613" transform="translate(61.458 47.142)">
          <g id="Group_612" data-name="Group 612">
            <g id="Group_610" data-name="Group 610">
              <path id="Path_354" data-name="Path 354" d="M205.027,205.243l-.463-.4a1.356,1.356,0,0,1-.378-1.528l5.427-13.683a1.3,1.3,0,0,1,.932-.793l7.243-1.535a1.355,1.355,0,0,1,1.019.19l.855.555-6.192,14C213.31,202.449,205.45,205.151,205.027,205.243Z" transform="translate(-204.091 -187.278)" fill="#bfcfe2"/>
            </g>
            <g id="Group_611" data-name="Group 611" transform="translate(0.709 0.661)">
              <path id="Path_355" data-name="Path 355" d="M213.668,203.949l-7.816,1.707a.609.609,0,0,1-.7-.82l5.589-14.092a1.3,1.3,0,0,1,.932-.793l7.817-1.708a.61.61,0,0,1,.7.82L214.6,203.157A1.3,1.3,0,0,1,213.668,203.949Z" transform="translate(-205.112 -188.23)" fill="#fff"/>
            </g>
          </g>
          <path id="Path_356" data-name="Path 356" d="M219.377,198.818s-7.732-.276-8.41,3.233c-.581,3.008,4.449,4.181,5.5,4.109S220.391,201.265,219.377,198.818Z" transform="translate(-206.176 -190.8)" fill="url(#linear-gradient-7)"/>
        </g>
        <line id="Line_7" data-name="Line 7" y1="17.976" transform="translate(48.398 41.568)" fill="none" stroke="#112d93" stroke-miterlimit="10" stroke-width="0.75"/>
      </g>
      <g id="Group_624" data-name="Group 624" transform="translate(1.417 67.198)" opacity="0.78">
        <g id="Group_623" data-name="Group 623" transform="translate(0 0)" style="isolation: isolate">
          <g id="Group_615" data-name="Group 615" transform="translate(5.025 6.958)">
            <path id="Path_357" data-name="Path 357" d="M67.934,231.036a2.743,2.743,0,0,1,1.244,2.155l-.017,6.164c0,.789-.561,1.107-1.253.709l-8.141-4.7a2.734,2.734,0,0,1-1.244-2.15l.017-6.164c0-.789.561-1.112,1.253-.713Z" transform="translate(-58.523 -226.165)" fill="#b6c7e0"/>
          </g>
          <g id="Group_616" data-name="Group 616" transform="translate(4.753 19.01)">
            <path id="Path_358" data-name="Path 358" d="M80,255.472a3.273,3.273,0,0,1,1.481,2.57l-.017,5.811c0,.943-.67,1.323-1.491.85L59.613,252.948a3.264,3.264,0,0,1-1.481-2.565l.017-5.812c0-.943.67-1.328,1.49-.854Zm.985,8.1L81,257.765a2.216,2.216,0,0,0-1-1.737l-20.36-11.754c-.557-.322-1.007-.065-1.009.575l-.017,5.811a2.214,2.214,0,0,0,1,1.737l20.36,11.755c.552.32,1.007.06,1.009-.575" transform="translate(-58.132 -243.514)" fill="#b6c7e0"/>
          </g>
          <g id="Group_617" data-name="Group 617" transform="translate(5.232 19.63)">
            <path id="Path_359" data-name="Path 359" d="M80.208,256.3a2.216,2.216,0,0,1,1,1.737l-.017,5.812c0,.635-.457.895-1.009.575L59.825,252.67a2.214,2.214,0,0,1-1-1.737l.017-5.811c0-.64.452-.9,1.009-.575Z" transform="translate(-58.822 -244.407)" fill="#e1edff"/>
          </g>
          <g id="Group_618" data-name="Group 618" transform="translate(31.737 36.212)">
            <path id="Path_360" data-name="Path 360" d="M100.425,268.748a7.544,7.544,0,0,1,3.422,5.928c-.006,2.178-1.548,3.058-3.444,1.963a7.543,7.543,0,0,1-3.427-5.931C96.982,268.53,98.524,267.652,100.425,268.748Z" transform="translate(-96.976 -268.276)" fill="#b6c7e0"/>
          </g>
          <g id="Group_619" data-name="Group 619" transform="translate(17.662 21.463)">
            <path id="Path_361" data-name="Path 361" d="M97.687,259.152l0,1.271L76.715,248.316l0-1.27Z" transform="translate(-76.715 -247.046)" fill="#b6c7e0"/>
          </g>
          <g id="Group_620" data-name="Group 620" transform="translate(17.684 13.707)">
            <path id="Path_362" data-name="Path 362" d="M97.718,247.986l0,1.275L76.746,237.155l0-1.275Z" transform="translate(-76.746 -235.88)" fill="#b6c7e0"/>
          </g>
          <g id="Group_621" data-name="Group 621">
            <path id="Path_363" data-name="Path 363" d="M93.469,239.811a3.22,3.22,0,0,1,1.464,2.53l-.074,26.035c0,.928-.661,1.3-1.473.835L52.753,245.751a3.221,3.221,0,0,1-1.463-2.53l.074-26.035c0-.927.661-1.3,1.473-.834ZM79.374,255.5l.017-5.811a3.273,3.273,0,0,0-1.481-2.57L57.55,235.362c-.82-.474-1.487-.088-1.49.854l-.017,5.812a3.264,3.264,0,0,0,1.481,2.565l20.359,11.755c.821.474,1.488.094,1.491-.85M56.332,223.991l-.017,6.164a2.734,2.734,0,0,0,1.244,2.15l8.141,4.7c.691.4,1.25.081,1.253-.709l.017-6.164a2.743,2.743,0,0,0-1.244-2.155l-8.141-4.7c-.691-.4-1.25-.076-1.253.713m30.122,36.733c1.9,1.095,3.438.215,3.444-1.963a7.544,7.544,0,0,0-3.422-5.928c-1.9-1.1-3.443-.218-3.449,1.96a7.543,7.543,0,0,0,3.427,5.93m3.489-17.486,0-1.275L68.978,229.856l0,1.275,20.969,12.106m-.022,7.752,0-1.271L68.956,237.613l0,1.271,20.968,12.106m.011-3.876,0-1.27L68.967,233.737l0,1.27,20.968,12.106" transform="translate(-51.29 -216.149)" fill="#e1edff"/>
          </g>
          <g id="Group_622" data-name="Group 622" transform="translate(17.673 17.588)">
            <path id="Path_364" data-name="Path 364" d="M97.7,253.573l0,1.27L76.731,242.737l0-1.27Z" transform="translate(-76.731 -241.467)" fill="#b6c7e0"/>
          </g>
        </g>
      </g>
      <g id="Group_637" data-name="Group 637" transform="translate(8.33 114.812)" opacity="0.87">
        <g id="Group_625" data-name="Group 625" transform="translate(5.048 23.635)">
          <path id="Path_365" data-name="Path 365" d="M86.633,329.174l0,1.275L68.507,319.987l0-1.275Z" transform="translate(-68.507 -318.711)" fill="#b6c7e0"/>
        </g>
        <g id="Group_626" data-name="Group 626" transform="translate(30.776 38.489)">
          <path id="Path_366" data-name="Path 366" d="M107.205,341.051l0,1.275-1.658-.958,0-1.275Z" transform="translate(-105.543 -340.094)" fill="#b6c7e0"/>
        </g>
        <g id="Group_631" data-name="Group 631" transform="translate(5.058 16.801)" style="isolation: isolate">
          <g id="Group_627" data-name="Group 627" transform="translate(19.171 17.908)">
            <path id="Path_367" data-name="Path 367" d="M101.032,337.487l0,1.275-4.911-2.835,0-1.275Z" transform="translate(-96.118 -334.652)" fill="#b6c7e0"/>
          </g>
          <g id="Group_628" data-name="Group 628" transform="translate(0 3.419)">
            <path id="Path_368" data-name="Path 368" d="M104.895,334.794l0,1.271-36.37-21,0-1.271Z" transform="translate(-68.521 -313.796)" fill="#b6c7e0"/>
          </g>
          <g id="Group_629" data-name="Group 629" transform="translate(0.01)">
            <path id="Path_369" data-name="Path 369" d="M104.909,329.872l0,1.275-36.37-21,0-1.275Z" transform="translate(-68.535 -308.874)" fill="#b6c7e0"/>
          </g>
          <g id="Group_630" data-name="Group 630" transform="translate(14.22 4.784)">
            <path id="Path_370" data-name="Path 370" d="M111.164,328.561l0,1.27-22.169-12.8,0-1.271Z" transform="translate(-88.991 -315.761)" fill="#b6c7e0"/>
          </g>
        </g>
        <g id="Group_632" data-name="Group 632" transform="translate(26.276 18.781)">
          <path id="Path_371" data-name="Path 371" d="M104.892,315.086l0,1.271-5.822-3.361,0-1.271Z" transform="translate(-99.066 -311.724)" fill="#b6c7e0"/>
        </g>
        <g id="Group_633" data-name="Group 633" transform="translate(5.077 13.387)">
          <path id="Path_372" data-name="Path 372" d="M80.892,311.083l0,1.27L68.549,305.23l0-1.271Z" transform="translate(-68.549 -303.959)" fill="#b6c7e0"/>
        </g>
        <g id="Group_634" data-name="Group 634" transform="translate(5.087 9.967)">
          <path id="Path_373" data-name="Path 373" d="M104.937,320.035l0,1.275-36.37-21,0-1.275Z" transform="translate(-68.563 -299.037)" fill="#b6c7e0"/>
        </g>
        <g id="Group_635" data-name="Group 635" transform="translate(5.096 6.553)">
          <path id="Path_374" data-name="Path 374" d="M88.2,305.45l0,1.27L68.577,295.392l0-1.27Z" transform="translate(-68.577 -294.122)" fill="#b6c7e0"/>
        </g>
        <g id="Group_636" data-name="Group 636" transform="translate(0 0)">
          <path id="Path_375" data-name="Path 375" d="M106.295,310.014a3.22,3.22,0,0,1,1.46,2.533l-.067,23.558c0,.928-.661,1.3-1.469.837L62.7,311.817a3.221,3.221,0,0,1-1.46-2.527l.067-23.559c0-.933.661-1.308,1.469-.842Zm-3.617,13.749,0-1.275-36.369-21,0,1.275,36.37,21m.019-6.834,0-1.275-36.37-21,0,1.275,36.37,21m-.029,10.248,0-1.271-36.369-21,0,1.271,36.37,21m.019-6.834,0-1.271-22.169-12.8,0,1.271,22.169,12.8m-36.347-29.1,0,1.271,19.621,11.328,0-1.271L66.341,291.242m18.071,28.82,0-1.275L66.293,308.323l0,1.275,18.123,10.463m-18.09-21.987,0,1.271,12.34,7.124,0-1.271-12.339-7.124m21.2,5.395,0,1.27,5.822,3.362,0-1.271-5.822-3.361m2.859,20.037,0-1.275L85.473,319.4l0,1.275,4.911,2.835m3.295,1.9,0-1.275-1.659-.957,0,1.275,1.658.957" transform="translate(-61.241 -284.689)" fill="#e1edff"/>
        </g>
      </g>
      <g id="Group_650" data-name="Group 650" transform="translate(16.744 34.801)" opacity="0.76">
        <g id="Group_638" data-name="Group 638" transform="translate(5.048 23.635)">
          <path id="Path_376" data-name="Path 376" d="M98.745,214l0,1.275L80.619,204.811l0-1.275Z" transform="translate(-80.619 -203.535)" fill="#b6c7e0"/>
        </g>
        <g id="Group_639" data-name="Group 639" transform="translate(30.775 38.489)">
          <path id="Path_377" data-name="Path 377" d="M119.317,225.875l0,1.275-1.658-.958,0-1.275Z" transform="translate(-117.654 -224.918)" fill="#b6c7e0"/>
        </g>
        <g id="Group_644" data-name="Group 644" transform="translate(5.057 16.801)" style="isolation: isolate">
          <g id="Group_640" data-name="Group 640" transform="translate(19.171 17.908)">
            <path id="Path_378" data-name="Path 378" d="M113.144,222.311l0,1.275-4.911-2.835,0-1.275Z" transform="translate(-108.229 -219.476)" fill="#b6c7e0"/>
          </g>
          <g id="Group_641" data-name="Group 641" transform="translate(0 3.419)">
            <path id="Path_379" data-name="Path 379" d="M117.006,219.618l0,1.271-36.37-21,0-1.271Z" transform="translate(-80.633 -198.62)" fill="#b6c7e0"/>
          </g>
          <g id="Group_642" data-name="Group 642" transform="translate(0.01)">
            <path id="Path_380" data-name="Path 380" d="M117.02,214.7l0,1.275-36.37-21,0-1.275Z" transform="translate(-80.647 -193.698)" fill="#b6c7e0"/>
          </g>
          <g id="Group_643" data-name="Group 643" transform="translate(14.22 4.784)">
            <path id="Path_381" data-name="Path 381" d="M123.276,213.384l0,1.27-22.169-12.8,0-1.27Z" transform="translate(-101.103 -200.585)" fill="#b6c7e0"/>
          </g>
        </g>
        <g id="Group_645" data-name="Group 645" transform="translate(26.276 18.781)">
          <path id="Path_382" data-name="Path 382" d="M117,199.91l0,1.271-5.822-3.361,0-1.271Z" transform="translate(-111.178 -196.548)" fill="#b6c7e0"/>
        </g>
        <g id="Group_646" data-name="Group 646" transform="translate(5.077 13.387)">
          <path id="Path_383" data-name="Path 383" d="M93,195.907l0,1.271-12.339-7.124,0-1.271Z" transform="translate(-80.661 -188.783)" fill="#b6c7e0"/>
        </g>
        <g id="Group_647" data-name="Group 647" transform="translate(5.086 9.967)">
          <path id="Path_384" data-name="Path 384" d="M117.048,204.859l0,1.275-36.37-21,0-1.275Z" transform="translate(-80.675 -183.861)" fill="#b6c7e0"/>
        </g>
        <g id="Group_648" data-name="Group 648" transform="translate(5.096 6.553)">
          <path id="Path_385" data-name="Path 385" d="M100.313,190.274l0,1.271L80.689,180.216l0-1.27Z" transform="translate(-80.689 -178.946)" fill="#b6c7e0"/>
        </g>
        <g id="Group_649" data-name="Group 649">
          <path id="Path_386" data-name="Path 386" d="M118.406,194.838a3.219,3.219,0,0,1,1.46,2.532l-.067,23.559c0,.928-.661,1.3-1.469.837L74.813,196.641a3.218,3.218,0,0,1-1.46-2.527l.067-23.559c0-.933.661-1.308,1.469-.842Zm-3.617,13.749,0-1.275-36.37-21,0,1.275,36.369,21m.019-6.834,0-1.275-36.369-21,0,1.275,36.369,21M114.78,212l0-1.271-36.37-21,0,1.271,36.369,21m.019-6.834,0-1.271L92.634,191.1l0,1.271,22.169,12.8m-36.346-29.1,0,1.271L98.07,188.665l0-1.271L78.453,176.066m18.07,28.82,0-1.275L78.4,193.147l0,1.275,18.122,10.463M78.433,182.9l0,1.271,12.339,7.124,0-1.271L78.433,182.9m21.2,5.394,0,1.271,5.821,3.362,0-1.271-5.821-3.362m2.859,20.038,0-1.275-4.911-2.835,0,1.275,4.911,2.835m3.3,1.9,0-1.275L104.132,208l0,1.275,1.659.957" transform="translate(-73.353 -169.513)" fill="#e1edff"/>
        </g>
      </g>
      <g id="Group_663" data-name="Group 663" transform="translate(49.628 101.041)" opacity="0.65">
        <g id="Group_651" data-name="Group 651" transform="translate(4.436 9.432)">
          <path id="Path_387" data-name="Path 387" d="M133.148,278.442l6.026,7.491-.023,8.01-6.049.519-6.026-7.491.023-8.01Zm5.525,14.906.021-7.375-5.548-6.9-5.569.479-.021,7.375,5.548,6.9,5.569-.478" transform="translate(-127.076 -278.442)" fill="#b6c7e0"/>
        </g>
        <g id="Group_652" data-name="Group 652" transform="translate(7.478 13.461)">
          <path id="Path_388" data-name="Path 388" d="M134.473,284.243l2.992,3.721-.011,3.98-3,.26-3-3.723.011-3.98Z" transform="translate(-131.455 -284.243)" fill="#b6c7e0"/>
        </g>
        <g id="Group_653" data-name="Group 653" transform="translate(4.916 10.066)">
          <path id="Path_389" data-name="Path 389" d="M127.788,279.835l5.569-.479,5.548,6.9-.021,7.375-5.569.478-5.548-6.9Zm8.54,10.617.012-3.98-2.992-3.721-3.007.257-.011,3.98,3,3.723,3-.26" transform="translate(-127.767 -279.356)" fill="#e1edff"/>
        </g>
        <g id="Group_654" data-name="Group 654" transform="translate(18.755 15.755)">
          <path id="Path_390" data-name="Path 390" d="M148.637,287.674a2.076,2.076,0,0,1,.943,1.633c0,.6-.427.843-.949.541a2.078,2.078,0,0,1-.943-1.633C147.69,287.614,148.115,287.372,148.637,287.674Z" transform="translate(-147.688 -287.544)" fill="#b6c7e0"/>
        </g>
        <g id="Group_655" data-name="Group 655" transform="translate(21.984 17.744)">
          <path id="Path_391" data-name="Path 391" d="M172.656,302.138l0,1.087L152.337,291.5l0-1.087Z" transform="translate(-152.337 -290.408)" fill="#b6c7e0"/>
        </g>
        <g id="Group_656" data-name="Group 656" transform="translate(18.745 19.611)">
          <path id="Path_392" data-name="Path 392" d="M148.622,293.225a2.078,2.078,0,0,1,.943,1.632c0,.6-.427.843-.949.541a2.078,2.078,0,0,1-.943-1.633C147.674,293.165,148.1,292.923,148.622,293.225Z" transform="translate(-147.673 -293.095)" fill="#b6c7e0"/>
        </g>
        <g id="Group_657" data-name="Group 657" transform="translate(21.963 25.457)">
          <path id="Path_393" data-name="Path 393" d="M172.625,313.24l0,1.087L152.305,302.6l0-1.087Z" transform="translate(-152.305 -301.51)" fill="#b6c7e0"/>
        </g>
        <g id="Group_658" data-name="Group 658" transform="translate(21.952 29.313)">
          <path id="Path_394" data-name="Path 394" d="M172.609,318.791l0,1.087-20.316-11.73,0-1.087Z" transform="translate(-152.289 -307.061)" fill="#b6c7e0"/>
        </g>
        <g id="Group_659" data-name="Group 659" transform="translate(21.973 21.6)">
          <path id="Path_395" data-name="Path 395" d="M172.64,307.689l0,1.087-20.316-11.73,0-1.087Z" transform="translate(-152.321 -295.959)" fill="#b6c7e0"/>
        </g>
        <g id="Group_660" data-name="Group 660" transform="translate(18.733 23.467)">
          <path id="Path_396" data-name="Path 396" d="M148.606,298.776a2.078,2.078,0,0,1,.943,1.633c0,.6-.427.838-.949.536a2.075,2.075,0,0,1-.943-1.628C147.658,298.715,148.084,298.474,148.606,298.776Z" transform="translate(-147.657 -298.646)" fill="#b6c7e0"/>
        </g>
        <g id="Group_661" data-name="Group 661" transform="translate(18.722 27.322)">
          <path id="Path_397" data-name="Path 397" d="M148.59,304.326a2.068,2.068,0,0,1,.943,1.628c0,.6-.426.843-.949.54a2.077,2.077,0,0,1-.943-1.633C147.643,304.261,148.068,304.024,148.59,304.326Z" transform="translate(-147.641 -304.195)" fill="#b6c7e0"/>
        </g>
        <g id="Group_662" data-name="Group 662">
          <path id="Path_398" data-name="Path 398" d="M166.206,290.462a3.221,3.221,0,0,1,1.459,2.528l-.058,20.735c0,.933-.661,1.308-1.469.842l-43.988-25.4a3.22,3.22,0,0,1-1.46-2.533l.058-20.734c0-.928.661-1.3,1.469-.837Zm-29-.664.023-8.01L131.2,274.3l-6.049.519-.023,8.01,6.026,7.491,6.049-.519m25.756,17.2,0-1.086-20.316-11.73,0,1.086,20.317,11.73m.033-11.568,0-1.087-20.316-11.73,0,1.087,20.316,11.73m-.022,7.712,0-1.086-20.316-11.73,0,1.087,20.317,11.729m.01-3.856,0-1.087-20.317-11.73,0,1.087,20.316,11.73m-22.6-12.5c.522.3.947.06.949-.541a2.078,2.078,0,0,0-.943-1.632c-.523-.3-.948-.06-.949.54a2.076,2.076,0,0,0,.943,1.633m.01-3.856c.523.3.948.06.949-.541a2.074,2.074,0,0,0-.943-1.633c-.522-.3-.947-.06-.949.54a2.079,2.079,0,0,0,.943,1.633m-.022,7.707c.522.3.948.06.949-.536a2.078,2.078,0,0,0-.943-1.632c-.522-.3-.948-.06-.949.54a2.075,2.075,0,0,0,.943,1.628m-.011,3.856c.523.3.948.06.949-.541a2.068,2.068,0,0,0-.943-1.628c-.522-.3-.947-.065-.949.536a2.078,2.078,0,0,0,.943,1.633" transform="translate(-120.69 -264.865)" fill="#e1edff"/>
        </g>
      </g>
      <g id="Group_673" data-name="Group 673" transform="translate(93.217 60.51)" opacity="0.91">
        <g id="Group_664" data-name="Group 664" transform="translate(4.991 20.22)">
          <path id="Path_399" data-name="Path 399" d="M200.006,235.8c.691-.4,1.25-.075,1.253.714l.017,6.164a2.734,2.734,0,0,1-1.244,2.149l-8.141,4.7c-.691.4-1.25.08-1.253-.709l-.017-6.163a2.743,2.743,0,0,1,1.244-2.155Z" transform="translate(-190.621 -235.628)" fill="#b6c7e0"/>
        </g>
        <g id="Group_665" data-name="Group 665" transform="translate(31.773 20.774)">
          <path id="Path_400" data-name="Path 400" d="M232.6,236.9c1.9-1.1,3.438-.216,3.444,1.963a7.537,7.537,0,0,1-3.422,5.928c-1.9,1.094-3.439.215-3.445-1.963A7.543,7.543,0,0,1,232.6,236.9Z" transform="translate(-229.174 -236.425)" fill="#b6c7e0"/>
        </g>
        <g id="Group_666" data-name="Group 666" transform="translate(17.628 6.41)">
          <path id="Path_401" data-name="Path 401" d="M229.777,215.748l0,1.275-20.964,12.1,0-1.275Z" transform="translate(-208.813 -215.748)" fill="#b6c7e0"/>
        </g>
        <g id="Group_672" data-name="Group 672" transform="translate(0 0)" style="isolation: isolate">
          <g id="Group_667" data-name="Group 667" transform="translate(17.65 14.167)">
            <path id="Path_402" data-name="Path 402" d="M229.808,226.914l0,1.271-20.964,12.1,0-1.271Z" transform="translate(-208.844 -226.914)" fill="#b6c7e0"/>
          </g>
          <g id="Group_668" data-name="Group 668">
            <path id="Path_403" data-name="Path 403" d="M225.533,206.722c.812-.469,1.467-.091,1.469.837l.074,26.035a3.212,3.212,0,0,1-1.46,2.528l-40.637,23.461c-.807.467-1.466.091-1.469-.836l-.074-26.035a3.221,3.221,0,0,1,1.459-2.528Zm-13.96,31.886-.017-5.812c0-.943-.674-1.325-1.49-.854L189.706,243.7a3.275,3.275,0,0,0-1.481,2.57l.017,5.811c0,.943.67,1.323,1.491.85l20.359-11.755a3.271,3.271,0,0,0,1.481-2.565m-23.145-4.841.017,6.163c0,.789.561,1.108,1.253.709l8.141-4.7a2.734,2.734,0,0,0,1.244-2.149l-.017-6.164c0-.789-.561-1.113-1.253-.714l-8.141,4.7a2.743,2.743,0,0,0-1.244,2.155m30.227,1.89a7.537,7.537,0,0,0,3.422-5.928c-.006-2.179-1.544-3.061-3.444-1.963a7.543,7.543,0,0,0-3.423,5.928c.006,2.179,1.548,3.057,3.445,1.963m3.378-21.452,0-1.275-20.964,12.1,0,1.275,20.964-12.1m.022,7.752,0-1.271-20.964,12.1,0,1.271,20.965-12.1m-.011-3.876,0-1.271-20.965,12.1,0,1.271,20.964-12.1" transform="translate(-183.437 -206.521)" fill="#e1edff"/>
          </g>
          <g id="Group_669" data-name="Group 669" transform="translate(17.639 10.291)">
            <path id="Path_404" data-name="Path 404" d="M229.793,221.335l0,1.27-20.964,12.1,0-1.27Z" transform="translate(-208.829 -221.335)" fill="#b6c7e0"/>
          </g>
          <g id="Group_670" data-name="Group 670" transform="translate(5.268 25.84)">
            <path id="Path_405" data-name="Path 405" d="M212.382,243.855c.553-.32,1.008-.065,1.009.575l.017,5.811a2.219,2.219,0,0,1-1,1.737l-20.359,11.755c-.557.322-1.008.06-1.01-.575l-.016-5.812a2.205,2.205,0,0,1,1-1.737Z" transform="translate(-191.02 -243.718)" fill="#e1edff"/>
          </g>
          <g id="Group_671" data-name="Group 671" transform="translate(4.788 25.22)">
            <path id="Path_406" data-name="Path 406" d="M212.17,243.026c.816-.471,1.488-.088,1.49.854l.017,5.812a3.271,3.271,0,0,1-1.481,2.565l-20.359,11.755c-.82.474-1.488.094-1.491-.85l-.017-5.811a3.275,3.275,0,0,1,1.481-2.57Zm1.027,6.943-.017-5.811c0-.641-.456-.895-1.009-.575l-20.36,11.754a2.205,2.205,0,0,0-1,1.737l.016,5.812c0,.635.453.9,1.01.575l20.359-11.755a2.219,2.219,0,0,0,1-1.737" transform="translate(-190.329 -242.825)" fill="#b6c7e0"/>
          </g>
        </g>
      </g>
      <g id="Group_686" data-name="Group 686" transform="translate(109.993 91.853)" opacity="0.65">
        <g id="Group_674" data-name="Group 674" transform="translate(5.043 16.22)">
          <path id="Path_407" data-name="Path 407" d="M234.471,274.989l0,1.271L214.85,287.59l0-1.271Z" transform="translate(-214.846 -274.989)" fill="#b6c7e0"/>
        </g>
        <g id="Group_675" data-name="Group 675" transform="translate(5.092 34.167)">
          <path id="Path_408" data-name="Path 408" d="M233.042,300.824l0,1.275-18.127,10.465,0-1.275Z" transform="translate(-214.916 -300.824)" fill="#b6c7e0"/>
        </g>
        <g id="Group_676" data-name="Group 676" transform="translate(24.276 30.721)">
          <path id="Path_409" data-name="Path 409" d="M247.443,295.863l0,1.275-4.911,2.835,0-1.275Z" transform="translate(-242.532 -295.863)" fill="#b6c7e0"/>
        </g>
        <g id="Group_685" data-name="Group 685" style="isolation: isolate">
          <g id="Group_677" data-name="Group 677" transform="translate(19.268 13.384)">
            <path id="Path_410" data-name="Path 410" d="M257.491,270.906l0,1.27-22.169,12.8,0-1.27Z" transform="translate(-235.322 -270.906)" fill="#b6c7e0"/>
          </g>
          <g id="Group_678" data-name="Group 678" transform="translate(5.053 9.965)">
            <path id="Path_411" data-name="Path 411" d="M251.234,265.984l0,1.275-36.374,21,0-1.275Z" transform="translate(-214.86 -265.984)" fill="#b6c7e0"/>
          </g>
          <g id="Group_679" data-name="Group 679">
            <path id="Path_412" data-name="Path 412" d="M252.563,251.84c.807-.466,1.466-.091,1.469.842l.067,23.558a3.22,3.22,0,0,1-1.459,2.528l-43.518,25.125c-.808.466-1.466.09-1.469-.837l-.067-23.559a3.22,3.22,0,0,1,1.46-2.533Zm-3.527,17.873,0-1.275-36.374,21,0,1.275,36.374-21m-.019-6.834,0-1.275-36.374,21,0,1.275,36.374-21m.029,10.248,0-1.271-36.374,21,0,1.271,36.374-21m-.019-6.834,0-1.271-22.169,12.8,0,1.271,22.169-12.8m-36.4,12.9,0,1.271,19.625-11.331,0-1.27-19.625,11.33m18.178,7.892,0-1.275-18.126,10.465,0,1.275,18.126-10.465m-18.159-1.058,0,1.27L225,280.168l0-1.271-12.343,7.127m21.165-19.065,0,1.271,5.822-3.362,0-1.271-5.822,3.362m2.963,16.677,0-1.275-4.911,2.835,0,1.275,4.911-2.835m3.3-1.9,0-1.275-1.659.958,0,1.275,1.658-.958" transform="translate(-207.586 -251.64)" fill="#e1edff"/>
          </g>
          <g id="Group_680" data-name="Group 680" transform="translate(30.824 28.819)">
            <path id="Path_413" data-name="Path 413" d="M251.957,294.082l0,1.275,1.658-.958,0-1.275Z" transform="translate(-251.957 -293.124)" fill="#b6c7e0"/>
          </g>
          <g id="Group_681" data-name="Group 681" transform="translate(26.228 11.959)">
            <path id="Path_414" data-name="Path 414" d="M251.163,268.854l0,1.271-5.822,3.361,0-1.271Z" transform="translate(-245.341 -268.854)" fill="#b6c7e0"/>
          </g>
          <g id="Group_682" data-name="Group 682" transform="translate(5.082 20.218)">
            <path id="Path_415" data-name="Path 415" d="M251.276,280.743l0,1.271-36.374,21,0-1.27Z" transform="translate(-214.902 -280.743)" fill="#b6c7e0"/>
          </g>
          <g id="Group_683" data-name="Group 683" transform="translate(5.072 16.798)">
            <path id="Path_416" data-name="Path 416" d="M251.262,275.821l0,1.275-36.374,21,0-1.275Z" transform="translate(-214.888 -275.821)" fill="#b6c7e0"/>
          </g>
          <g id="Group_684" data-name="Group 684" transform="translate(5.063 27.258)">
            <path id="Path_417" data-name="Path 417" d="M227.217,290.878l0,1.27-12.344,7.127,0-1.27Z" transform="translate(-214.874 -290.878)" fill="#b6c7e0"/>
          </g>
        </g>
      </g>
      <g id="Group_699" data-name="Group 699" transform="translate(88.726 142.73)" opacity="0.88">
        <g id="Group_687" data-name="Group 687" transform="translate(4.916 25.079)">
          <path id="Path_418" data-name="Path 418" d="M184.05,367.876l5.548-6.9,5.569.478.021,7.375-5.548,6.9-5.569-.478Zm8.572.738-.012-3.98-3-.259-3,3.723.011,3.98,3.007.258,2.992-3.721" transform="translate(-184.05 -360.979)" fill="#e1edff"/>
        </g>
        <g id="Group_688" data-name="Group 688" transform="translate(4.436 24.444)">
          <path id="Path_419" data-name="Path 419" d="M189.385,360.065l6.049.519.023,8.01-6.026,7.491-6.049-.519-.023-8.01Zm5.592,8.488-.021-7.375-5.569-.478-5.548,6.9.021,7.375,5.569.478,5.548-6.9" transform="translate(-183.359 -360.065)" fill="#b6c7e0"/>
        </g>
        <g id="Group_689" data-name="Group 689" transform="translate(7.478 28.474)">
          <path id="Path_420" data-name="Path 420" d="M190.734,365.866l3,.26.011,3.98-2.992,3.721-3.007-.257-.011-3.98Z" transform="translate(-187.738 -365.866)" fill="#b6c7e0"/>
        </g>
        <g id="Group_690" data-name="Group 690" transform="translate(18.722 20.145)">
          <path id="Path_421" data-name="Path 421" d="M204.867,354c.523-.3.948-.06.949.541a2.076,2.076,0,0,1-.943,1.633c-.522.3-.947.06-.949-.54A2.079,2.079,0,0,1,204.867,354Z" transform="translate(-203.924 -353.875)" fill="#b6c7e0"/>
        </g>
        <g id="Group_691" data-name="Group 691" transform="translate(21.952 7.767)">
          <path id="Path_422" data-name="Path 422" d="M228.889,336.057l0,1.087-20.316,11.73,0-1.087Z" transform="translate(-208.572 -336.057)" fill="#b6c7e0"/>
        </g>
        <g id="Group_692" data-name="Group 692" transform="translate(18.733 24.001)">
          <path id="Path_423" data-name="Path 423" d="M204.883,359.556c.522-.3.948-.06.949.54a2.076,2.076,0,0,1-.943,1.633c-.522.3-.948.06-.949-.54A2.076,2.076,0,0,1,204.883,359.556Z" transform="translate(-203.94 -359.426)" fill="#b6c7e0"/>
        </g>
        <g id="Group_693" data-name="Group 693" transform="translate(21.963 11.623)">
          <path id="Path_424" data-name="Path 424" d="M228.9,341.608l0,1.087-20.316,11.73,0-1.087Z" transform="translate(-208.588 -341.608)" fill="#b6c7e0"/>
        </g>
        <g id="Group_694" data-name="Group 694" transform="translate(21.984 19.335)">
          <path id="Path_425" data-name="Path 425" d="M228.936,352.71l0,1.087-20.316,11.73,0-1.087Z" transform="translate(-208.62 -352.71)" fill="#b6c7e0"/>
        </g>
        <g id="Group_695" data-name="Group 695" transform="translate(21.973 15.479)">
          <path id="Path_426" data-name="Path 426" d="M228.92,347.159l0,1.087-20.316,11.73,0-1.087Z" transform="translate(-208.604 -347.159)" fill="#b6c7e0"/>
        </g>
        <g id="Group_696" data-name="Group 696" transform="translate(18.755 31.712)">
          <path id="Path_427" data-name="Path 427" d="M204.914,370.658c.522-.3.947-.065.949.536a2.078,2.078,0,0,1-.943,1.633c-.522.3-.947.06-.949-.541A2.068,2.068,0,0,1,204.914,370.658Z" transform="translate(-203.971 -370.527)" fill="#b6c7e0"/>
        </g>
        <g id="Group_697" data-name="Group 697">
          <path id="Path_428" data-name="Path 428" d="M222.416,325.079c.812-.469,1.471-.094,1.473.834l.058,20.735a3.221,3.221,0,0,1-1.464,2.535L178.5,374.577c-.808.466-1.466.091-1.469-.842L176.973,353a3.218,3.218,0,0,1,1.46-2.527ZM193.508,357.85l-.023-8.01-6.049-.519-6.026,7.491.023,8.01,6.049.519,6.026-7.491M219.276,345.3l0-1.086-20.316,11.73,0,1.086,20.316-11.73m-.033-11.568,0-1.087-20.317,11.73,0,1.087,20.316-11.73m.022,7.712,0-1.087-20.316,11.73,0,1.086,20.317-11.729m-.011-3.856,0-1.087-20.317,11.73,0,1.087,20.316-11.73m-22.6,13.594a2.076,2.076,0,0,0,.943-1.633c0-.6-.427-.842-.949-.54a2.076,2.076,0,0,0-.943,1.633c0,.6.427.842.949.54m-.011-3.856a2.076,2.076,0,0,0,.943-1.633c0-.6-.426-.843-.949-.541a2.079,2.079,0,0,0-.943,1.633c0,.6.427.843.949.541m.022,7.707a2.077,2.077,0,0,0,.943-1.628c0-.6-.427-.842-.949-.54a2.076,2.076,0,0,0-.943,1.633c0,.6.426.837.949.536m.01,3.856a2.078,2.078,0,0,0,.943-1.633c0-.6-.427-.837-.949-.536a2.068,2.068,0,0,0-.943,1.628c0,.6.427.843.949.541" transform="translate(-176.973 -324.877)" fill="#e1edff"/>
        </g>
        <g id="Group_698" data-name="Group 698" transform="translate(18.745 27.857)">
          <path id="Path_429" data-name="Path 429" d="M204.9,365.107c.522-.3.947-.06.949.54a2.077,2.077,0,0,1-.943,1.628c-.523.3-.948.06-.949-.536A2.076,2.076,0,0,1,204.9,365.107Z" transform="translate(-203.956 -364.977)" fill="#b6c7e0"/>
        </g>
      </g>
    </g>
  </g>
</svg>
