<svg xmlns="http://www.w3.org/2000/svg" xmlns:xlink="http://www.w3.org/1999/xlink" width="300" height="300" viewBox="0 0 300 300">
  <defs>
    <filter id="Ellipse_57" x="0" y="0" width="300" height="300" filterUnits="userSpaceOnUse">
      <feOffset dy="10" input="SourceAlpha"/>
      <feGaussianBlur stdDeviation="10" result="blur"/>
      <feFlood flood-color="#0d142d" flood-opacity="0.161"/>
      <feComposite operator="in" in2="blur"/>
      <feComposite in="SourceGraphic"/>
    </filter>
    <linearGradient id="linear-gradient" x1="6.742" y1="1.497" x2="5.66" y2="1.066" gradientUnits="objectBoundingBox">
      <stop offset="0" stop-color="#ff817b"/>
      <stop offset="0.126" stop-color="#ff8c84"/>
      <stop offset="0.469" stop-color="#ffa899"/>
      <stop offset="0.772" stop-color="#ffb9a6"/>
      <stop offset="1" stop-color="#ffbfab"/>
    </linearGradient>
    <linearGradient id="linear-gradient-2" x1="6.252" y1="1.393" x2="5.301" y2="1" xlink:href="#linear-gradient"/>
    <linearGradient id="linear-gradient-3" x1="3.289" y1="0.73" x2="2.411" y2="0.375" xlink:href="#linear-gradient"/>
    <linearGradient id="linear-gradient-4" x1="-6.353" y1="1.748" x2="-7.364" y2="1.419" xlink:href="#linear-gradient"/>
    <linearGradient id="linear-gradient-5" x1="0.5" y1="1.001" x2="0.5" y2="0.419" xlink:href="#linear-gradient"/>
    <linearGradient id="linear-gradient-6" x1="0.5" y1="-0.013" x2="0.5" y2="0.633" gradientUnits="objectBoundingBox">
      <stop offset="0" stop-color="#112d93"/>
      <stop offset="1" stop-color="#4060ff"/>
    </linearGradient>
    <clipPath id="clip-path">
      <path id="Path_448" data-name="Path 448" d="M403.8,238.988a6.783,6.783,0,0,1,2.011.3,6.066,6.066,0,0,1,1.7.827,4.661,4.661,0,0,1,1.22,1.235,3.405,3.405,0,0,1,.559,1.527l9.092,88.949a6.624,6.624,0,0,1-.083,1.934,6.142,6.142,0,0,1-.615,1.733,6.014,6.014,0,0,1-3.222,2.8,6.232,6.232,0,0,1-.712.216,6.471,6.471,0,0,1-.751.134,6.8,6.8,0,0,1-.786.045H347.226a6.636,6.636,0,0,1-1.289-.125,6.256,6.256,0,0,1-1.185-.36,6.04,6.04,0,0,1-1.97-1.323c-.141-.155-.266-.3-.376-.435s-.208-.263-.3-.386-.164-.241-.234-.358-.133-.233-.192-.35-.1-.223-.141-.313-.071-.166-.1-.234-.05-.127-.07-.182-.037-.106-.053-.157c-.033-.1-.063-.206-.09-.31s-.053-.21-.075-.317-.042-.214-.059-.323-.031-.218-.042-.329c-.005-.055-.011-.11-.015-.166s-.008-.112-.011-.168-.005-.113-.007-.169,0-.113,0-.17,0-.114,0-.171,0-.115.006-.172.007-.116.011-.173.009-.116.015-.174l9.086-88.949a3.408,3.408,0,0,1,.56-1.527,4.663,4.663,0,0,1,1.221-1.235,6.075,6.075,0,0,1,1.7-.827,6.776,6.776,0,0,1,2.009-.3Zm11.751,92.841-8.426-88.949a1.959,1.959,0,0,0-.32-.887,2.7,2.7,0,0,0-.707-.72,3.528,3.528,0,0,0-.99-.484,3.94,3.94,0,0,0-1.171-.177H382.123a1.454,1.454,0,0,1-.183.712,1.891,1.891,0,0,1-.513.583,2.552,2.552,0,0,1-.766.394,3.143,3.143,0,0,1-1.885,0,2.57,2.57,0,0,1-.768-.394,1.887,1.887,0,0,1-.514-.583,1.447,1.447,0,0,1-.184-.712H355.5a3.933,3.933,0,0,0-1.171.177,3.518,3.518,0,0,0-.989.484,2.7,2.7,0,0,0-.7.72,1.966,1.966,0,0,0-.318.887L343.9,331.829a3.743,3.743,0,0,0,.164,1.527,3.487,3.487,0,0,0,1.9,2.107,3.708,3.708,0,0,0,1.511.313h64.494a3.712,3.712,0,0,0,1.511-.313,3.493,3.493,0,0,0,1.908-2.107,3.756,3.756,0,0,0,.165-1.527M379.72,239.8a1.379,1.379,0,0,0-.419.064,1.131,1.131,0,0,0-.343.174.848.848,0,0,0-.231.259.64.64,0,0,0,0,.638.853.853,0,0,0,.23.261,1.165,1.165,0,0,0,.344.176,1.415,1.415,0,0,0,.843,0,1.165,1.165,0,0,0,.344-.176.845.845,0,0,0,.231-.261.649.649,0,0,0,.083-.319.664.664,0,0,0-.086-.319.851.851,0,0,0-.232-.259,1.122,1.122,0,0,0-.343-.174,1.372,1.372,0,0,0-.419-.064" transform="translate(-341.022 -238.988)" fill="none"/>
    </clipPath>
    <linearGradient id="linear-gradient-7" x1="0.5" y1="2.229" x2="0.5" y2="0.588" xlink:href="#linear-gradient"/>
    <linearGradient id="linear-gradient-8" x1="0.5" y1="-0.023" x2="0.5" y2="0.829" gradientUnits="objectBoundingBox">
      <stop offset="0" stop-color="#a1e4ff"/>
      <stop offset="1" stop-color="#a1e4ff" stop-opacity="0"/>
    </linearGradient>
    <linearGradient id="linear-gradient-14" x1="0.5" y1="1.015" x2="0.5" y2="0.024" xlink:href="#linear-gradient-8"/>
  </defs>
  <g id="Group_1079" data-name="Group 1079" transform="translate(-820 -528)">
    <g transform="matrix(1, 0, 0, 1, 820, 528)" filter="url(#Ellipse_57)">
      <circle id="Ellipse_57-2" data-name="Ellipse 57" cx="120" cy="120" r="120" transform="translate(30 20)" fill="#0d142d"/>
    </g>
    <g id="Group_734" data-name="Group 734" transform="translate(595.942 429.038)">
      <g id="Group_726" data-name="Group 726" transform="translate(330.272 206.232)">
        <path id="Path_430" data-name="Path 430" d="M348.767,328.264c-1.506-.968-11.593-.525-12.342,3.6-1.077,5.928,6.685,8.616,12.595,6.418,1.211-.45,1.273-2.119,1.108-4.935C349.93,329.956,349.615,328.808,348.767,328.264Z" transform="translate(-334.865 -259.847)" fill="url(#linear-gradient)"/>
        <path id="Path_431" data-name="Path 431" d="M348.565,310.52c-1.718-1.107-13.388-.963-14.095,4.091-.816,5.836,7.83,8.525,14.37,7.344,1.452-.263,1.455-2.417,1.272-5.633C349.89,312.455,349.533,311.144,348.565,310.52Z" transform="translate(-334.417 -255.651)" fill="url(#linear-gradient-2)"/>
        <path id="Path_432" data-name="Path 432" d="M352.376,286.8c-1.737-1.443-15.414-1.841-16,2.609-.728,5.483,7.137,10.409,14.782,9.969,1.628-.094,1.919-2.458,2.146-6.008C353.572,289.1,353.354,287.613,352.376,286.8Z" transform="translate(-334.865 -249.982)" fill="url(#linear-gradient-3)"/>
        <path id="Path_433" data-name="Path 433" d="M361.736,263.209c-.992-2.033-13.261-8.5-15.7-4.2-2.991,5.278,1.578,13.691,9.406,15.19,1.6.308,2.764-1.455,4.431-4.607C361.883,265.8,362.295,264.354,361.736,263.209Z" transform="translate(-336.929 -243.35)" fill="url(#linear-gradient-4)"/>
        <path id="Path_434" data-name="Path 434" d="M355.055,325.83s8.522,11.81,17.9,16.991S395.539,359.1,395.539,359.1l.9,8.835a22.007,22.007,0,0,0,21.893,19.779h0a22,22,0,0,0,21.608-26.169c-4.16-21.566-9.822-49.377-12.253-54.285-3.914-7.9-21.522-25.707-21.522-25.707l-30.1,8.393Z" transform="translate(-339.262 -248.981)" fill="url(#linear-gradient-5)"/>
        <g id="Group_702" data-name="Group 702" transform="translate(5.054 4.199)">
          <g id="Group_701" data-name="Group 701">
            <path id="Path_435" data-name="Path 435" d="M418.411,334.1h0l-.024,3.386.024.813-.112.947-.245.9-.37.836-.486.764-.594.68-.692.585-.782.479-.328.156-.34.137-.351.118-.361.1-.371.077-.38.056-.389.034-.4.012H347.227l-.656-.032-.633-.093-.607-.152-.578-.207-.547-.26-.512-.309-.475-.356-.436-.4-.2-.225-.177-.21-.157-.2-.139-.188-.124-.181-.111-.177-.1-.175-.092-.176-.076-.168-.064-.145-.054-.125-.045-.109-.038-.1-.032-.086-.028-.08-.025-.077-.047-.154-.043-.156-.039-.158-.035-.159-.031-.161-.027-.162-.023-.164-.019-.165-.008-.083-.007-.083-.006-.084,0-.084,0-.084,0-.084,0-.085v-.17l0-.086,0-.086,0-.086.005-.086.006-.087h0l-.02-3.6,9.1-85.357.2-.961.374-.734.539-.661.681-.574.8-.472.9-.355.976-.224,1.033-.078H403.8l1.034.078.977.224.9.355.8.472.681.574.539.661.374.734.185.792,9.121,85.737" transform="translate(-341.022 -244.475)" fill="#0d142d"/>
          </g>
        </g>
        <g id="Group_725" data-name="Group 725" transform="translate(5.054)">
          <g id="Group_724" data-name="Group 724" style="isolation: isolate">
            <g id="Group_703" data-name="Group 703" transform="translate(37.618 0.807)">
              <path id="Path_436" data-name="Path 436" d="M391.262,240.043a1.372,1.372,0,0,1,.419.064,1.113,1.113,0,0,1,.343.174.845.845,0,0,1,.232.259.643.643,0,0,1,0,.637.845.845,0,0,1-.231.261,1.138,1.138,0,0,1-.344.176,1.415,1.415,0,0,1-.843,0,1.147,1.147,0,0,1-.344-.176.853.853,0,0,1-.23-.261.638.638,0,0,1,0-.637.842.842,0,0,1,.231-.259,1.131,1.131,0,0,1,.343-.174A1.379,1.379,0,0,1,391.262,240.043Z" transform="translate(-390.182 -240.043)" fill="#bbefff"/>
            </g>
            <g id="Group_704" data-name="Group 704" transform="translate(38.548 7.925)">
              <path id="Path_437" data-name="Path 437" d="M414.173,249.344l.131,1.7H391.4v-1.7Z" transform="translate(-391.397 -249.344)" fill="#eefdff"/>
            </g>
            <g id="Group_705" data-name="Group 705" transform="translate(38.546 12.059)">
              <path id="Path_438" data-name="Path 438" d="M414.492,254.747l.135,1.746H391.394v-1.746Z" transform="translate(-391.394 -254.747)" fill="#eefdff"/>
            </g>
            <g id="Group_706" data-name="Group 706" transform="translate(2.856 1.624)">
              <path id="Path_439" data-name="Path 439" d="M404.814,241.11a3.936,3.936,0,0,1,1.171.177,3.528,3.528,0,0,1,.99.484,2.7,2.7,0,0,1,.707.72,1.96,1.96,0,0,1,.32.887l8.426,88.949a3.756,3.756,0,0,1-.165,1.527,3.493,3.493,0,0,1-1.908,2.107,3.712,3.712,0,0,1-1.511.313H348.349a3.7,3.7,0,0,1-1.51-.313,3.469,3.469,0,0,1-1.177-.852,3.5,3.5,0,0,1-.727-1.256,3.756,3.756,0,0,1-.164-1.527l8.419-88.949a1.966,1.966,0,0,1,.318-.887,2.691,2.691,0,0,1,.706-.72,3.514,3.514,0,0,1,.988-.484,3.933,3.933,0,0,1,1.171-.177h21.814a1.447,1.447,0,0,0,.184.712,1.888,1.888,0,0,0,.514.583,2.57,2.57,0,0,0,.768.394,3.143,3.143,0,0,0,1.885,0,2.552,2.552,0,0,0,.766-.394,1.882,1.882,0,0,0,.513-.583,1.445,1.445,0,0,0,.183-.712Zm2.576,55.715-2.275-29.1a3.2,3.2,0,0,0-.445-1.379,4,4,0,0,0-1-1.118,4.838,4.838,0,0,0-1.408-.75,5.224,5.224,0,0,0-1.672-.274H360.6a5.216,5.216,0,0,0-1.67.274,4.848,4.848,0,0,0-1.408.75,4.006,4.006,0,0,0-1,1.118,3.186,3.186,0,0,0-.445,1.379l-2.273,29.1a3.752,3.752,0,0,0,.243,1.662,3.893,3.893,0,0,0,.912,1.37,4.361,4.361,0,0,0,1.442.93,4.912,4.912,0,0,0,1.823.343h44.753a4.925,4.925,0,0,0,1.826-.343,4.357,4.357,0,0,0,1.441-.93,3.889,3.889,0,0,0,.911-1.37,3.763,3.763,0,0,0,.241-1.662m-49.518-48.137-.582,7.556a1.059,1.059,0,0,0,.093.525,1.242,1.242,0,0,0,.331.431,1.629,1.629,0,0,0,.518.292,1.981,1.981,0,0,0,.652.107h16.091a2.081,2.081,0,0,0,.664-.107,1.807,1.807,0,0,0,.543-.292,1.406,1.406,0,0,0,.369-.431,1.129,1.129,0,0,0,.139-.525l.1-7.556a1.034,1.034,0,0,0-.122-.5,1.294,1.294,0,0,0-.346-.406,1.7,1.7,0,0,0-.518-.272,2.065,2.065,0,0,0-.638-.1H359.611a2.147,2.147,0,0,0-.645.1,1.921,1.921,0,0,0-.543.272,1.478,1.478,0,0,0-.383.406,1.1,1.1,0,0,0-.168.5m50.667,67.647-.158-2.052H352.817l-.158,2.052h55.879m.709,9.2-.166-2.156H352.117l-.167,2.156h57.3m.368,4.772-.17-2.206H351.753l-.17,2.206h58.033m-.727-9.431-.162-2.1H352.471l-.161,2.1h56.579M380.443,255.8v1.8h23.566l-.139-1.8H380.443m0-4.257v1.746h23.232l-.135-1.746h-23.1m0-4.134v1.7h22.908l-.131-1.7H380.447M362.2,308.341a1.242,1.242,0,0,0,.087.531,1.29,1.29,0,0,0,.292.436,1.383,1.383,0,0,0,.451.3,1.5,1.5,0,0,0,.564.108,1.573,1.573,0,0,0,1.053-.4,1.49,1.49,0,0,0,.334-.436,1.33,1.33,0,0,0,.138-.531,1.268,1.268,0,0,0-.092-.533,1.283,1.283,0,0,0-.294-.432,1.392,1.392,0,0,0-.449-.29,1.507,1.507,0,0,0-.56-.106,1.59,1.59,0,0,0-.57.106,1.574,1.574,0,0,0-.477.29,1.467,1.467,0,0,0-.335.432,1.327,1.327,0,0,0-.142.533m22.583,0a1.288,1.288,0,0,0,.122.531,1.394,1.394,0,0,0,.32.436,1.509,1.509,0,0,0,.469.3,1.552,1.552,0,0,0,.571.108,1.52,1.52,0,0,0,.567-.108,1.453,1.453,0,0,0,.461-.3,1.351,1.351,0,0,0,.305-.436,1.264,1.264,0,0,0,.1-.531,1.3,1.3,0,0,0-.126-.533,1.411,1.411,0,0,0-.321-.432,1.52,1.52,0,0,0-.468-.29,1.561,1.561,0,0,0-.567-.106,1.535,1.535,0,0,0-.563.106,1.45,1.45,0,0,0-.458.29,1.332,1.332,0,0,0-.308.432,1.276,1.276,0,0,0-.109.533m-11.288,0a1.275,1.275,0,0,0,.1.531,1.343,1.343,0,0,0,.3.436,1.439,1.439,0,0,0,.458.3,1.519,1.519,0,0,0,.566.108,1.562,1.562,0,0,0,.574-.108,1.5,1.5,0,0,0,.469-.3,1.4,1.4,0,0,0,.318-.436,1.3,1.3,0,0,0,.12-.531,1.286,1.286,0,0,0-.107-.533,1.34,1.34,0,0,0-.306-.432,1.451,1.451,0,0,0-.458-.29,1.569,1.569,0,0,0-1.132,0,1.5,1.5,0,0,0-.465.29,1.391,1.391,0,0,0-.319.432,1.311,1.311,0,0,0-.125.533m22.584,0a1.327,1.327,0,0,0,.137.531,1.47,1.47,0,0,0,.332.436,1.566,1.566,0,0,0,.479.3,1.584,1.584,0,0,0,.577.108,1.487,1.487,0,0,0,.562-.108,1.373,1.373,0,0,0,.448-.3,1.283,1.283,0,0,0,.289-.436,1.266,1.266,0,0,0,.087-.531,1.339,1.339,0,0,0-.142-.533,1.473,1.473,0,0,0-.333-.432,1.567,1.567,0,0,0-1.044-.4,1.52,1.52,0,0,0-.563.106,1.38,1.38,0,0,0-.448.29,1.279,1.279,0,0,0-.292.432,1.254,1.254,0,0,0-.09.533" transform="translate(-344.754 -241.11)" fill="#bbefff"/>
            </g>
            <g id="Group_707" data-name="Group 707" transform="translate(15.388 7.925)">
              <path id="Path_440" data-name="Path 440" d="M379.008,249.344a2.065,2.065,0,0,1,.638.1,1.7,1.7,0,0,1,.518.272,1.294,1.294,0,0,1,.346.406,1.034,1.034,0,0,1,.122.5l-.1,7.556a1.129,1.129,0,0,1-.139.525,1.406,1.406,0,0,1-.369.431,1.807,1.807,0,0,1-.543.292,2.08,2.08,0,0,1-.664.107H362.729a1.981,1.981,0,0,1-.652-.107,1.629,1.629,0,0,1-.518-.292,1.242,1.242,0,0,1-.331-.431,1.059,1.059,0,0,1-.093-.525l.582-7.556a1.1,1.1,0,0,1,.168-.5,1.478,1.478,0,0,1,.383-.406,1.921,1.921,0,0,1,.543-.272,2.147,2.147,0,0,1,.645-.1Z" transform="translate(-361.132 -249.344)" fill="#eefdff"/>
            </g>
            <g id="Group_708" data-name="Group 708" transform="translate(38.544 16.316)">
              <path id="Path_441" data-name="Path 441" d="M414.819,260.31l.139,1.8H391.392v-1.8Z" transform="translate(-391.392 -260.31)" fill="#eefdff"/>
            </g>
            <g id="Group_709" data-name="Group 709" transform="translate(24.109 29.999)">
              <path id="Path_442" data-name="Path 442" d="M387.118,278.191a16.527,16.527,0,0,1,5.477.921,15.017,15.017,0,0,1,4.554,2.541,12.878,12.878,0,0,1,3.2,3.845,11.231,11.231,0,0,1,1.344,4.838,11.07,11.07,0,0,1-.94,4.982,12.551,12.551,0,0,1-3.039,4.183,14.779,14.779,0,0,1-4.711,2.88,16.72,16.72,0,0,1-11.765,0,14.781,14.781,0,0,1-4.714-2.88,12.564,12.564,0,0,1-3.04-4.183,11.069,11.069,0,0,1-.941-4.982,11.241,11.241,0,0,1,1.344-4.838,12.87,12.87,0,0,1,3.2-3.845,15.007,15.007,0,0,1,4.555-2.541A16.543,16.543,0,0,1,387.118,278.191Z" transform="translate(-372.529 -278.191)" fill="#eefdff"/>
            </g>
            <g id="Group_710" data-name="Group 710" transform="translate(12.617 25.249)">
              <path id="Path_443" data-name="Path 443" d="M403.62,271.984a4.4,4.4,0,0,1,1.419.233,4.087,4.087,0,0,1,1.194.637,3.392,3.392,0,0,1,.846.949,2.7,2.7,0,0,1,.373,1.167l2.215,29.1a3.184,3.184,0,0,1-.207,1.4,3.311,3.311,0,0,1-.772,1.159,3.711,3.711,0,0,1-1.219.787,4.175,4.175,0,0,1-1.544.289H361.257a4.155,4.155,0,0,1-1.54-.289,3.7,3.7,0,0,1-1.217-.787,3.309,3.309,0,0,1-.771-1.159,3.184,3.184,0,0,1-.207-1.4l2.212-29.1a2.7,2.7,0,0,1,.373-1.167,3.389,3.389,0,0,1,.846-.949,4.075,4.075,0,0,1,1.191-.637,4.38,4.38,0,0,1,1.416-.233Zm-20.026,30.009a16.476,16.476,0,0,0,5.881-1.069,14.779,14.779,0,0,0,4.711-2.88,12.561,12.561,0,0,0,3.039-4.183,11.07,11.07,0,0,0,.94-4.982,11.231,11.231,0,0,0-1.344-4.838,12.878,12.878,0,0,0-3.2-3.845,15.017,15.017,0,0,0-4.554-2.541,16.757,16.757,0,0,0-10.959,0,15.013,15.013,0,0,0-4.555,2.541,12.87,12.87,0,0,0-3.2,3.845,11.241,11.241,0,0,0-1.344,4.838,11.069,11.069,0,0,0,.941,4.982,12.564,12.564,0,0,0,3.04,4.183,14.781,14.781,0,0,0,4.714,2.88,16.491,16.491,0,0,0,5.885,1.069" transform="translate(-357.511 -271.984)" fill="#bbefff"/>
            </g>
            <g id="Group_711" data-name="Group 711" transform="translate(11.89 24.715)">
              <path id="Path_444" data-name="Path 444" d="M403.362,271.286a5.224,5.224,0,0,1,1.672.274,4.838,4.838,0,0,1,1.408.75,4,4,0,0,1,1,1.118,3.2,3.2,0,0,1,.445,1.379l2.275,29.1a3.763,3.763,0,0,1-.241,1.662,3.889,3.889,0,0,1-.911,1.37,4.357,4.357,0,0,1-1.441.93,4.925,4.925,0,0,1-1.826.343H360.99a4.912,4.912,0,0,1-1.823-.343,4.361,4.361,0,0,1-1.442-.93,3.893,3.893,0,0,1-.912-1.37,3.752,3.752,0,0,1-.243-1.662l2.273-29.1a3.186,3.186,0,0,1,.445-1.379,4.006,4.006,0,0,1,1-1.118,4.848,4.848,0,0,1,1.408-.75,5.216,5.216,0,0,1,1.67-.274Zm6.081,32.623-2.215-29.1a2.7,2.7,0,0,0-.373-1.167,3.392,3.392,0,0,0-.846-.949,4.092,4.092,0,0,0-1.193-.637,4.4,4.4,0,0,0-1.419-.233H363.335a4.38,4.38,0,0,0-1.416.233,4.075,4.075,0,0,0-1.191.637,3.389,3.389,0,0,0-.846.949,2.7,2.7,0,0,0-.373,1.167l-2.212,29.1a3.184,3.184,0,0,0,.207,1.4,3.309,3.309,0,0,0,.771,1.159,3.7,3.7,0,0,0,1.217.787,4.155,4.155,0,0,0,1.54.289H405.7a4.175,4.175,0,0,0,1.544-.289,3.711,3.711,0,0,0,1.219-.787,3.311,3.311,0,0,0,.772-1.159,3.184,3.184,0,0,0,.207-1.4" transform="translate(-356.56 -271.286)" fill="#eefdff"/>
            </g>
            <g id="Group_712" data-name="Group 712" transform="translate(42.885 67.494)">
              <path id="Path_445" data-name="Path 445" d="M398.5,327.191a1.561,1.561,0,0,1,.567.106,1.52,1.52,0,0,1,.468.29,1.4,1.4,0,0,1,.321.432,1.3,1.3,0,0,1,.126.533,1.265,1.265,0,0,1-.1.531,1.351,1.351,0,0,1-.305.436,1.453,1.453,0,0,1-.461.3,1.52,1.52,0,0,1-.567.108,1.552,1.552,0,0,1-.571-.108,1.509,1.509,0,0,1-.469-.3,1.394,1.394,0,0,1-.32-.436,1.286,1.286,0,0,1-.013-1.064,1.332,1.332,0,0,1,.308-.432,1.45,1.45,0,0,1,.458-.29A1.535,1.535,0,0,1,398.5,327.191Z" transform="translate(-397.065 -327.191)" fill="#eefdff"/>
            </g>
            <g id="Group_713" data-name="Group 713" transform="translate(10.761 74.798)">
              <path id="Path_446" data-name="Path 446" d="M410.806,336.735l.158,2.052h-55.88l.158-2.052Z" transform="translate(-355.085 -336.735)" fill="#eefdff"/>
            </g>
            <g id="Group_717" data-name="Group 717">
              <path id="Path_447" data-name="Path 447" d="M403.8,238.988a6.783,6.783,0,0,1,2.011.3,6.066,6.066,0,0,1,1.7.827,4.661,4.661,0,0,1,1.22,1.235,3.405,3.405,0,0,1,.559,1.527l9.092,88.949a6.624,6.624,0,0,1-.083,1.934,6.142,6.142,0,0,1-.615,1.733,6.014,6.014,0,0,1-3.222,2.8,6.232,6.232,0,0,1-.712.216,6.471,6.471,0,0,1-.751.134,6.8,6.8,0,0,1-.786.045H347.226a6.636,6.636,0,0,1-1.289-.125,6.256,6.256,0,0,1-1.185-.36,6.04,6.04,0,0,1-1.97-1.323c-.141-.155-.266-.3-.376-.435s-.208-.263-.3-.386-.164-.241-.234-.358-.133-.233-.192-.35-.1-.223-.141-.313-.071-.166-.1-.234-.05-.127-.07-.182-.037-.106-.053-.157c-.033-.1-.063-.206-.09-.31s-.053-.21-.075-.317-.042-.214-.059-.323-.031-.218-.042-.329c-.005-.055-.011-.11-.015-.166s-.008-.112-.011-.168-.005-.113-.007-.169,0-.113,0-.17,0-.114,0-.171,0-.115.006-.172.007-.116.011-.173.009-.116.015-.174l9.086-88.949a3.408,3.408,0,0,1,.56-1.527,4.663,4.663,0,0,1,1.221-1.235,6.075,6.075,0,0,1,1.7-.827,6.776,6.776,0,0,1,2.009-.3Zm11.751,92.841-8.426-88.949a1.959,1.959,0,0,0-.32-.887,2.7,2.7,0,0,0-.707-.72,3.528,3.528,0,0,0-.99-.484,3.94,3.94,0,0,0-1.171-.177H382.123a1.454,1.454,0,0,1-.183.712,1.891,1.891,0,0,1-.513.583,2.552,2.552,0,0,1-.766.394,3.143,3.143,0,0,1-1.885,0,2.57,2.57,0,0,1-.768-.394,1.887,1.887,0,0,1-.514-.583,1.447,1.447,0,0,1-.184-.712H355.5a3.933,3.933,0,0,0-1.171.177,3.518,3.518,0,0,0-.989.484,2.7,2.7,0,0,0-.7.72,1.966,1.966,0,0,0-.318.887L343.9,331.829a3.743,3.743,0,0,0,.164,1.527,3.487,3.487,0,0,0,1.9,2.107,3.708,3.708,0,0,0,1.511.313h64.494a3.712,3.712,0,0,0,1.511-.313,3.493,3.493,0,0,0,1.908-2.107,3.756,3.756,0,0,0,.165-1.527M379.72,239.8a1.379,1.379,0,0,0-.419.064,1.131,1.131,0,0,0-.343.174.848.848,0,0,0-.231.259.64.64,0,0,0,0,.638.853.853,0,0,0,.23.261,1.165,1.165,0,0,0,.344.176,1.415,1.415,0,0,0,.843,0,1.165,1.165,0,0,0,.344-.176.845.845,0,0,0,.231-.261.649.649,0,0,0,.083-.319.664.664,0,0,0-.086-.319.851.851,0,0,0-.232-.259,1.122,1.122,0,0,0-.343-.174,1.372,1.372,0,0,0-.419-.064" transform="translate(-341.022 -238.988)" fill="url(#linear-gradient-6)"/>
            </g>
            <g id="Group_718" data-name="Group 718" transform="translate(54.179 67.494)">
              <path id="Path_449" data-name="Path 449" d="M413.22,327.191a1.563,1.563,0,0,1,1.044.4,1.461,1.461,0,0,1,.333.432,1.339,1.339,0,0,1,.142.533,1.267,1.267,0,0,1-.087.531,1.283,1.283,0,0,1-.289.436,1.373,1.373,0,0,1-.448.3,1.487,1.487,0,0,1-.562.108,1.584,1.584,0,0,1-.577-.108,1.566,1.566,0,0,1-.479-.3,1.47,1.47,0,0,1-.332-.436,1.328,1.328,0,0,1-.137-.531,1.254,1.254,0,0,1,.09-.533,1.279,1.279,0,0,1,.292-.432,1.375,1.375,0,0,1,.449-.29A1.513,1.513,0,0,1,413.22,327.191Z" transform="translate(-411.824 -327.191)" fill="#eefdff"/>
            </g>
            <g id="Group_719" data-name="Group 719" transform="translate(20.3 67.494)">
              <path id="Path_450" data-name="Path 450" d="M369.077,327.191a1.507,1.507,0,0,1,.56.106,1.392,1.392,0,0,1,.449.29,1.284,1.284,0,0,1,.294.432,1.268,1.268,0,0,1,.092.533,1.33,1.33,0,0,1-.138.531,1.49,1.49,0,0,1-.334.436,1.573,1.573,0,0,1-1.053.4,1.5,1.5,0,0,1-.564-.108,1.383,1.383,0,0,1-.451-.3,1.29,1.29,0,0,1-.292-.436,1.254,1.254,0,0,1-.087-.531,1.326,1.326,0,0,1,.142-.533,1.466,1.466,0,0,1,.335-.432,1.574,1.574,0,0,1,.477-.29A1.59,1.59,0,0,1,369.077,327.191Z" transform="translate(-367.551 -327.191)" fill="#eefdff"/>
            </g>
            <g id="Group_720" data-name="Group 720" transform="translate(31.596 67.494)">
              <path id="Path_451" data-name="Path 451" d="M383.787,327.191a1.542,1.542,0,0,1,.566.106,1.451,1.451,0,0,1,.458.29,1.34,1.34,0,0,1,.306.432,1.286,1.286,0,0,1,.107.533,1.3,1.3,0,0,1-.12.531,1.4,1.4,0,0,1-.318.436,1.5,1.5,0,0,1-.469.3,1.562,1.562,0,0,1-.574.108,1.519,1.519,0,0,1-.566-.108,1.439,1.439,0,0,1-.458-.3,1.343,1.343,0,0,1-.3-.436,1.276,1.276,0,0,1-.1-.531,1.311,1.311,0,0,1,.125-.533,1.391,1.391,0,0,1,.319-.432,1.5,1.5,0,0,1,.465-.29A1.553,1.553,0,0,1,383.787,327.191Z" transform="translate(-382.313 -327.191)" fill="#eefdff"/>
            </g>
            <g id="Group_721" data-name="Group 721" transform="translate(10.411 79.29)">
              <path id="Path_452" data-name="Path 452" d="M411.045,342.605l.162,2.1H354.628l.162-2.1Z" transform="translate(-354.628 -342.605)" fill="#eefdff"/>
            </g>
            <g id="Group_722" data-name="Group 722" transform="translate(10.052 83.888)">
              <path id="Path_453" data-name="Path 453" d="M411.29,348.615l.166,2.157h-57.3l.166-2.157Z" transform="translate(-354.158 -348.615)" fill="#eefdff"/>
            </g>
            <g id="Group_723" data-name="Group 723" transform="translate(9.685 88.611)">
              <path id="Path_454" data-name="Path 454" d="M411.541,354.786l.17,2.206H353.678l.17-2.206Z" transform="translate(-353.678 -354.786)" fill="#eefdff"/>
            </g>
          </g>
        </g>
        <path id="Path_455" data-name="Path 455" d="M433.063,352.377l-2.945-35.407c-.2-.141-.738.6-1.341,1.6a4.649,4.649,0,0,1-6.5,1.517c-16.209-10.453-21.687-9.494-23.508-7.139-2.763,3.572,2.954,13.267,17.765,22.041C416.532,334.992,423.182,346.81,433.063,352.377Z" transform="translate(-349.367 -255.993)" fill="url(#linear-gradient-7)"/>
      </g>
      <g id="Group_733" data-name="Group 733" transform="translate(316.761 99.472)">
        <g id="Group_727" data-name="Group 727" transform="translate(0 49.67)" opacity="0.33">
          <path id="Path_456" data-name="Path 456" d="M373.2,164.382a148.356,148.356,0,0,1,21.193,1.475,100.3,100.3,0,0,1,17.616,4.067,43.467,43.467,0,0,1,12.373,6.155c3.057,2.355,4.9,4.97,5.2,7.744.3,2.8-1,5.5-3.64,7.974-2.662,2.5-6.678,4.771-11.757,6.694a93.347,93.347,0,0,1-18.229,4.609,152.267,152.267,0,0,1-45.515,0,93.391,93.391,0,0,1-18.237-4.609c-5.081-1.923-9.1-4.194-11.761-6.694-2.638-2.477-3.942-5.174-3.642-7.974.3-2.774,2.14-5.389,5.2-7.744a43.437,43.437,0,0,1,12.374-6.155A100.308,100.308,0,0,1,352,165.857,148.511,148.511,0,0,1,373.2,164.382Z" transform="translate(-316.761 -164.382)" fill="#a1e4ff"/>
        </g>
        <g id="Group_732" data-name="Group 732" transform="translate(19.788 8.87)">
          <g id="Group_728" data-name="Group 728" transform="translate(20.665)">
            <path id="Path_457" data-name="Path 457" d="M385.362,170.717V115.606l-7.868-4.543-7.868,4.543v55.112l7.868,4.543Z" transform="translate(-369.626 -111.063)" fill="#0d142d"/>
            <path id="Path_458" data-name="Path 458" d="M369.626,115.606l7.868,4.543,7.868-4.543-7.868-4.543Z" transform="translate(-369.626 -111.063)" fill="#4ad0ee"/>
            <path id="Path_459" data-name="Path 459" d="M379.908,121.542v55.111l7.868-4.543V117Z" transform="translate(-372.04 -112.457)" fill="#fff"/>
          </g>
          <g id="Group_729" data-name="Group 729" transform="translate(57.554 10.744)">
            <path id="Path_460" data-name="Path 460" d="M433.569,174.014V129.646L425.7,125.1l-7.868,4.543v44.367l7.868,4.543Z" transform="translate(-417.833 -125.104)" fill="#0d142d"/>
            <path id="Path_461" data-name="Path 461" d="M417.833,129.646l7.868,4.543,7.868-4.543L425.7,125.1Z" transform="translate(-417.833 -125.104)" fill="#fff"/>
            <path id="Path_462" data-name="Path 462" d="M428.115,135.583V179.95l7.868-4.543V131.04Z" transform="translate(-420.247 -126.498)" fill="#4ad0ee"/>
          </g>
          <g id="Group_730" data-name="Group 730" transform="translate(38.875 26.109)">
            <path id="Path_463" data-name="Path 463" d="M409.159,178.728v-29l-7.868-4.543-7.868,4.543v29l7.868,4.543Z" transform="translate(-393.423 -145.183)" fill="#0d142d"/>
            <path id="Path_464" data-name="Path 464" d="M393.423,149.726l7.868,4.543,7.868-4.543-7.868-4.543Z" transform="translate(-393.423 -145.183)" fill="#fff"/>
            <path id="Path_465" data-name="Path 465" d="M403.7,155.662v29l7.868-4.543v-29Z" transform="translate(-395.837 -146.577)" fill="#4ad0ee"/>
          </g>
          <g id="Group_731" data-name="Group 731" transform="translate(0 16.318)">
            <path id="Path_466" data-name="Path 466" d="M358.356,175.724V136.93l-7.868-4.543-7.868,4.543v38.794l7.868,4.543Z" transform="translate(-342.62 -132.388)" fill="#0d142d"/>
            <path id="Path_467" data-name="Path 467" d="M342.62,136.93l7.868,4.543,7.868-4.543-7.868-4.543Z" transform="translate(-342.62 -132.388)" fill="#4ad0ee"/>
            <path id="Path_468" data-name="Path 468" d="M352.9,142.867V181.66l7.868-4.543V138.324Z" transform="translate(-345.034 -133.782)" fill="#fff"/>
          </g>
        </g>
        <path id="Rectangle_74" data-name="Rectangle 74" d="M1.5,0h0A1.5,1.5,0,0,1,3,1.5V30.2a0,0,0,0,1,0,0H0a0,0,0,0,1,0,0V1.5A1.5,1.5,0,0,1,1.5,0Z" transform="translate(22.578 12.379)" fill="url(#linear-gradient-8)"/>
        <path id="Rectangle_75" data-name="Rectangle 75" d="M1.5,0h0A1.5,1.5,0,0,1,3,1.5V30.2a0,0,0,0,1,0,0H0a0,0,0,0,1,0,0V1.5A1.5,1.5,0,0,1,1.5,0Z" transform="translate(103.983 44.861)" fill="url(#linear-gradient-8)"/>
        <path id="Rectangle_76" data-name="Rectangle 76" d="M1.5,0h0A1.5,1.5,0,0,1,3,1.5V30.2a0,0,0,0,1,0,0H0a0,0,0,0,1,0,0V1.5A1.5,1.5,0,0,1,1.5,0Z" transform="translate(69.059)" fill="url(#linear-gradient-8)"/>
        <path id="Rectangle_77" data-name="Rectangle 77" d="M1.5,0h0A1.5,1.5,0,0,1,3,1.5V30.2a0,0,0,0,1,0,0H0a0,0,0,0,1,0,0V1.5A1.5,1.5,0,0,1,1.5,0Z" transform="translate(42.036 66.954)" fill="url(#linear-gradient-8)"/>
        <path id="Rectangle_78" data-name="Rectangle 78" d="M1.5,0h0A1.5,1.5,0,0,1,3,1.5V30.2a0,0,0,0,1,0,0H0a0,0,0,0,1,0,0V1.5A1.5,1.5,0,0,1,1.5,0Z" transform="translate(72.993 75.337)" fill="url(#linear-gradient-8)"/>
        <path id="Rectangle_79" data-name="Rectangle 79" d="M1.5,0h0A1.5,1.5,0,0,1,3,1.5V30.2a0,0,0,0,1,0,0H0a0,0,0,0,1,0,0V1.5A1.5,1.5,0,0,1,1.5,0Z" transform="translate(5.693 46.761)" fill="url(#linear-gradient-8)"/>
      </g>
      <path id="Path_469" data-name="Path 469" d="M429.584,189.788l-112.822,2.038,43.626,82.737h0a12.564,12.564,0,0,0,3.04,4.183,14.783,14.783,0,0,0,4.714,2.88,16.721,16.721,0,0,0,11.765,0,14.78,14.78,0,0,0,4.711-2.88,12.562,12.562,0,0,0,3.039-4.183h0Z" transform="translate(0 -21.205)" opacity="0.84" fill="url(#linear-gradient-14)"/>
    </g>
  </g>
</svg>
