<svg xmlns="http://www.w3.org/2000/svg" width="524.803" height="473.524" viewBox="0 0 524.803 473.524">
  <g id="Group_461" data-name="Group 461" transform="translate(-80.027 -128.251)">
    <path id="Path_143" data-name="Path 143" d="M80.56,268.819a28.9,28.9,0,0,1,34.837-33.7A51.158,51.158,0,0,1,213.711,222.1a35.754,35.754,0,0,1,43.622,46.719Z" transform="translate(0 46.683)" fill="#d6efff"/>
    <rect id="Rectangle_59" data-name="Rectangle 59" width="290.97" height="407.166" transform="translate(192.555 190.009)" fill="none" stroke="#4ad0ee" stroke-miterlimit="10" stroke-width="9.201"/>
    <g id="Group_456" data-name="Group 456" transform="translate(121.93 474.947)">
      <path id="Path_144" data-name="Path 144" d="M243.164,445.414s.72-49.936-6.722-65.3-12.244-5.432-12.244-5.432-31.209-48.344-41.774-49.065S169.461,336.9,169.461,336.9s-49.455-15.125-60.5-3.6-2.641,27.128,11.284,33.611,45.853,5.763,45.853,5.763-17.766,14.644-6.722,24.726,34.57,5.042,34.57,5.042-10.083,12,2.881,21.606,36.731,21.367,36.731,21.367Z" transform="translate(-103.878 -325.586)" fill="#04103a"/>
      <path id="Path_145" data-name="Path 145" d="M232.337,436.868s-25.782-83.053-114.155-99.991" transform="translate(-93.052 -317.04)" fill="none" stroke="#4ad0ee" stroke-miterlimit="10" stroke-width="2.3"/>
    </g>
    <g id="Group_457" data-name="Group 457" transform="translate(138.251 373.904)">
      <path id="Path_146" data-name="Path 146" d="M170.044,308.038s-16.856-29.279-34.022-35.521-21.847-5.04-22.806-1.68,12.843,25.568,29.048,34.33S170.044,308.038,170.044,308.038Z" transform="translate(-113.168 -268.074)" fill="#04103a"/>
      <path id="Path_147" data-name="Path 147" d="M155.756,272.045s-5.464,33.34,3.884,49.031,13.732,17.723,16.6,15.728,6.223-27.927-.785-44.964S155.756,272.045,155.756,272.045Z" transform="translate(-82.135 -265.068)" fill="#04103a"/>
      <path id="Path_148" data-name="Path 148" d="M176.559,297.7s-5.462,33.34,3.886,49.033,13.732,17.722,16.6,15.726,6.225-27.928-.785-44.964S176.559,297.7,176.559,297.7Z" transform="translate(-66.389 -245.649)" fill="#04103a"/>
      <path id="Path_149" data-name="Path 149" d="M127.808,305.128s32.891-7.718,49.182.539,18.618,12.5,16.82,15.494-27.439,8.11-44.913,2.275S127.808,305.128,127.808,305.128Z" transform="translate(-102.087 -242.507)" fill="#04103a"/>
      <path id="Path_150" data-name="Path 150" d="M143.263,324.4s32.891-7.718,49.182.541,18.616,12.495,16.82,15.494-27.439,8.108-44.915,2.275S143.263,324.4,143.263,324.4Z" transform="translate(-90.39 -227.924)" fill="#04103a"/>
      <path id="Path_151" data-name="Path 151" d="M252.73,419.041S196.4,311.086,126.176,278.278" transform="translate(-103.323 -260.351)" fill="none" stroke="#4ad0ee" stroke-miterlimit="10" stroke-width="2.3"/>
    </g>
    <path id="Path_152" data-name="Path 152" d="M344.063,242.693s2.052,18.725.755,27.369-17.681,17.644-26.5,18.906-33.49-5.283-33.49-5.283l12.723-31.339s24.547-1.873,28.688,0S344.063,242.693,344.063,242.693Z" transform="translate(155.007 86.62)" fill="#ffd1b7"/>
    <path id="Path_153" data-name="Path 153" d="M310.152,253.591l-9.311,27.186a26.853,26.853,0,0,0,5.35-.058,36.705,36.705,0,0,0,9.686-3.155Z" transform="translate(167.13 94.868)" fill="#ffad89"/>
    <path id="Path_154" data-name="Path 154" d="M323.022,262.186s23.047-11.044,23.047-27.848-17.525-21.127-24.249-34.331-3.361-44.173-19.925-51.856-22.567,6-22.567,6-21.127-18.725-36.492,0-9.122,34.091-22.565,44.894-29.05,20.888-29.05,35.772,30.73,32.59,30.73,32.59Z" transform="translate(84.16 13.29)" fill="#0d142d"/>
    <path id="Path_155" data-name="Path 155" d="M188.136,252.353a37.184,37.184,0,0,1-14.4-1.081c-7.382-2.161-20.526-12.065-20.526-12.065l-6.123,23.409s38.358,20.361,48.5,24.667S188.136,252.353,188.136,252.353Z" transform="translate(50.753 83.982)" fill="#ffd1b7"/>
    <path id="Path_156" data-name="Path 156" d="M153.8,239.726a3.942,3.942,0,0,0-.864.123l-5.852,22.376s4.5,2.388,10.826,5.7C154.82,256.9,153.8,239.726,153.8,239.726Z" transform="translate(50.753 84.374)" fill="#ffad89"/>
    <g id="Group_458" data-name="Group 458" transform="translate(408.381 476.06)">
      <path id="Path_157" data-name="Path 157" d="M340.845,356.065s26.487-20.972,44.744-20.424,22.163,3.393,21.812,6.871-21.387,19.006-39.683,21.156S340.845,356.065,340.845,356.065Z" transform="translate(-210.972 -319.097)" fill="#04103a"/>
      <path id="Path_158" data-name="Path 158" d="M357.592,326.346s-7.252,33-21.738,44.121-19.313,11.39-21.241,8.475,4.543-28.251,17.355-41.489S357.592,326.346,357.592,326.346Z" transform="translate(-231.081 -326.22)" fill="#04103a"/>
      <path id="Path_159" data-name="Path 159" d="M328.775,342.493s-7.251,33-21.738,44.121S287.724,398,285.8,395.089s4.543-28.251,17.354-41.489S328.775,342.493,328.775,342.493Z" transform="translate(-252.892 -313.999)" fill="#04103a"/>
      <path id="Path_160" data-name="Path 160" d="M381.549,373.46s-27.706-19.331-45.9-17.681-21.917,4.726-21.357,8.177,22.5,17.68,40.89,18.72S381.549,373.46,381.549,373.46Z" transform="translate(-231.107 -303.923)" fill="#04103a"/>
      <path id="Path_161" data-name="Path 161" d="M360.066,385.649s-27.708-19.333-45.9-17.683-21.917,4.726-21.357,8.177,22.5,17.681,40.89,18.721S360.066,385.649,360.066,385.649Z" transform="translate(-247.367 -294.699)" fill="#04103a"/>
      <path id="Path_162" data-name="Path 162" d="M266.923,426.764s92.256-79.475,169.631-84" transform="translate(-266.923 -313.696)" fill="none" stroke="#4ad0ee" stroke-miterlimit="10" stroke-width="2.3"/>
    </g>
    <g id="Group_459" data-name="Group 459" transform="translate(399.572 403.435)">
      <path id="Path_163" data-name="Path 163" d="M261.93,422.853s-.829-57.5,7.739-75.186,14.1-6.255,14.1-6.255,35.935-55.665,48.1-56.494,14.927,12.992,14.927,12.992,56.944-17.414,69.659-4.146,3.041,31.236-12.992,38.7-52.8,6.634-52.8,6.634,20.455,16.863,7.739,28.472-39.8,5.8-39.8,5.8,11.61,13.821-3.317,24.878-42.294,24.6-42.294,24.6Z" transform="translate(-261.909 -284.883)" fill="#04103a"/>
      <path id="Path_164" data-name="Path 164" d="M261.921,413.014s29.686-95.627,131.438-115.131" transform="translate(-261.899 -275.043)" fill="none" stroke="#4ad0ee" stroke-miterlimit="10" stroke-width="2.649"/>
    </g>
    <path id="Path_165" data-name="Path 165" d="M320.573,287.494s13.479,26.917,18.28,67.73,6.722,123.4,6.722,123.4H200.091s-13.444-42.763-13.925-95.564,31.211-98.175,31.211-98.175Z" transform="translate(80.331 118.553)" fill="#33aeff"/>
    <path id="Path_166" data-name="Path 166" d="M231.736,458.739l-.478-116.8,16.505-30.789-10.984,32.59,1.56,116.316Z" transform="translate(114.464 138.436)" fill="#2683bf"/>
    <path id="Path_167" data-name="Path 167" d="M336.585,361.944V163.4H274.165" transform="translate(146.94 26.606)" fill="none" stroke="#04103a" stroke-miterlimit="10" stroke-width="9.201"/>
    <path id="Path_168" data-name="Path 168" d="M144.077,383.275v20.876h290.97V390.706" transform="translate(48.478 193.024)" fill="none" stroke="#04103a" stroke-miterlimit="10" stroke-width="9.201"/>
    <path id="Path_169" data-name="Path 169" d="M249.229,163.4H144.077V335.5" transform="translate(48.478 26.606)" fill="none" stroke="#4ad0ee" stroke-miterlimit="10" stroke-width="9.201"/>
    <path id="Path_170" data-name="Path 170" d="M274.7,206.648s-31.51-10.443-42.673-5.763-41.053,77.064-41.053,77.064l-20.526,4.322a100.2,100.2,0,0,1,5.281,18.605c2.161,11.283,2.161,16.325,2.161,16.325s18.966,8.642,24.487,8.642,24.008-39.852,24.008-39.852,7.2,28.809,7.2,33.611-13.864,18.966-11.014,29.769,28.059,15.125,60.23,14.164,51.616-10.324,54.736-16.325-7.681-20.886-7.681-20.886,3.361-3.122,1.68-5.283-3.841-5.281-3.841-5.281l12.244-36.011,31.45,36.491L384.116,284.9s-13.2-17.395-20.406-32.52-16.566-46.334-31.93-47.055a77.057,77.057,0,0,0-26.828,3.366Z" transform="translate(68.439 54.063)" fill="#e6f5ff"/>
    <path id="Path_171" data-name="Path 171" d="M247.317,234.334l5.221-3.6,5.582,9s1.435-.9,3.328-14.4-6.748-28.449-6.748-28.449l-8.1,7.562v28.809Z" transform="translate(126.074 51.946)" fill="#fff"/>
    <path id="Path_172" data-name="Path 172" d="M232.548,196.369s-9.282,2.881-11.724,10.264-1,33.49-1,33.49l11.7-13.143,6.121,4.861V203.391Z" transform="translate(105.491 51.558)" fill="#fff"/>
    <path id="Path_173" data-name="Path 173" d="M260.038,200.366V231.7l-16.925,20.166-13.324-23.047V200.366Z" transform="translate(113.352 54.583)" fill="#ffd1b7"/>
    <path id="Path_174" data-name="Path 174" d="M229.789,215.929c.813.645,1.667,1.277,2.581,1.892,10.237,6.9,21.019-.228,27.669-6.55v-10.9h-30.25Z" transform="translate(113.352 54.583)" fill="#ffad89"/>
    <path id="Path_175" data-name="Path 175" d="M174.258,128.251l2.172,7.2a8.09,8.09,0,0,0,5.408,5.409l7.2,2.17-7.2,2.17a8.083,8.083,0,0,0-5.408,5.409l-2.172,7.2-2.17-7.2a8.083,8.083,0,0,0-5.408-5.409l-7.2-2.17,7.2-2.17a8.09,8.09,0,0,0,5.408-5.409Z" transform="translate(60.134)" fill="#f7e041"/>
    <path id="Path_176" data-name="Path 176" d="M347.213,211.494l2.17,7.2a8.082,8.082,0,0,0,5.409,5.409l7.2,2.17-7.2,2.17a8.082,8.082,0,0,0-5.409,5.409l-2.17,7.2-2.17-7.2a8.082,8.082,0,0,0-5.409-5.409l-7.2-2.17,7.2-2.17a8.082,8.082,0,0,0,5.409-5.409Z" transform="translate(191.041 63.006)" fill="#f7e041"/>
    <path id="Path_177" data-name="Path 177" d="M105.757,269.864l2.17,7.2a8.089,8.089,0,0,0,5.409,5.41l7.2,2.17-7.2,2.17a8.082,8.082,0,0,0-5.409,5.409l-2.17,7.2-2.17-7.2a8.082,8.082,0,0,0-5.409-5.409l-7.2-2.17,7.2-2.17a8.089,8.089,0,0,0,5.409-5.41Z" transform="translate(8.286 107.185)" fill="#f7e041"/>
    <path id="Path_178" data-name="Path 178" d="M263.718,157.117s13.8,8.162,15.244,21.367-.35,38.04-3.291,46.863c-2.191,6.573-11.353,16.156-25.278,16.4s-21.847-9-24.726-21.248a103.927,103.927,0,0,1-2.881-21.483S256.877,179.445,263.718,157.117Z" transform="translate(108.052 21.848)" fill="#ffd1b7"/>
    <path id="Path_179" data-name="Path 179" d="M163.938,230.9c-.72-4.081-6.121-6.963-9.842-6.963s-15.6,4.921-18.366,8.282,4.8,27.483,4.921,31.211a4.213,4.213,0,0,0,2.228,3.4l4.67-4.819a5.312,5.312,0,0,1,3.818-1.618h1.175a5.316,5.316,0,0,1,4.933,3.336l1.588,3.957c.7-2.9,3.182-9.477,3.435-11.7.481-4.2.842-9.482-.959-13.322a60.048,60.048,0,0,1-3-8.164S164.658,234.982,163.938,230.9Z" transform="translate(41.701 72.424)" fill="#ffd1b7"/>
    <g id="Group_460" data-name="Group 460" transform="translate(323.199 194.136)">
      <circle id="Ellipse_34" data-name="Ellipse 34" cx="15.404" cy="15.404" r="15.404" transform="translate(0 10.299) rotate(-13.232)" fill="none" stroke="#fff" stroke-miterlimit="10" stroke-width="1.15"/>
      <circle id="Ellipse_35" data-name="Ellipse 35" cx="15.404" cy="15.404" r="15.404" transform="translate(31.808 22.614) rotate(-47.225)" fill="none" stroke="#fff" stroke-miterlimit="10" stroke-width="1.15"/>
      <line id="Line_2" data-name="Line 2" x2="4.247" transform="translate(33.925 21.768)" fill="none" stroke="#fff" stroke-miterlimit="10" stroke-width="1.15"/>
    </g>
    <path id="Path_180" data-name="Path 180" d="M330.577,236.849s-.36-9.183-3.96-10.264-21.067,2.521-22.688,4.141-5.761,7.743-4.68,10.264,6.3,1.441,6.3,1.441-5.042,10.8-3.062,13.143,17.107,1.982,17.107,1.982-16.566,7.382-14.946,10.622,21.968,2.521,21.968,2.521,3.96-9.9,6.662-15.664S330.577,236.849,330.577,236.849Z" transform="translate(165.791 74.278)" fill="#ffd1b7"/>
    <path id="Rectangle_60" data-name="Rectangle 60" d="M0,0H31.053a0,0,0,0,1,0,0V9.048a8.837,8.837,0,0,1-8.837,8.837H8.837A8.837,8.837,0,0,1,0,9.048V0A0,0,0,0,1,0,0Z" transform="translate(343.721 235.857)" fill="#fff"/>
    <circle id="Ellipse_36" data-name="Ellipse 36" cx="4.981" cy="4.981" r="4.981" transform="translate(338.52 209.936)" fill="#053f64"/>
    <path id="Path_181" data-name="Path 181" d="M254.612,179.726a4.982,4.982,0,1,0-4.981,4.983A4.98,4.98,0,0,0,254.612,179.726Z" transform="translate(124.599 35.191)" fill="#053f64"/>
    <path id="Path_182" data-name="Path 182" d="M167.89,251.147l11.52-9.991A42.561,42.561,0,0,1,195.255,266.9a119.225,119.225,0,0,1,.9,32.95l-18.366-7.383S177.978,266.181,167.89,251.147Z" transform="translate(66.502 85.456)" fill="#f5fbff"/>
    <path id="Path_183" data-name="Path 183" d="M230.608,349.64q3.278-.024,6.664-.121c.889-.026,1.731-.083,2.6-.121,1.395-5.975,3.593-16.806,2.623-22.205-1.381-7.683-6.082-13.985-6.253-23.678s6.492-55.307,6.492-55.307L259.419,218.2l-16.926,20.166-3.661,6.722s-10.443,57.619-7.082,71.063,7.2,10.323,3.841,17.525C233.415,338.338,231.613,345.3,230.608,349.64Z" transform="translate(113.972 68.08)" fill="#fff"/>
    <path id="Path_184" data-name="Path 184" d="M229.789,216.559l9.663,29.769,3.661-6.722Z" transform="translate(113.352 66.839)" fill="#fff"/>
    <path id="Path_185" data-name="Path 185" d="M311.577,251.615s-9.389,7.1-10.829,16.227,2.923,19.923,2.923,19.923l-15.888,6.244s-5.281-6-2.641-26.648,14.4-24.667,14.4-24.667Z" transform="translate(154.689 86.62)" fill="#f5fbff"/>
    <path id="Path_186" data-name="Path 186" d="M205.377,268.252a150.641,150.641,0,0,1-3.9-22.808,128.053,128.053,0,0,1,0-22.327s-3.6,20.527-3.241,28.268,3.626,24.2,3.626,24.2Z" transform="translate(89.449 71.804)" fill="#addfff"/>
    <path id="Path_187" data-name="Path 187" d="M266.923,261.079a163.039,163.039,0,0,0,3.48-16.566c.842-6.6,1.441-20.166,1.441-20.166s1.441,14.18.72,24.075a74.481,74.481,0,0,1-2.72,16.047Z" transform="translate(141.458 72.735)" fill="#addfff"/>
    <path id="Path_188" data-name="Path 188" d="M213.562,235.143a112.4,112.4,0,0,0,10.924,19.688,79.483,79.483,0,0,0,13.684,14.284S217.763,261.551,213.562,235.143Z" transform="translate(101.07 80.905)" fill="#addfff"/>
    <path id="Path_189" data-name="Path 189" d="M269.844,246.826S258.8,263.392,247.577,273.6s-21.307,12.123-21.307,12.123,13.684.241,25.689-11.4S269.844,246.826,269.844,246.826Z" transform="translate(110.689 89.748)" fill="#addfff"/>
    <path id="Path_190" data-name="Path 190" d="M262.48,267.392s-6.123,8.642-15.3,13.324a55.209,55.209,0,0,1-16.567,5.582s9.905,1.441,19.087-3.06S262.48,267.392,262.48,267.392Z" transform="translate(113.972 105.314)" fill="#addfff"/>
    <path id="Path_191" data-name="Path 191" d="M157.7,231.77c-2.509-1.117-5.835-4.255-7.625-4.684-2.251-.541-9.452,3.436-9.452,3.436s5.221-1.727,7.651-1.636,6.093,3.27,6.093,3.27A9.641,9.641,0,0,0,157.7,231.77Z" transform="translate(45.867 74.768)" fill="#ffad89"/>
    <path id="Path_192" data-name="Path 192" d="M156.213,238.533c-.074-.184-.132-.381-.214-.56-.409-.871-.782-1.764-1.121-2.628L144.02,233.2Z" transform="translate(48.435 79.435)" fill="#ffad89"/>
    <path id="Path_193" data-name="Path 193" d="M155.917,247.015c.095-1.045.17-2.129.2-3.224l-12.054-5.438Z" transform="translate(48.465 83.336)" fill="#ffad89"/>
    <path id="Path_194" data-name="Path 194" d="M307.122,232.69c-1.309.784-4.58,4.048-7.193,5.5,1.92.833,4.972.206,4.972.206,2.338-1.351,12.252-5.619,18.546-6.662C323.447,231.729,308.922,231.609,307.122,232.69Z" transform="translate(166.44 78.318)" fill="#ffad89"/>
    <path id="Path_195" data-name="Path 195" d="M324.436,238.679s-10.374-3.436-14.284-.555a84.031,84.031,0,0,0-9.311,8.846s7.7-5.12,10.511-6.406S324.436,238.679,324.436,238.679Z" transform="translate(167.13 82.29)" fill="#ffad89"/>
    <path id="Path_196" data-name="Path 196" d="M411.43,197.181a22.165,22.165,0,0,0-26.722-25.853,39.245,39.245,0,0,0-75.418-9.984,27.429,27.429,0,0,0-33.463,35.837Z" transform="translate(146.906 6.368)" fill="#d6efff"/>
  </g>
</svg>
