<svg xmlns="http://www.w3.org/2000/svg" xmlns:xlink="http://www.w3.org/1999/xlink" width="1979.999" height="766.98" viewBox="0 0 1979.999 766.98">
  <defs>
    <filter id="Rectangle_8" x="0" y="643.255" width="1979.999" height="123.725" filterUnits="userSpaceOnUse">
      <feOffset dy="10" input="SourceAlpha"/>
      <feGaussianBlur stdDeviation="10" result="blur"/>
      <feFlood flood-opacity="0.161"/>
      <feComposite operator="in" in2="blur"/>
      <feComposite in="SourceGraphic"/>
    </filter>
    <linearGradient id="linear-gradient" x1="0.5" y1="1" x2="0.5" gradientUnits="objectBoundingBox">
      <stop offset="0" stop-color="#ffe900"/>
      <stop offset="1" stop-color="#fdbf2c"/>
    </linearGradient>
    <linearGradient id="linear-gradient-3" x1="0.5" y1="0.987" x2="0.5" y2="-0.2" xlink:href="#linear-gradient"/>
  </defs>
  <g id="Group_1270" data-name="Group 1270" transform="translate(30 -353.021)">
    <g id="Group_375" data-name="Group 375" transform="translate(0 448.554)">
      <g id="Group_352" data-name="Group 352" transform="translate(123.506)">
        <path id="Path_1" data-name="Path 1" d="M213.97,286.2a41.361,41.361,0,0,1,8.62-4.9c14.011-5.753,33.5-3.283,44.706-11.759,5.782-4.369,8.772-11.322,16.647-13.181,10.9-2.571,22.148,6.836,33.036,4.242,11.147-2.654,10.84-14.12,14.815-22.274,4.641-9.513,18.555-16.053,32.16-15.114s25.649,9.269,27.835,19.253c14.643-1.976,31.583-3.518,42.753,3.763,5.242,3.415,8.275,8.278,12.537,12.371,10.314,9.909,28.538,14.918,45.091,12.394,8.43-1.29,16.162-4.311,24.207-6.583s16.969-3.8,25.218-1.976c10.731,2.381,14.235,11.173,24.977,14.028,6.393,1.7,12.184,2.611,17.644,5.876A56,56,0,0,1,589.4,286.2Z" transform="translate(654.597 -318.652)" fill="#97cafe" opacity="0.66"/>
        <path id="Path_2" data-name="Path 2" d="M492.833,351.71a19.564,19.564,0,0,1,4.073-2.318c6.62-2.717,15.826-1.551,21.119-5.555,2.731-2.065,4.145-5.348,7.864-6.227,5.15-1.212,10.463,3.231,15.608,2,5.268-1.255,5.121-6.669,7-10.524,2.192-4.492,8.766-7.583,15.194-7.138s12.115,4.377,13.149,9.094c6.916-.934,14.918-1.66,20.2,1.778,2.476,1.614,3.909,3.912,5.922,5.845,4.871,4.682,13.482,7.048,21.3,5.854,3.984-.609,7.635-2.036,11.437-3.111s8.016-1.8,11.911-.931c5.07,1.123,6.727,5.276,11.8,6.626,3.019.8,5.753,1.232,8.335,2.775a27.483,27.483,0,0,1,2.447,1.827Z" transform="translate(886.452 -174.061)" fill="#97cafe" opacity="0.38"/>
        <path id="Path_3" data-name="Path 3" d="M600.5,383.71a14.326,14.326,0,0,1,3.073-2.318c4.992-2.717,11.937-1.551,15.932-5.555,2.059-2.065,3.128-5.348,5.931-6.227,3.886-1.212,7.9,3.231,11.776,2,3.972-1.255,3.863-6.669,5.279-10.524a11.144,11.144,0,0,1,21.381,1.956c5.219-.934,11.256-1.66,15.237,1.778,1.867,1.614,2.95,3.912,4.466,5.845a16.7,16.7,0,0,0,16.07,5.854c3-.609,5.762-2.036,8.628-3.111s6.046-1.8,8.987-.931c3.823,1.123,5.073,5.276,8.9,6.626,2.277.8,4.343,1.232,6.287,2.775a22.056,22.056,0,0,1,1.85,1.827Z" transform="translate(156.935 -312.113)" fill="#97cafe" opacity="0.38"/>
        <path id="Path_4" data-name="Path 4" d="M371.832,234.789a62.956,62.956,0,0,1,19.784-6.738,28.158,28.158,0,0,0,6.46-1.56c3.4-1.565,3.455-4.291,5.575-6.382,2.691-2.654,8.806-4.084,14.559-3.875a34.069,34.069,0,0,1,15,4.05,20.518,20.518,0,0,0,6.1,2.766c1.789.376,3.8.371,5.618.7,4.776.87,7.675,3.923,12.727,4.076,4.139.124,7.339-1.778,9.794-3.516s5.535-3.665,9.68-3.636a10.81,10.81,0,0,1,8.2,3.544c1.459,1.8,1.91,3.8,3.429,5.589a11.016,11.016,0,0,0,8.4,3.381c4.11-.08,7.146-1.956,11.42-1.654A19.53,19.53,0,0,1,516.7,234a4.93,4.93,0,0,1,.873.787Z" transform="translate(639.009 -132.577)" fill="#97cafe" opacity="0.66"/>
        <path id="Path_76" data-name="Path 76" d="M371.832,234.789a62.956,62.956,0,0,1,19.784-6.738,28.158,28.158,0,0,0,6.46-1.56c3.4-1.565,3.455-4.291,5.575-6.382,2.691-2.654,8.806-4.084,14.559-3.875a34.069,34.069,0,0,1,15,4.05,20.518,20.518,0,0,0,6.1,2.766c1.789.376,3.8.371,5.618.7,4.776.87,7.675,3.923,12.727,4.076,4.139.124,7.339-1.778,9.794-3.516s5.535-3.665,9.68-3.636a10.81,10.81,0,0,1,8.2,3.544c1.459,1.8,1.91,3.8,3.429,5.589a11.016,11.016,0,0,0,8.4,3.381c4.11-.08,7.146-1.956,11.42-1.654A19.53,19.53,0,0,1,516.7,234a4.93,4.93,0,0,1,.873.787Z" transform="translate(1023.262 -280.209)" fill="#97cafe" opacity="0.66"/>
        <path id="Path_5" data-name="Path 5" d="M362.153,288.981a88.053,88.053,0,0,0-20.674-4.8,41.268,41.268,0,0,1-6.747-1.112c-3.559-1.114-3.613-3.056-5.828-4.547-2.809-1.887-9.2-2.907-15.211-2.757a48.871,48.871,0,0,0-15.671,2.884,27.185,27.185,0,0,1-6.373,1.97c-1.867.267-3.967.264-5.868.5-4.992.62-8.019,2.795-13.3,2.9a21.835,21.835,0,0,1-10.234-2.5,22.021,22.021,0,0,0-10.113-2.588c-3.935.017-7.046,1.238-8.571,2.522s-2,2.706-3.587,3.981-4.848,2.461-8.78,2.41c-4.294-.057-7.468-1.4-11.931-1.178a27.542,27.542,0,0,0-8.487,1.752,5.091,5.091,0,0,0-.913.56Z" transform="translate(893.645 -98.105)" fill="#97cafe" opacity="0.66"/>
        <path id="Path_77" data-name="Path 77" d="M362.153,288.981a88.053,88.053,0,0,0-20.674-4.8,41.268,41.268,0,0,1-6.747-1.112c-3.559-1.114-3.613-3.056-5.828-4.547-2.809-1.887-9.2-2.907-15.211-2.757a48.871,48.871,0,0,0-15.671,2.884,27.185,27.185,0,0,1-6.373,1.97c-1.867.267-3.967.264-5.868.5-4.992.62-8.019,2.795-13.3,2.9a21.835,21.835,0,0,1-10.234-2.5,22.021,22.021,0,0,0-10.113-2.588c-3.935.017-7.046,1.238-8.571,2.522s-2,2.706-3.587,3.981-4.848,2.461-8.78,2.41c-4.294-.057-7.468-1.4-11.931-1.178a27.542,27.542,0,0,0-8.487,1.752,5.091,5.091,0,0,0-.913.56Z" transform="translate(373.688 -292.882)" fill="#97cafe" opacity="0.66"/>
        <path id="Path_6" data-name="Path 6" d="M105.661,236.8c9.358-3.766,21.292-6.661,34.412-8.307,3.938-.494,8.117-.9,11.23-1.921,5.923-1.93,6.014-5.294,9.7-7.87,4.676-3.271,15.312-5.035,25.319-4.776a78.813,78.813,0,0,1,26.088,4.992c3.234,1.275,6.216,2.757,10.6,3.412,3.111.462,6.6.457,9.768.865,8.312,1.074,13.35,4.837,22.142,5.023,7.2.155,12.758-2.192,17.032-4.331s9.625-4.518,16.834-4.481c6.552.032,11.727,2.143,14.269,4.369s3.323,4.682,5.968,6.888,8.074,4.262,14.62,4.17c7.143-.1,12.428-2.413,19.859-2.039,4.733.238,11.228,1.591,14.128,3.036a8.229,8.229,0,0,1,1.519.971Z" transform="translate(1398.304 17.21)" fill="#97cafe" opacity="0.66"/>
        <path id="Path_8" data-name="Path 8" d="M340.822,294.827c8.938-5.483,23.546-8.082,35.937-11.825,10.667-3.22,19.973-7.422,27.232-12.293,5.153-3.455,9.7-7.43,17.713-9.361,7.657-1.847,17.113-1.384,24.985.253,22.981,4.779,38.947,15.769,64.355,18.586,26.686,2.958,27.608-12.233,50.221-11.974,6.8.08,12.529,2.565,15.671,5.385,6.29,5.647,5.8,16.288,22.622,17.954,10.228,1.011,17.589-3.516,27.559-2.881,5.713.365,13.551,2.436,17.055,4.65a10.03,10.03,0,0,1,1.835,1.488H455.329Q398.076,294.81,340.822,294.827Z" transform="translate(264.019 -17.591)" fill="#97cafe" opacity="0.66"/>
      </g>
      <g id="Group_374" data-name="Group 374" transform="translate(0 172.356)">
        <g id="Group_355" data-name="Group 355" transform="translate(1078.65 336.082)">
          <path id="Path_9" data-name="Path 9" d="M261.494,398.4l1.106,2.123.549,1.068.465,1.106.931,2.223.752,2.292.373,1.152.282,1.178c.175.787.4,1.568.537,2.367a39.273,39.273,0,0,1,.678,7.488c.485-1.195.948-2.4,1.347-3.636a58.084,58.084,0,0,0,2.163-8.884,58.7,58.7,0,0,1-1.068,9.171c-.23,1.195-.517,2.378-.83,3.559a60.907,60.907,0,0,1,8.424-7.867c1.591-1.137,3.139-2.324,4.817-3.32.833-.506,1.629-1.069,2.49-1.522l2.559-1.393c.839-.485,1.72-.89,2.6-1.293l2.634-1.221c1.784-.75,3.6-1.413,5.394-2.123-1.74.842-3.5,1.634-5.21,2.5l-2.522,1.4c-.842.46-1.683.922-2.479,1.462l-2.416,1.557c-.813.505-1.554,1.12-2.332,1.674-1.568,1.091-3,2.364-4.458,3.582a58.706,58.706,0,0,0-7.686,8.335c-.56.755-1.12,1.508-1.62,2.3-.528.773-1.008,1.574-1.471,2.384a35.241,35.241,0,0,0-1.8,3.61c-.178.583-.376,1.169-.623,1.784l-3.05-1.5.034-.078-.069-.023c.279-.658.577-1.264.885-1.853.267-.707.511-1.442.727-2.157a34.4,34.4,0,0,0,.965-4.472,37.893,37.893,0,0,0,.235-9.237c-.06-.775-.21-1.539-.31-2.312l-.169-1.16-.261-1.14-.531-2.289L262.821,403l-.359-1.126-.445-1.094-.9-2.189c-.649-1.442-1.422-2.826-2.131-4.248C259.814,395.689,260.713,397.01,261.494,398.4Z" transform="translate(-138.135 -384.519)" fill="#475d05"/>
          <path id="Path_10" data-name="Path 10" d="M334.836,390.922a66.84,66.84,0,0,1,66.84,66.84H268A66.84,66.84,0,0,1,334.836,390.922Z" transform="translate(-267.996 -390.922)" fill="#62820f"/>
          <path id="Path_11" data-name="Path 11" d="M286.114,399.546a42.071,42.071,0,0,1,42.072,42.069H244.044A42.069,42.069,0,0,1,286.114,399.546Z" transform="translate(-125.711 -374.776)" fill="#62820f"/>
          <path id="Path_12" data-name="Path 12" d="M298.461,399.546a42.494,42.494,0,0,1,6.609.52,42.08,42.08,0,0,0-35.463,41.55H256.391A42.069,42.069,0,0,1,298.461,399.546Z" transform="translate(-138.058 -374.776)" fill="#475d05"/>
          <path id="Path_13" data-name="Path 13" d="M356,390.922c2.036,0,4.05.106,6.04.284a66.839,66.839,0,0,0-60.8,66.555H289.164A66.84,66.84,0,0,1,356,390.922Z" transform="translate(-289.164 -390.922)" fill="#475d05"/>
          <g id="Group_353" data-name="Group 353" transform="translate(73.636 8.78)">
            <ellipse id="Ellipse_2" data-name="Ellipse 2" cx="13.745" cy="13.745" rx="13.745" ry="13.745" transform="translate(0)" fill="#89a51d"/>
            <ellipse id="Ellipse_3" data-name="Ellipse 3" cx="5.855" cy="5.855" rx="5.855" ry="5.855" transform="translate(31.135 18.146)" fill="#89a51d"/>
          </g>
          <g id="Group_354" data-name="Group 354" transform="translate(166.222 30.211)">
            <ellipse id="Ellipse_4" data-name="Ellipse 4" cx="7.008" cy="7.008" rx="7.008" ry="7.008" transform="translate(0)" fill="#89a51d"/>
            <ellipse id="Ellipse_5" data-name="Ellipse 5" cx="2.985" cy="2.985" rx="2.985" ry="2.985" transform="translate(15.875 9.253)" fill="#89a51d"/>
          </g>
        </g>
        <g id="Group_358" data-name="Group 358" transform="translate(1543.153 311.203)">
          <path id="Path_14" data-name="Path 14" d="M83.424,392.039l1.448,2.78.718,1.4.609,1.448,1.215,2.907.988,3,.488,1.508.368,1.54c.23,1.031.526,2.054.7,3.1a51.676,51.676,0,0,1,.888,9.8c.638-1.562,1.238-3.145,1.761-4.759a76.209,76.209,0,0,0,2.832-11.621,76.763,76.763,0,0,1-1.4,12c-.3,1.563-.678,3.111-1.086,4.656a79.89,79.89,0,0,1,11.021-10.291c2.079-1.491,4.107-3.042,6.3-4.346,1.091-.661,2.128-1.4,3.254-1.99l3.349-1.824c1.1-.635,2.255-1.163,3.406-1.689l3.447-1.6c2.332-.979,4.71-1.85,7.054-2.775-2.275,1.1-4.573,2.134-6.816,3.274l-3.3,1.835c-1.1.6-2.2,1.209-3.243,1.916l-3.162,2.036c-1.063.664-2.031,1.465-3.047,2.189-2.054,1.43-3.921,3.093-5.834,4.688a76.754,76.754,0,0,0-10.056,10.9c-.735.988-1.468,1.973-2.117,3.013-.7,1.014-1.321,2.062-1.924,3.119a45.854,45.854,0,0,0-2.361,4.725c-.236.761-.491,1.531-.819,2.332l-3.99-1.959.049-.1-.095-.031c.365-.859.758-1.652,1.16-2.421.348-.925.666-1.887.948-2.823a44.6,44.6,0,0,0,1.264-5.848,49.556,49.556,0,0,0,.31-12.086c-.078-1.014-.276-2.013-.408-3.027l-.221-1.517-.342-1.491-.7-3-.933-2.938-.468-1.474-.58-1.43-1.181-2.866c-.85-1.881-1.861-3.694-2.792-5.555C81.224,388.5,82.4,390.224,83.424,392.039Z" transform="translate(77.961 -373.884)" fill="#4ad0ee"/>
          <path id="Path_15" data-name="Path 15" d="M179.37,382.26A87.441,87.441,0,0,1,266.812,469.7H91.928A87.441,87.441,0,0,1,179.37,382.26Z" transform="translate(-91.928 -382.26)" fill="#4ad0ee"/>
          <path id="Path_16" data-name="Path 16" d="M115.633,393.542a55.037,55.037,0,0,1,55.038,55.038H60.593A55.038,55.038,0,0,1,115.633,393.542Z" transform="translate(94.214 -361.138)" fill="#4ad0ee"/>
          <path id="Path_17" data-name="Path 17" d="M131.786,393.542a55.359,55.359,0,0,1,8.645.681,55.047,55.047,0,0,0-46.4,54.357H76.745A55.038,55.038,0,0,1,131.786,393.542Z" transform="translate(78.062 -361.138)" fill="#89a51d" opacity="0.3" style="mix-blend-mode: multiply;isolation: isolate"/>
          <path id="Path_18" data-name="Path 18" d="M207.062,382.26c2.665,0,5.3.141,7.9.373A87.439,87.439,0,0,0,135.429,469.7H119.62A87.441,87.441,0,0,1,207.062,382.26Z" transform="translate(-119.62 -382.26)" fill="#89a51d" opacity="0.3" style="mix-blend-mode: multiply;isolation: isolate"/>
          <g id="Group_356" data-name="Group 356" transform="translate(96.335 11.487)">
            <ellipse id="Ellipse_6" data-name="Ellipse 6" cx="17.982" cy="17.982" rx="17.982" ry="17.982" transform="translate(0)" fill="#6fa054"/>
            <ellipse id="Ellipse_7" data-name="Ellipse 7" cx="7.659" cy="7.659" rx="7.659" ry="7.659" transform="translate(40.733 23.74)" fill="#6fa054"/>
          </g>
          <g id="Group_357" data-name="Group 357" transform="translate(217.46 39.523)">
            <ellipse id="Ellipse_8" data-name="Ellipse 8" cx="9.168" cy="9.168" rx="9.168" ry="9.168" transform="translate(0)" fill="#6fa054"/>
            <ellipse id="Ellipse_9" data-name="Ellipse 9" cx="3.905" cy="3.905" rx="3.905" ry="3.905" transform="translate(20.769 12.105)" fill="#6fa054"/>
          </g>
        </g>
        <g id="Group_361" data-name="Group 361" transform="translate(219.096 326.252)">
          <path id="Path_19" data-name="Path 19" d="M543.844,391.126l1.2,2.3.6,1.156.5,1.2,1.008,2.406.816,2.483.4,1.248.3,1.275c.19.854.435,1.7.583,2.563a42.958,42.958,0,0,1,.735,8.111c.526-1.293,1.025-2.6,1.458-3.94a63.345,63.345,0,0,0,2.342-9.621,63.563,63.563,0,0,1-1.156,9.932c-.25,1.294-.561,2.575-.9,3.855a66.14,66.14,0,0,1,9.122-8.52c1.724-1.234,3.4-2.518,5.22-3.6.9-.547,1.762-1.158,2.694-1.648l2.773-1.51c.909-.525,1.864-.963,2.82-1.4l2.851-1.322c1.933-.811,3.9-1.531,5.842-2.3-1.886.908-3.788,1.767-5.643,2.711l-2.732,1.519c-.911.5-1.822,1-2.682,1.586l-2.618,1.686c-.88.549-1.681,1.213-2.525,1.812-1.7,1.184-3.246,2.561-4.827,3.881a63.26,63.26,0,0,0-8.325,9.026c-.609.818-1.215,1.634-1.755,2.495-.573.839-1.091,1.707-1.593,2.582a37.475,37.475,0,0,0-1.952,3.912c-.195.63-.409,1.268-.678,1.931l-3.305-1.622.04-.086-.076-.026c.3-.711.625-1.367.958-2,.288-.766.552-1.562.787-2.338a37.273,37.273,0,0,0,1.046-4.841,41.141,41.141,0,0,0,.255-10.006c-.064-.839-.228-1.667-.335-2.506l-.183-1.256-.283-1.234-.576-2.48-.773-2.433-.388-1.22-.483-1.184-.977-2.373c-.7-1.558-1.541-3.058-2.309-4.6C542.023,388.194,543,389.623,543.844,391.126Z" transform="translate(-410.235 -376.095)" fill="#4ad0ee"/>
          <path id="Path_20" data-name="Path 20" d="M625.307,382.26A72.392,72.392,0,0,1,697.7,454.653H552.914A72.392,72.392,0,0,1,625.307,382.26Z" transform="translate(-552.914 -382.26)" fill="#4ad0ee"/>
          <path id="Path_21" data-name="Path 21" d="M567.144,393.542a45.567,45.567,0,0,1,45.568,45.566H521.579A45.565,45.565,0,0,1,567.144,393.542Z" transform="translate(-393.415 -366.715)" fill="#4ad0ee"/>
          <path id="Path_22" data-name="Path 22" d="M583.3,393.542a45.833,45.833,0,0,1,7.157.564,45.571,45.571,0,0,0-38.408,45H537.732A45.565,45.565,0,0,1,583.3,393.542Z" transform="translate(-409.568 -366.715)" fill="#89a51d" opacity="0.3" style="mix-blend-mode: multiply;isolation: isolate"/>
          <path id="Path_23" data-name="Path 23" d="M653,382.26c2.207,0,4.387.116,6.544.309a72.388,72.388,0,0,0-65.849,72.084H580.606A72.392,72.392,0,0,1,653,382.26Z" transform="translate(-580.606 -382.26)" fill="#4ad0ee" opacity="0.3" style="mix-blend-mode: multiply;isolation: isolate"/>
          <g id="Group_359" data-name="Group 359" transform="translate(79.754 9.51)">
            <ellipse id="Ellipse_10" data-name="Ellipse 10" cx="14.887" cy="14.887" rx="14.887" ry="14.887" transform="translate(0)" fill="#6fa054"/>
            <ellipse id="Ellipse_11" data-name="Ellipse 11" cx="6.341" cy="6.341" rx="6.341" ry="6.341" transform="translate(33.723 19.654)" fill="#6fa054"/>
          </g>
          <g id="Group_360" data-name="Group 360" transform="translate(180.033 32.721)">
            <ellipse id="Ellipse_12" data-name="Ellipse 12" cx="7.591" cy="7.591" rx="7.591" ry="7.591" transform="translate(0)" fill="#6fa054"/>
            <ellipse id="Ellipse_13" data-name="Ellipse 13" cx="3.233" cy="3.233" rx="3.233" ry="3.233" transform="translate(17.195 10.021)" fill="#6fa054"/>
          </g>
        </g>
        <g id="Group_364" data-name="Group 364" transform="translate(602.254 345.342)">
          <path id="Path_24" data-name="Path 24" d="M433.756,400.72l.974,1.867.483.939.408.974.819,1.953.663,2.016.328,1.014.247,1.034c.155.692.353,1.382.474,2.082a35.006,35.006,0,0,1,.595,6.586c.428-1.051.833-2.114,1.183-3.2a51.318,51.318,0,0,0,1.9-7.812,51.455,51.455,0,0,1-.939,8.065c-.2,1.051-.457,2.091-.729,3.131a53.531,53.531,0,0,1,7.407-6.919c1.4-1,2.76-2.045,4.237-2.921.732-.442,1.43-.939,2.189-1.338l2.249-1.224c.738-.428,1.514-.784,2.289-1.137l2.318-1.074c1.568-.658,3.165-1.241,4.742-1.864-1.531.738-3.076,1.436-4.581,2.2l-2.217,1.232c-.741.405-1.479.813-2.18,1.287l-2.125,1.37c-.712.445-1.364.985-2.048,1.471-1.381.962-2.637,2.08-3.921,3.151a51.6,51.6,0,0,0-6.761,7.33c-.494.663-.985,1.327-1.422,2.025-.468.681-.887,1.387-1.3,2.1a30.525,30.525,0,0,0-1.585,3.174c-.158.514-.33,1.031-.549,1.568l-2.683-1.315.032-.069-.063-.02c.247-.577.508-1.112.778-1.629.236-.62.448-1.27.638-1.9a29.741,29.741,0,0,0,.85-3.932,33.517,33.517,0,0,0,.21-8.123c-.055-.684-.187-1.356-.276-2.034l-.147-1.02-.23-1.005-.468-2.013-.629-1.973-.313-.991-.391-.962-.8-1.924c-.572-1.267-1.249-2.485-1.876-3.737C432.28,398.339,433.069,399.5,433.756,400.72Z" transform="translate(-325.275 -388.516)" fill="#4ad0ee"/>
          <path id="Path_25" data-name="Path 25" d="M498.249,394.146a58.778,58.778,0,0,1,58.78,58.78H439.472A58.778,58.778,0,0,1,498.249,394.146Z" transform="translate(-439.472 -394.146)" fill="#4ad0ee"/>
          <path id="Path_26" data-name="Path 26" d="M455.406,401.729a37,37,0,0,1,37,37H418.409A37,37,0,0,1,455.406,401.729Z" transform="translate(-314.348 -379.949)" fill="#4ad0ee"/>
          <path id="Path_27" data-name="Path 27" d="M466.264,401.729a37.237,37.237,0,0,1,5.811.46,37,37,0,0,0-31.184,36.541H429.267A37,37,0,0,1,466.264,401.729Z" transform="translate(-325.206 -379.949)" fill="#89a51d" opacity="0.3" style="mix-blend-mode: multiply;isolation: isolate"/>
          <path id="Path_28" data-name="Path 28" d="M516.864,394.146c1.792,0,3.562.095,5.314.25a58.775,58.775,0,0,0-53.464,58.53H458.087A58.778,58.778,0,0,1,516.864,394.146Z" transform="translate(-458.087 -394.146)" fill="#89a51d" opacity="0.3" style="mix-blend-mode: multiply;isolation: isolate"/>
          <g id="Group_362" data-name="Group 362" transform="translate(64.756 7.721)">
            <ellipse id="Ellipse_14" data-name="Ellipse 14" cx="12.087" cy="12.087" rx="12.087" ry="12.087" transform="translate(0)" fill="#6fa054"/>
            <ellipse id="Ellipse_15" data-name="Ellipse 15" cx="5.149" cy="5.149" rx="5.149" ry="5.149" transform="translate(27.38 15.958)" fill="#6fa054"/>
          </g>
          <g id="Group_363" data-name="Group 363" transform="translate(146.176 26.567)">
            <ellipse id="Ellipse_16" data-name="Ellipse 16" cx="6.163" cy="6.163" rx="6.163" ry="6.163" transform="translate(0)" fill="#6fa054"/>
            <ellipse id="Ellipse_17" data-name="Ellipse 17" cx="2.625" cy="2.625" rx="2.625" ry="2.625" transform="translate(13.961 8.137)" fill="#6fa054"/>
          </g>
        </g>
        <g id="Group_367" data-name="Group 367" transform="translate(0 388.925)">
          <g transform="matrix(1, 0, 0, 1, -30, -656.81)" filter="url(#Rectangle_8)">
            <rect id="Rectangle_8-2" data-name="Rectangle 8" width="1919.999" height="63.725" transform="translate(30 663.25)" fill="#324e60"/>
          </g>
          <g id="Group_365" data-name="Group 365">
            <path id="Path_29" data-name="Path 29" d="M69.6,409.32H327.266c5.35,0,9.689,2.884,9.689,6.44s-4.339,6.439-9.689,6.439H69.6c-5.35,0-9.686-2.884-9.686-6.439S64.253,409.32,69.6,409.32Z" transform="translate(1583.045 -409.32)" fill="#d8cbc5"/>
            <path id="Path_30" data-name="Path 30" d="M247.75,409.32H1249.083c5.35,0,9.689,2.884,9.689,6.44s-4.339,6.439-9.689,6.439H247.75c-5.35,0-9.686-2.884-9.686-6.439S242.4,409.32,247.75,409.32Z" transform="translate(118.447 -409.32)" fill="#d8cbc5"/>
            <path id="Path_31" data-name="Path 31" d="M671.815,409.32H737.62c5.35,0,9.686,2.884,9.686,6.44s-4.336,6.439-9.686,6.439H671.815c-5.35,0-9.689-2.884-9.689-6.439S666.465,409.32,671.815,409.32Z" transform="translate(-662.126 -409.32)" fill="#d8cbc5"/>
          </g>
          <g id="Group_366" data-name="Group 366" transform="translate(8.065 50.508)">
            <path id="Path_32" data-name="Path 32" d="M65.382,426.905h47.951c1.56,0,2.821.948,2.821,2.123s-1.261,2.123-2.821,2.123H65.382c-1.557,0-2.818-.951-2.818-2.123S63.825,426.905,65.382,426.905Z" transform="translate(1787.716 -426.905)" fill="#d8cbc5"/>
            <path id="Path_33" data-name="Path 33" d="M153.44,426.905h96.051c1.56,0,2.821.948,2.821,2.123s-1.261,2.123-2.821,2.123H153.44c-1.557,0-2.818-.951-2.818-2.123S151.883,426.905,153.44,426.905Z" transform="translate(1383.261 -426.905)" fill="#d8cbc5"/>
            <path id="Path_34" data-name="Path 34" d="M257.288,426.905h96.048c1.56,0,2.821.948,2.821,2.123s-1.261,2.123-2.821,2.123H257.288c-1.56,0-2.821-.951-2.821-2.123S255.728,426.905,257.288,426.905Z" transform="translate(963.019 -426.905)" fill="#d8cbc5"/>
            <path id="Path_35" data-name="Path 35" d="M464.979,426.905h96.048c1.557,0,2.818.948,2.818,2.123s-1.261,2.123-2.818,2.123H464.979c-1.56,0-2.821-.951-2.821-2.123S463.418,426.905,464.979,426.905Z" transform="translate(122.539 -426.905)" fill="#d8cbc5"/>
            <path id="Path_36" data-name="Path 36" d="M361.132,426.905h96.054c1.557,0,2.821.948,2.821,2.123s-1.264,2.123-2.821,2.123H361.132c-1.557,0-2.821-.951-2.821-2.123S359.575,426.905,361.132,426.905Z" transform="translate(542.776 -426.905)" fill="#d8cbc5"/>
            <path id="Path_37" data-name="Path 37" d="M568.823,426.905h96.048c1.557,0,2.818.948,2.818,2.123s-1.261,2.123-2.818,2.123H568.823c-1.56,0-2.821-.951-2.821-2.123S567.263,426.905,568.823,426.905Z" transform="translate(-297.703 -426.905)" fill="#d8cbc5"/>
            <path id="Path_38" data-name="Path 38" d="M672.668,426.905h47.951c1.557,0,2.818.948,2.818,2.123s-1.261,2.123-2.818,2.123H672.668c-1.56,0-2.821-.951-2.821-2.123S671.109,426.905,672.668,426.905Z" transform="translate(-669.847 -426.905)" fill="#d8cbc5"/>
          </g>
        </g>
        <g id="Group_373" data-name="Group 373" transform="translate(579.6 113.227)">
          <path id="Path_39" data-name="Path 39" d="M576.492,284.275l-151.762,4.59,151.762,4.59Z" transform="translate(-329.879 -262.111)" fill="#f6c22f"/>
          <path id="Path_40" data-name="Path 40" d="M576.492,362.823l-151.762,4.59L576.492,372Z" transform="translate(-329.879 -172.681)" fill="#ffe900"/>
          <path id="Path_41" data-name="Path 41" d="M535.186,278.266,424.73,281.02l110.456,2.754Z" transform="translate(-288.573 -268.953)" fill="#f6c332"/>
          <path id="Path_42" data-name="Path 42" d="M671.343,292.717,424.73,300.06,671.343,307.4Z" transform="translate(-424.73 -252.5)" fill="#f6c02e"/>
          <path id="Path_43" data-name="Path 43" d="M671.343,350.662,424.73,359.841l246.613,9.179Z" transform="translate(-424.73 -186.527)" fill="#ffe900"/>
          <path id="Path_44" data-name="Path 44" d="M671.343,311.459,424.73,319.72l246.613,8.261Z" transform="translate(-424.73 -231.161)" fill="#feeccc"/>
          <path id="Path_45" data-name="Path 45" d="M506.118,322.905l-81.388,8.261,81.388,8.261Z" transform="translate(-259.506 -218.129)" fill="#feeccc"/>
          <path id="Path_46" data-name="Path 46" d="M671.343,384.141,424.73,386.895l246.613,2.754Z" transform="translate(-424.73 -148.41)" fill="#11345b"/>
          <path id="Path_47" data-name="Path 47" d="M587.507,391.438,424.73,396.946l162.777,5.507Z" transform="translate(-340.894 -140.102)" fill="#11345b"/>
          <path id="Path_48" data-name="Path 48" d="M544.584,421.484l-162.777,5.507L544.584,432.5Z" transform="translate(-206.18 -105.894)" fill="#233a4c"/>
          <path id="Path_49" data-name="Path 49" d="M486.271,415.9l-101.888,5.508,101.888,5.507Z" transform="translate(-153.375 -112.247)" fill="#233a4c"/>
          <path id="Path_50" data-name="Path 50" d="M460.264,407.033l-75.881,5.508,75.881,5.507Z" transform="translate(-127.367 -122.346)" fill="#233a4c"/>
          <path id="Path_51" data-name="Path 51" d="M349.287,421.484l-162.776,5.507L349.287,432.5Z" transform="translate(406.767 -105.894)" fill="#233a4c"/>
          <path id="Path_52" data-name="Path 52" d="M290.974,415.9l-101.888,5.508,101.888,5.507Z" transform="translate(459.573 -112.247)" fill="#233a4c"/>
          <path id="Path_53" data-name="Path 53" d="M264.967,407.033l-75.881,5.508,75.881,5.507Z" transform="translate(485.58 -122.346)" fill="#233a4c"/>
          <g id="Group_372" data-name="Group 372" transform="translate(216.001)">
            <rect id="Rectangle_9" data-name="Rectangle 9" width="15.18" height="44.002" rx="3.549" transform="translate(0 236.858)" fill="#11345b"/>
            <path id="Path_54" data-name="Path 54" d="M241.256,300.011V520.429H222.139V300.011Z" transform="translate(222.605 -244.196)" fill="#11345b"/>
            <path id="Path_55" data-name="Path 55" d="M119.035,529.83H344.165a5.259,5.259,0,0,0,5.259-5.259V425.779a12.979,12.979,0,0,0-6.189-11.06l-15.1-9.268L295.7,317.473a30.869,30.869,0,0,0-29.461-21.655H123.374a8.966,8.966,0,0,0-8.967,8.967V525.2A4.628,4.628,0,0,0,119.035,529.83Z" transform="translate(344.826 -248.969)" fill="#11345b"/>
            <path id="Path_56" data-name="Path 56" d="M153.177,494.016h-38.77V304.785a8.966,8.966,0,0,1,8.967-8.967H266.239A30.869,30.869,0,0,1,295.7,317.473l32.431,87.977,15.1,9.268a12.979,12.979,0,0,1,6.189,11.06v98.792a5.259,5.259,0,0,1-5.259,5.259H274.7a64.976,64.976,0,0,0,.464-7.622,64.251,64.251,0,0,0-121.985-28.192Z" transform="translate(344.826 -248.969)" fill="url(#linear-gradient)"/>
            <path id="Path_57" data-name="Path 57" d="M125.832,491.311V309.16A10.979,10.979,0,0,1,136.8,298.194H265.973a25.63,25.63,0,0,1,24.568,17.962l34.185,93.51V505.1a16.962,16.962,0,0,1-16.942,16.944H274.816c.034-.845.079-1.687.079-2.541q0-1.646-.081-3.268h32.97A11.147,11.147,0,0,0,318.917,505.1V410.692l-33.875-92.674A19.9,19.9,0,0,0,265.973,304H136.8a5.164,5.164,0,0,0-5.158,5.158v182.15Z" transform="translate(345.092 -246.264)" fill="#f8a71d" opacity="0.5" style="mix-blend-mode: multiply;isolation: isolate"/>
            <path id="Path_58" data-name="Path 58" d="M139.994,300.91H259.13a19.866,19.866,0,0,1,19.044,13.943l30.62,82.186a9.367,9.367,0,0,1-8.941,12.164H276.469a46.619,46.619,0,0,1-29.942-10.909l-2.915-2.449a43.689,43.689,0,0,0-28.07-10.229H139.994A10.127,10.127,0,0,1,129.878,375.5V311.025A10.127,10.127,0,0,1,139.994,300.91Z" transform="translate(351.935 -243.172)" fill="#f8a71d" opacity="0.5" style="mix-blend-mode: multiply;isolation: isolate"/>
            <path id="Path_59" data-name="Path 59" d="M136.025,298.873H265.2a24.2,24.2,0,0,1,23.2,17.008l34.009,93.027.088.242v95.178a15.508,15.508,0,0,1-15.489,15.492h-180.5V308.387A9.526,9.526,0,0,1,136.025,298.873Zm-6.61,218.041h177.6A12.6,12.6,0,0,0,319.6,504.327V409.662l-33.941-92.851A21.344,21.344,0,0,0,265.2,301.777H136.025a6.619,6.619,0,0,0-6.61,6.61Z" transform="translate(345.865 -245.491)" fill="#11345b"/>
            <path id="Path_60" data-name="Path 60" d="M214.77,383.393H139.222a8.664,8.664,0,0,1-8.663-8.663V310.252a8.664,8.664,0,0,1,8.663-8.663H258.358a18.45,18.45,0,0,1,17.684,13L306.635,396.7a7.915,7.915,0,0,1-7.553,10.278H275.7A45.092,45.092,0,0,1,246.69,396.41l-2.915-2.449A45.082,45.082,0,0,0,214.77,383.393Z" transform="translate(352.707 -242.399)" fill="#11345b"/>
            <path id="Path_61" data-name="Path 61" d="M203.371,347.1H226.6a3.872,3.872,0,1,1,0,7.744H203.371a3.872,3.872,0,0,1,0-7.744Z" transform="translate(281.8 -190.586)" fill="#f8a71d" opacity="0.5" style="mix-blend-mode: multiply;isolation: isolate"/>
            <path id="Path_62" data-name="Path 62" d="M202.454,346.178h23.229a3.871,3.871,0,1,1,0,7.742H202.454a3.871,3.871,0,1,1,0-7.742Z" transform="translate(284.685 -191.632)" fill="#feeccc"/>
            <path id="Path_63" data-name="Path 63" d="M112.676,422.008h19.959V379.731a6.677,6.677,0,0,1,7.331-6.644,6.87,6.87,0,0,1,6.018,6.931v47.341a8,8,0,0,1-8,8h-25.6a6.676,6.676,0,0,1-6.644-7.331A6.869,6.869,0,0,1,112.676,422.008Z" transform="translate(566.859 -161.031)" fill="#11345b"/>
            <path id="Path_64" data-name="Path 64" d="M244.944,388.5a63.979,63.979,0,0,0-6.51,28.192,64.971,64.971,0,0,0,.466,7.622H210.8a4.628,4.628,0,0,1-4.628-4.628V388.5Z" transform="translate(253.059 -143.45)" fill="#11345b"/>
            <g id="Group_368" data-name="Group 368" transform="translate(649.589 121.877)">
              <path id="Path_65" data-name="Path 65" d="M132.594,332.756l4.363-1.8a7.19,7.19,0,0,1,1.664,0c1.031-.426,1.869,1.89,1.869,5.173v29.664c0,3.283-.838,6.287-1.869,6.713l-4.365,1.8a7.058,7.058,0,0,1-1.662,0c-1.033.426-1.869-1.89-1.869-5.173V339.469C130.725,336.189,131.561,333.182,132.594,332.756Z" transform="translate(-130.725 -330.902)" fill="#eacfa4"/>
              <path id="Path_66" data-name="Path 66" d="M132.594,332.753l4.365-1.8c1.031-.426,1.869,1.891,1.869,5.173v29.664c0,3.283-.838,6.287-1.869,6.713l-4.365,1.8c-1.033.426-1.869-1.89-1.869-5.173V339.466C130.725,336.186,131.561,333.179,132.594,332.753Z" transform="translate(-129.063 -330.899)" fill="#feeccc"/>
            </g>
            <path id="Path_67" data-name="Path 67" d="M184.44,407.693a64.242,64.242,0,0,1,57.738-36.056c.892,0,1.779.026,2.663.066a64.223,64.223,0,0,0-61.466,64.182,64.97,64.97,0,0,0,.466,7.622H178.4a64.97,64.97,0,0,1-.466-7.622A63.979,63.979,0,0,1,184.44,407.693Z" transform="translate(313.563 -162.646)" fill="#feeccc"/>
            <ellipse id="Ellipse_18" data-name="Ellipse 18" cx="56.795" cy="56.795" rx="56.795" ry="56.795" transform="translate(498.946 216.444)" fill="#233a4c"/>
            <ellipse id="Ellipse_19" data-name="Ellipse 19" cx="52.686" cy="52.686" rx="52.686" ry="52.686" transform="translate(503.055 220.553)" fill="#294259"/>
            <ellipse id="Ellipse_20" data-name="Ellipse 20" cx="35.332" cy="35.332" rx="35.332" ry="35.332" transform="translate(520.409 237.907)" fill="#233a4c"/>
            <ellipse id="Ellipse_21" data-name="Ellipse 21" cx="30.513" cy="30.513" rx="30.513" ry="30.513" transform="translate(525.228 242.726)" fill="#feeccc"/>
            <path id="Path_68" data-name="Path 68" d="M179.62,390.481A30.484,30.484,0,0,0,222.438,433.3a30.492,30.492,0,1,1-42.818-42.816Z" transform="translate(357.252 -141.191)" fill="#d8bf98"/>
            <g id="Group_369" data-name="Group 369" transform="translate(13.402)">
              <rect id="Rectangle_10" data-name="Rectangle 10" width="439.616" height="280.861" rx="10.414" fill="url(#linear-gradient)"/>
              <path id="Path_69" data-name="Path 69" d="M319.314,524.8h216.04a5.044,5.044,0,0,0,5.045-5.045v-94.8a12.449,12.449,0,0,0-5.939-10.614l-14.5-8.9-31.12-84.423a29.623,29.623,0,0,0-28.272-20.78h-137.1a8.6,8.6,0,0,0-8.6,8.6V520.359A4.442,4.442,0,0,0,319.314,524.8Z" transform="translate(-288.253 -243.938)" fill="#11345b"/>
              <path id="Path_70" data-name="Path 70" d="M321.62,295.818H464.485a30.872,30.872,0,0,1,29.463,21.655l32.429,87.977,15.1,9.268a12.979,12.979,0,0,1,6.189,11.06v98.792a5.257,5.257,0,0,1-5.257,5.259H472.943a64.963,64.963,0,0,0,.464-7.622,64.246,64.246,0,1,0-128.492,0,64.97,64.97,0,0,0,.464,7.622h-28.1a4.628,4.628,0,0,1-4.628-4.628V304.785A8.966,8.966,0,0,1,321.62,295.818Z" transform="translate(-290.78 -248.969)" fill="url(#linear-gradient-3)"/>
            </g>
            <rect id="Rectangle_11" data-name="Rectangle 11" width="439.616" height="62.916" transform="translate(13.402 61.623)" fill="#feeccc"/>
            <path id="Path_71" data-name="Path 71" d="M236.052,280.449H642.486a2.042,2.042,0,0,1,2.038,2.038V531.309a2.042,2.042,0,0,1-2.038,2.038H236.052a2.042,2.042,0,0,1-2.038-2.038V282.487A2.042,2.042,0,0,1,236.052,280.449Zm.845,2.883V530.464H641.641V283.332Z" transform="translate(-206.059 -266.467)" fill="#f8a71d" opacity="0.5" style="mix-blend-mode: multiply;isolation: isolate"/>
            <path id="Path_72" data-name="Path 72" d="M234.985,280.361H644.362a1.327,1.327,0,0,1,1.326,1.326V532.309a1.327,1.327,0,0,1-1.326,1.326H234.985a1.327,1.327,0,0,1-1.326-1.326V281.687A1.327,1.327,0,0,1,234.985,280.361Zm.126,251.822H644.238V281.813H235.111Z" transform="translate(-206.463 -266.568)" fill="#11345b"/>
            <g id="Group_371" data-name="Group 371" transform="translate(67.537 208.991)">
              <g id="Group_370" data-name="Group 370" transform="translate(7.452 7.453)">
                <ellipse id="Ellipse_22" data-name="Ellipse 22" cx="56.795" cy="56.795" rx="56.795" ry="56.795" transform="translate(0)" fill="#233a4c"/>
                <ellipse id="Ellipse_23" data-name="Ellipse 23" cx="52.686" cy="52.686" rx="52.686" ry="52.686" transform="translate(4.109 4.109)" fill="#294259"/>
                <ellipse id="Ellipse_24" data-name="Ellipse 24" cx="35.332" cy="35.332" rx="35.332" ry="35.332" transform="translate(21.463 21.463)" fill="#233a4c"/>
                <ellipse id="Ellipse_25" data-name="Ellipse 25" cx="30.513" cy="30.513" rx="30.513" ry="30.513" transform="translate(26.282 26.282)" fill="#feeccc"/>
                <path id="Path_73" data-name="Path 73" d="M377.866,390.481A30.484,30.484,0,0,0,420.684,433.3a30.492,30.492,0,1,1-42.818-42.816Z" transform="translate(-339.94 -357.635)" fill="#d8bf98"/>
              </g>
              <path id="Path_74" data-name="Path 74" d="M382.684,407.693a64.245,64.245,0,0,1,57.739-36.056c.892,0,1.779.026,2.663.066a64.217,64.217,0,0,0-61.464,64.182,64.961,64.961,0,0,0,.464,7.622H376.64a64.961,64.961,0,0,1-.464-7.622A63.978,63.978,0,0,1,382.684,407.693Z" transform="translate(-376.176 -371.637)" fill="#feeccc"/>
            </g>
            <rect id="Rectangle_12" data-name="Rectangle 12" width="410.89" height="2.081" transform="translate(28.093 201.699)" fill="#11345b" opacity="0.25"/>
          </g>
        </g>
      </g>
    </g>
  </g>
</svg>
