<svg xmlns="http://www.w3.org/2000/svg" width="217.809" height="394.021" viewBox="0 0 217.809 394.021">
  <g id="Group_448" data-name="Group 448" transform="translate(-6309.957 -7323.175)">
    <path id="Path_90" data-name="Path 90" d="M817.167,613.084h11.49l5.467-44.32H817.165Z" transform="translate(5598.637 7089.172)" fill="#ffb8b8"/>
    <path id="Path_91" data-name="Path 91" d="M935.558,749.442h22.629a14.421,14.421,0,0,1,14.421,14.42v.469H935.559Z" transform="translate(5477.315 6949.063)" fill="#0d142d"/>
    <path id="Path_92" data-name="Path 92" d="M781.694,561.929l8.479,7.755,33.945-29.015L811.6,529.224Z" transform="translate(5605.494 7096.815)" fill="#ffb8b8"/>
    <path id="Path_93" data-name="Path 93" d="M901.767,694.271l16.7,15.271h0a14.421,14.421,0,0,1,.909,20.373l-.316.346-27.34-25Z" transform="translate(5485.789 6959.728)" fill="#0d142d"/>
    <path id="Path_94" data-name="Path 94" d="M830,428.041l-3.257,65.132L834.881,564l-24.425,3.257L794.987,477.7,790.1,416.642Z" transform="translate(5603.869 7118.578)" fill="#04103a"/>
    <path id="Path_95" data-name="Path 95" d="M990.282,523.893s9.77,64.318-10.584,85.487S931.663,668,931.663,668l-19.537-24.426,49.664-52.92-9.77-35.823L912.126,536.1l6.513-44.779,58.619-.814Z" transform="translate(5481.845 6999.115)" fill="#04103a"/>
    <circle id="Ellipse_31" data-name="Ellipse 31" cx="19.939" cy="19.939" r="19.939" transform="translate(6407.358 7334.138)" fill="#ffb8b8"/>
    <path id="Path_96" data-name="Path 96" d="M842.7,227.224l3.054,4.627,8.142,22.8-6.513,88.742-38.266.815-4.885-101.77,10.233-12.791Z" transform="translate(5601.137 7155.192)" fill="#4ad0ee"/>
    <path id="Path_97" data-name="Path 97" d="M902.4,379.3l-6.513-.814s-1.628.814-2.443,6.513-10.584,56.177-10.584,56.177l13.026,61.876,14.655-19.54-8.956-34.194,8.956-34.195Z" transform="translate(5487.502 7020.77)" fill="#04103a"/>
    <path id="Path_98" data-name="Path 98" d="M885.658,248.1h4.885l12.213,65.946-11.4,51.292-11.4-18.726,3.257-20.354-1.628-17.911-5.7-10.585Z" transform="translate(5587.286 7151.157)" fill="#04103a"/>
    <path id="Path_99" data-name="Path 99" d="M959.575,315.077l-3.625-.906s-2.719-15.408-9.063-13.6-22.659,3.625-22.659-3.625,15.408-13.6,24.471-12.689,20.639,3.913,23.565,17.22c4.691,21.332-9.678,26.721-9.678,26.721l.239-.777a12.1,12.1,0,0,0-3.25-12.349Z" transform="translate(5479.505 7039)" fill="#2f2e41"/>
    <path id="Path_100" data-name="Path 100" d="M900.015,374.292l26.053-10.584,6.106-4.478,18.319,81.009L962.705,403.6l-3.664-46.814,33.787,17.5-11.4,55.363L979.8,450.822l4.885,17.1s17.1,12.212,11.4,25.239S983.873,507,983.873,507s-27.681-26.053-29.31-32.566-4.071-17.911-4.071-17.911-13.841,52.106-30.124,51.292S904.086,489.9,904.086,489.9l4.071-17.911,6.513-18.726-3.257-30.938Z" transform="translate(5484.186 7024.964)" fill="#04103a"/>
    <path id="Path_101" data-name="Path 101" d="M1024.982,771.646h-216.2c-.446,0-.807-.9-.807-2.017s.361-2.017.807-2.017h216.2c.445,0,.807.9.807,2.017S1025.427,771.646,1024.982,771.646Z" transform="translate(5501.976 6945.551)" fill="#4ad0ee"/>
  </g>
</svg>
