<svg xmlns="http://www.w3.org/2000/svg" width="73" height="34.789" viewBox="0 0 73 34.789">
  <g id="Group_1094" data-name="Group 1094" transform="translate(-9 -121.5)">
    <path id="Path_780" data-name="Path 780" d="M80.4,144.818h-.726v-8.04a4.5,4.5,0,0,0-4.491-4.491H67.094l-3.535-8.324-.017-.038a4.363,4.363,0,0,0-3.923-2.425H49.395a.669.669,0,0,0-.669.669V132.3H11.993a.669.669,0,0,0-.669.669v11.862H10.6a1.6,1.6,0,0,0-1.6,1.59v2.788a1.6,1.6,0,0,0,1.6,1.6h3.386a.669.669,0,0,0,.669-.669v-1.655h1.129a6.893,6.893,0,1,0,13.664,0H61.552a7.192,7.192,0,0,0-.059.908,6.893,6.893,0,1,0,13.725-.908h1.129v1.655a.669.669,0,0,0,.669.669H80.4a1.6,1.6,0,0,0,1.6-1.6v-2.788A1.6,1.6,0,0,0,80.4,144.818Zm-67.087,4.648H10.6a.26.26,0,0,1-.26-.26v-2.788a.26.26,0,0,1,.26-.262h2.717Zm14.109,2.706a5.556,5.556,0,1,1-9.62-5.561,5.323,5.323,0,0,1,4.81-2.528,5.329,5.329,0,0,1,4.812,2.528,5.555,5.555,0,0,1,0,5.555Zm21.3-5.024H29.13a6.855,6.855,0,0,0-.547-1.2,6.631,6.631,0,0,0-5.97-3.2,6.629,6.629,0,0,0-5.97,3.189,6.88,6.88,0,0,0-.547,1.2H14.653v-1.659a.669.669,0,0,0-.669-.669H12.661V133.635H48.726Zm24.47,5.024a5.555,5.555,0,1,1-9.622-5.555,5.842,5.842,0,0,1,9.622,0A5.542,5.542,0,0,1,73.2,152.171Zm3.151-6.688v1.655H74.9a7.091,7.091,0,0,0-12.483-1.2,7.015,7.015,0,0,0-.547,1.2H50.063v-24.3h9.555a3.031,3.031,0,0,1,2.717,1.668l3.7,8.712a.671.671,0,0,0,.615.417h8.531a3.159,3.159,0,0,1,3.008,2.207H77.016a.669.669,0,0,0-.669.669v4.315a.669.669,0,0,0,.669.669h1.322v3.333H77.016a.669.669,0,0,0-.669.656Zm1.991-8.317v2.977h-.654V137.17Zm2.324,12.039a.26.26,0,0,1-.26.26H77.685v-3.31H80.4a.26.26,0,0,1,.26.262Z" fill="#142850"/>
    <rect id="Rectangle_169" data-name="Rectangle 169" width="0.654" height="2.977" transform="translate(77.685 137.17)" fill="#f6b53f"/>
    <path id="Path_781" data-name="Path 781" d="M371.4,250.782v2.788a.26.26,0,0,1-.26.26H368.42v-3.31h2.717a.26.26,0,0,1,.26.262Z" transform="translate(-290.735 -104.364)" fill="#0c7b93"/>
    <path id="Path_782" data-name="Path 782" d="M301.042,242.2a5.841,5.841,0,0,0-9.622,0,5.557,5.557,0,1,0,9.622,0Zm-4.81,5.351a2.826,2.826,0,1,1,2.826-2.826,2.826,2.826,0,0,1-2.826,2.826Z" transform="translate(-227.846 -95.588)" fill="#00a8cc"/>
    <path id="Path_783" data-name="Path 783" d="M18.977,250.52v3.31H16.26a.26.26,0,0,1-.26-.26v-2.788a.26.26,0,0,1,.26-.262Z" transform="translate(-5.662 -104.364)" fill="#0c7b93"/>
    <path id="Path_784" data-name="Path 784" d="M61.54,242.2a5.841,5.841,0,0,0-9.622,0,5.555,5.555,0,1,0,9.622,0Zm-4.812,5.351a2.826,2.826,0,1,1,2.821-2.823,2.826,2.826,0,0,1-2.821,2.823Z" transform="translate(-34.114 -95.588)" fill="#00a8cc"/>
    <path id="Path_785" data-name="Path 785" d="M64.224,185v13.516h-19.6a6.854,6.854,0,0,0-.547-1.2,6.631,6.631,0,0,0-5.97-3.2,6.626,6.626,0,0,0-5.97,3.186,6.88,6.88,0,0,0-.547,1.2H30.151v-1.659a.669.669,0,0,0-.669-.669H28.16V185Z" transform="translate(-15.499 -51.365)" fill="#0c7b93"/>
    <path id="Path_786" data-name="Path 786" d="M250.833,147.147a.669.669,0,0,1-.669-.669v-4.315a.669.669,0,0,1,.669-.669h1.177A3.159,3.159,0,0,0,249,139.3h-8.531a.671.671,0,0,1-.615-.407l-3.7-8.722a3.031,3.031,0,0,0-2.717-1.668H223.88v24.3h11.806a7.016,7.016,0,0,1,.547-1.2,6.891,6.891,0,0,1,12.485,1.2h1.447v-1.659a.669.669,0,0,1,.669-.669h1.322v-3.329Zm-20.721-4.315H225.8a.669.669,0,1,1,0-1.338h4.315a.669.669,0,1,1,0,1.338Zm8.332-3.843a.671.671,0,0,1-.556.3H225.8a.669.669,0,0,1-.669-.669v-8.2a.667.667,0,0,1,.669-.669H233.3a2.377,2.377,0,0,1,2.278,1.657l2.922,6.956A.665.665,0,0,1,238.444,138.989Z" transform="translate(-173.817 -5.662)" fill="#00a8cc"/>
    <path id="Path_787" data-name="Path 787" d="M68.252,251.34a2.826,2.826,0,1,0,2.821,2.826A2.826,2.826,0,0,0,68.252,251.34Zm0,4.315a1.489,1.489,0,1,1,1.483-1.489A1.489,1.489,0,0,1,68.252,255.655Z" transform="translate(-45.638 -105.028)" fill="#142850"/>
    <circle id="Ellipse_64" data-name="Ellipse 64" cx="1.489" cy="1.489" r="1.489" transform="translate(20.509 149.139) rotate(-45)" fill="#81f5ff"/>
    <path id="Path_788" data-name="Path 788" d="M307.8,251.34a2.826,2.826,0,1,0,2.826,2.826A2.826,2.826,0,0,0,307.8,251.34Zm0,4.315a1.489,1.489,0,1,1,1.489-1.489A1.489,1.489,0,0,1,307.8,255.655Z" transform="translate(-239.41 -105.028)" fill="#142850"/>
    <circle id="Ellipse_65" data-name="Ellipse 65" cx="1.489" cy="1.489" r="1.489" transform="translate(66.593 150.242) rotate(-76.72)" fill="#81f5ff"/>
    <path id="Path_789" data-name="Path 789" d="M243.785,143.618l-2.922-6.956A2.377,2.377,0,0,0,238.585,135h-7.506a.667.667,0,0,0-.669.669v8.2a.669.669,0,0,0,.669.669H243.17a.667.667,0,0,0,.615-.927Zm-12.039-.411v-6.87h6.838a1.053,1.053,0,0,1,1.011.747.419.419,0,0,0,.023.063l2.545,6.069Z" transform="translate(-179.099 -10.92)" fill="#142850"/>
    <path id="Path_790" data-name="Path 790" d="M247.825,148.88H237.41V142h6.838a1.053,1.053,0,0,1,1.011.747.419.419,0,0,0,.023.063Z" transform="translate(-184.761 -16.583)" fill="#81f5ff"/>
    <path id="Path_791" data-name="Path 791" d="M236.065,197.169a.669.669,0,0,1-.669.669h-4.317a.669.669,0,1,1,0-1.338h4.315a.669.669,0,0,1,.671.669Z" transform="translate(-179.099 -60.668)" fill="#142850"/>
  </g>
</svg>
