<svg xmlns="http://www.w3.org/2000/svg" width="471" height="793.872" viewBox="0 0 471 793.872">
  <g id="Group_1198" data-name="Group 1198" transform="translate(-444 -195)">
    <g id="Group_1193" data-name="Group 1193" transform="translate(-9542 4328)">
      <path id="Path_796" data-name="Path 796" d="M-52-7.995S229.3,26.053,229.3,108.177-52,201.435-52,283.681s281.3,70.153,281.3,153.482S-52,536.037-52,629.766,229.3,769.29,229.3,769.29" transform="translate(10123.061 -4117.77)" fill="none" stroke="#4ad0ee" stroke-linecap="round" stroke-width="5" stroke-dasharray="10 15"/>
      <path id="Path_798" data-name="Path 798" d="M9.351,0A9.351,9.351,0,1,1,0,9.351,9.351,9.351,0,0,1,9.351,0Z" transform="translate(10065 -4133)" fill="#fff"/>
      <path id="Path_797" data-name="Path 797" d="M9.351,0A9.351,9.351,0,1,1,0,9.351,9.351,9.351,0,0,1,9.351,0Z" transform="translate(10343.007 -4028.591)" fill="#fff"/>
      <path id="Path_799" data-name="Path 799" d="M9.351,0A9.351,9.351,0,1,1,0,9.351,9.351,9.351,0,0,1,9.351,0Z" transform="translate(10061.709 -3849.413)" fill="#fff"/>
      <path id="Path_800" data-name="Path 800" d="M9.351,0A9.351,9.351,0,1,1,0,9.351,9.351,9.351,0,0,1,9.351,0Z" transform="translate(10343.007 -3702.288)" fill="#fff"/>
      <path id="Path_802" data-name="Path 802" d="M9.351,0A9.351,9.351,0,1,1,0,9.351,9.351,9.351,0,0,1,9.351,0Z" transform="translate(10061.709 -3501.603)" fill="#fff"/>
      <path id="Path_803" data-name="Path 803" d="M9.351,0A9.351,9.351,0,1,1,0,9.351,9.351,9.351,0,0,1,9.351,0Z" transform="translate(10343.007 -3357.83)" fill="#fff"/>
    </g>
    <g id="Group_1194" data-name="Group 1194" transform="translate(148 -23)">
      <text id="This_is_Content" data-name="This is Content" transform="translate(389 298)" fill="#fff" font-size="20" font-family="Poppins-SemiBold, Poppins" font-weight="600"><tspan x="-74.81" y="0">This is Content</tspan></text>
      <text id="Lorem_ipsum_dolor_sit_amet_consetetur_sadipscing_elitr_sed_diam_nonumy_eirmod" data-name="Lorem ipsum dolor sit amet, 
consetetur sadipscing elitr, 
sed diam nonumy eirmod" transform="translate(314 336)" fill="#fff" font-size="16" font-family="Poppins-Regular, Poppins"><tspan x="0" y="0">Lorem ipsum dolor sit amet, </tspan><tspan x="0" y="25">consetetur sadipscing elitr, </tspan><tspan x="0" y="50">sed diam nonumy eirmod</tspan></text>
    </g>
    <g id="Group_1195" data-name="Group 1195" transform="translate(363 153)">
      <text id="This_is_Content-2" data-name="This is Content" transform="translate(389 298)" fill="#fff" font-size="20" font-family="Poppins-SemiBold, Poppins" font-weight="600"><tspan x="-74.81" y="0">This is Content</tspan></text>
      <text id="Lorem_ipsum_dolor_sit_amet_consetetur_sadipscing_elitr_sed_diam_nonumy_eirmod-2" data-name="Lorem ipsum dolor sit amet, 
consetetur sadipscing elitr, 
sed diam nonumy eirmod" transform="translate(314 336)" fill="#fff" font-size="16" font-family="Poppins-Regular, Poppins"><tspan x="0" y="0">Lorem ipsum dolor sit amet, </tspan><tspan x="0" y="25">consetetur sadipscing elitr, </tspan><tspan x="0" y="50">sed diam nonumy eirmod</tspan></text>
    </g>
    <g id="Group_1196" data-name="Group 1196" transform="translate(130 329)">
      <text id="This_is_Content-3" data-name="This is Content" transform="translate(389 298)" fill="#fff" font-size="20" font-family="Poppins-SemiBold, Poppins" font-weight="600"><tspan x="-74.81" y="0">This is Content</tspan></text>
      <text id="Lorem_ipsum_dolor_sit_amet_consetetur_sadipscing_elitr_sed_diam_nonumy_eirmod-3" data-name="Lorem ipsum dolor sit amet, 
consetetur sadipscing elitr, 
sed diam nonumy eirmod" transform="translate(314 336)" fill="#fff" font-size="16" font-family="Poppins-Regular, Poppins"><tspan x="0" y="0">Lorem ipsum dolor sit amet, </tspan><tspan x="0" y="25">consetetur sadipscing elitr, </tspan><tspan x="0" y="50">sed diam nonumy eirmod</tspan></text>
    </g>
    <g id="Group_1197" data-name="Group 1197" transform="translate(374 505)">
      <text id="This_is_Content-4" data-name="This is Content" transform="translate(389 298)" fill="#fff" font-size="20" font-family="Poppins-SemiBold, Poppins" font-weight="600"><tspan x="-74.81" y="0">This is Content</tspan></text>
      <text id="Lorem_ipsum_dolor_sit_amet_consetetur_sadipscing_elitr_sed_diam_nonumy_eirmod-4" data-name="Lorem ipsum dolor sit amet, 
consetetur sadipscing elitr, 
sed diam nonumy eirmod" transform="translate(314 336)" fill="#fff" font-size="16" font-family="Poppins-Regular, Poppins"><tspan x="0" y="0">Lorem ipsum dolor sit amet, </tspan><tspan x="0" y="25">consetetur sadipscing elitr, </tspan><tspan x="0" y="50">sed diam nonumy eirmod</tspan></text>
    </g>
  </g>
</svg>
